AtkinsonHyperlegibleNext-RegularItalic.sfdir
StartChar: exclam
Encoding: 33 33 263
Width: 289
GlyphClass: 1
Flags: W
LayerCount: 2
Fore
SplineSet
152 496 m 1,0,-1
 188 668 l 1,1,-1
 278 668 l 1,2,-1
 242 496 l 1,3,-1
 159 195 l 1,4,-1
 107 195 l 1,5,-1
 152 496 l 1,0,-1
56.5 7.5 m 128,-1,7
 38 27 38 27 38 55 c 0,8,9
 38 81 38 81 57 99.5 c 128,-1,10
 76 118 76 118 102 118 c 0,11,12
 129 118 129 118 148 99 c 128,-1,13
 167 80 167 80 168 53 c 0,14,15
 168 26 168 26 149 7 c 128,-1,16
 130 -12 130 -12 103 -12 c 0,17,6
 75 -12 75 -12 56.5 7.5 c 128,-1,7
EndSplineSet
EndChar
StartChar: quotedbl
Encoding: 34 34 293
Width: 300
GlyphClass: 1
Flags: W
LayerCount: 2
Fore
SplineSet
269 668 m 1,0,-1
 349 668 l 1,1,-1
 288 448 l 1,2,-1
 236 448 l 1,3,-1
 269 668 l 1,0,-1
129 668 m 1,4,-1
 209 668 l 1,5,-1
 148 448 l 1,6,-1
 96 448 l 1,7,-1
 129 668 l 1,4,-1
EndSplineSet
EndChar
StartChar: dollar
Encoding: 36 36 313
Width: 591
GlyphClass: 1
Flags: W
LayerCount: 2
Fore
SplineSet
93 45.5 m 128,-1,1
 42 85 42 85 27 150 c 1,2,-1
 110 178 l 1,3,4
 119 137 119 137 151.5 109.5 c 128,-1,5
 184 82 184 82 228 71 c 1,6,-1
 280 315 l 1,7,-1
 249 326 l 2,8,9
 179 351 179 351 142 388.5 c 128,-1,10
 105 426 105 426 105 481 c 0,11,12
 105 540 105 540 140 585.5 c 128,-1,13
 175 631 175 631 233 655.5 c 128,-1,14
 291 680 291 680 357 680 c 1,15,-1
 374 758 l 1,16,-1
 424 758 l 1,17,-1
 407 677 l 1,18,19
 469 667 469 667 515 636 c 128,-1,20
 561 605 561 605 582 551 c 1,21,-1
 499 521 l 1,22,23
 486 553 486 553 456.5 573 c 128,-1,24
 427 593 427 593 390 600 c 1,25,-1
 344 383 l 1,26,-1
 372 373 l 2,27,28
 457 342 457 342 499.5 303 c 128,-1,29
 542 264 542 264 542 202 c 0,30,31
 542 144 542 144 509 95 c 128,-1,32
 476 46 476 46 412.5 17 c 128,-1,33
 349 -12 349 -12 261 -12 c 1,34,-1
 244 -90 l 1,35,-1
 194 -90 l 1,36,-1
 212 -6 l 1,37,0
 144 6 144 6 93 45.5 c 128,-1,1
369.5 80 m 128,-1,39
 409 96 409 96 430.5 123.5 c 128,-1,40
 452 151 452 151 452 185 c 0,41,42
 452 223 452 223 426 247.5 c 128,-1,43
 400 272 400 272 333 295 c 2,44,-1
 326 297 l 1,45,-1
 277 64 l 1,46,38
 330 64 330 64 369.5 80 c 128,-1,39
238 573 m 128,-1,48
 195 544 195 544 195 498 c 0,49,50
 195 464 195 464 217.5 442 c 128,-1,51
 240 420 240 420 285 404 c 2,52,-1
 298 399 l 1,53,-1
 341 604 l 1,54,47
 281 602 281 602 238 573 c 128,-1,48
EndSplineSet
EndChar
StartChar: percent
Encoding: 37 37 341
Width: 964
GlyphClass: 1
Flags: W
LayerCount: 2
Fore
SplineSet
758 668 m 1,0,-1
 850 668 l 1,1,-1
 241 0 l 1,2,-1
 149 0 l 1,3,-1
 758 668 l 1,0,-1
183.5 340.5 m 128,-1,5
 142 365 142 365 117.5 406.5 c 128,-1,6
 93 448 93 448 93 498 c 256,7,8
 93 548 93 548 117.5 589.5 c 128,-1,9
 142 631 142 631 183.5 655.5 c 128,-1,10
 225 680 225 680 275 680 c 256,11,12
 325 680 325 680 366.5 655.5 c 128,-1,13
 408 631 408 631 432.5 589.5 c 128,-1,14
 457 548 457 548 457 498 c 256,15,16
 457 448 457 448 432.5 406.5 c 128,-1,17
 408 365 408 365 366.5 340.5 c 128,-1,18
 325 316 325 316 275 316 c 256,19,4
 225 316 225 316 183.5 340.5 c 128,-1,5
351.5 421.5 m 128,-1,21
 383 453 383 453 383 498 c 256,22,23
 383 543 383 543 351.5 574.5 c 128,-1,24
 320 606 320 606 275 606 c 256,25,26
 230 606 230 606 198.5 574.5 c 128,-1,27
 167 543 167 543 167 498 c 256,28,29
 167 453 167 453 198.5 421.5 c 128,-1,30
 230 390 230 390 275 390 c 256,31,20
 320 390 320 390 351.5 421.5 c 128,-1,21
633.5 12.5 m 128,-1,33
 592 37 592 37 567.5 78.5 c 128,-1,34
 543 120 543 120 543 170 c 256,35,36
 543 220 543 220 567.5 261.5 c 128,-1,37
 592 303 592 303 633.5 327.5 c 128,-1,38
 675 352 675 352 725 352 c 256,39,40
 775 352 775 352 816.5 327.5 c 128,-1,41
 858 303 858 303 882.5 261.5 c 128,-1,42
 907 220 907 220 907 170 c 256,43,44
 907 120 907 120 882.5 78.5 c 128,-1,45
 858 37 858 37 816.5 12.5 c 128,-1,46
 775 -12 775 -12 725 -12 c 256,47,32
 675 -12 675 -12 633.5 12.5 c 128,-1,33
801.5 93.5 m 128,-1,49
 833 125 833 125 833 170 c 256,50,51
 833 215 833 215 801.5 246.5 c 128,-1,52
 770 278 770 278 725 278 c 256,53,54
 680 278 680 278 648.5 246.5 c 128,-1,55
 617 215 617 215 617 170 c 256,56,57
 617 125 617 125 648.5 93.5 c 128,-1,58
 680 62 680 62 725 62 c 256,59,48
 770 62 770 62 801.5 93.5 c 128,-1,49
EndSplineSet
EndChar
StartChar: ampersand
Encoding: 38 38 298
Width: 731
GlyphClass: 1
Flags: W
LayerCount: 2
Fore
SplineSet
110 34.5 m 128,-1,1
 47 81 47 81 47 166 c 0,2,3
 47 255 47 255 109.5 314.5 c 128,-1,4
 172 374 172 374 274 395 c 1,5,6
 224 464 224 464 224 520 c 0,7,8
 224 567 224 567 248.5 604 c 128,-1,9
 273 641 273 641 315.5 661.5 c 128,-1,10
 358 682 358 682 409 682 c 0,11,12
 479 682 479 682 528 646.5 c 128,-1,13
 577 611 577 611 577 544 c 0,14,15
 577 478 577 478 529 431 c 128,-1,16
 481 384 481 384 402 361 c 1,17,-1
 504 207 l 1,18,19
 549 275 549 275 568 350 c 1,20,-1
 656 350 l 1,21,22
 621 224 621 224 549 139 c 1,23,-1
 642 0 l 1,24,-1
 538 0 l 1,25,-1
 490 72 l 1,26,27
 396 -12 396 -12 275 -12 c 0,28,0
 173 -12 173 -12 110 34.5 c 128,-1,1
368.5 78.5 m 128,-1,30
 411 95 411 95 450 131 c 1,31,-1
 314 338 l 1,32,33
 233 321 233 321 185.5 279 c 128,-1,34
 138 237 138 237 138 174 c 0,35,36
 138 121 138 121 178 91.5 c 128,-1,37
 218 62 218 62 276 62 c 0,38,29
 326 62 326 62 368.5 78.5 c 128,-1,30
455 461.5 m 128,-1,40
 493 492 493 492 493 536 c 0,41,42
 493 570 493 570 467 589.5 c 128,-1,43
 441 609 441 609 405 609 c 0,44,45
 364 609 364 609 337 587.5 c 128,-1,46
 310 566 310 566 310 531 c 0,47,48
 310 489 310 489 360 417 c 1,49,39
 417 431 417 431 455 461.5 c 128,-1,40
EndSplineSet
EndChar
StartChar: quotesingle
Encoding: 39 39 294
Width: 160
GlyphClass: 1
Flags: W
LayerCount: 2
Fore
SplineSet
129 668 m 1,0,-1
 209 668 l 1,1,-1
 148 448 l 1,2,-1
 96 448 l 1,3,-1
 129 668 l 1,0,-1
EndSplineSet
EndChar
StartChar: parenleft
Encoding: 40 40 277
Width: 296
GlyphClass: 1
Flags: W
LayerCount: 2
Fore
SplineSet
53 123 m 0,1,2
 53 279 53 279 111.5 427.5 c 128,-1,3
 170 576 170 576 285 708 c 1,4,-1
 376 708 l 1,5,6
 257 580 257 580 194.5 428 c 128,-1,7
 132 276 132 276 132 121 c 0,8,9
 132 -29 132 -29 184 -162 c 1,10,-1
 103 -162 l 1,11,0
 53 -30 53 -30 53 123 c 0,1,2
EndSplineSet
EndChar
StartChar: parenright
Encoding: 41 41 278
Width: 296
GlyphClass: 1
Flags: W
LayerCount: 2
Fore
SplineSet
112.5 119 m 128,-1,1
 175 271 175 271 175 426 c 0,2,3
 175 576 175 576 123 709 c 1,4,-1
 204 709 l 1,5,6
 254 577 254 577 254 424 c 0,7,8
 254 268 254 268 195.5 119.5 c 128,-1,9
 137 -29 137 -29 22 -161 c 1,10,-1
 -69 -161 l 1,11,0
 50 -33 50 -33 112.5 119 c 128,-1,1
EndSplineSet
EndChar
StartChar: asterisk
Encoding: 42 42 269
Width: 485
GlyphClass: 1
Flags: W
LayerCount: 2
Fore
SplineSet
149 394 m 1,0,-1
 246 489 l 1,1,-1
 132 540 l 1,2,-1
 163 594 l 1,3,-1
 275 541 l 1,4,-1
 302 668 l 1,5,-1
 360 668 l 1,6,-1
 331 536 l 1,7,-1
 461 562 l 1,8,-1
 468 505 l 1,9,-1
 336 480 l 1,10,-1
 390 367 l 1,11,-1
 340 340 l 1,12,-1
 285 450 l 1,13,-1
 189 353 l 1,14,-1
 149 394 l 1,0,-1
EndSplineSet
EndChar
StartChar: plus
Encoding: 43 43 320
Width: 606
GlyphClass: 1
Flags: W
LayerCount: 2
Fore
SplineSet
254 208 m 1,0,-1
 46 208 l 1,1,-1
 64 288 l 1,2,-1
 272 288 l 1,3,-1
 316 496 l 1,4,-1
 396 496 l 1,5,-1
 352 288 l 1,6,-1
 560 288 l 1,7,-1
 542 208 l 1,8,-1
 334 208 l 1,9,-1
 290 0 l 1,10,-1
 210 0 l 1,11,-1
 254 208 l 1,0,-1
EndSplineSet
EndChar
StartChar: comma
Encoding: 44 44 259
Width: 206
GlyphClass: 1
Flags: W
LayerCount: 2
Fore
SplineSet
8 14 m 128,-1,1
 -3 30 -3 30 -3 52 c 0,2,3
 -3 80 -3 80 16 99 c 128,-1,4
 35 118 35 118 60 118 c 0,5,6
 88 118 88 118 107 99.5 c 128,-1,7
 126 81 126 81 126 55 c 0,8,9
 126 32 126 32 111 9 c 2,10,-1
 24 -132 l 1,11,-1
 -31 -132 l 1,12,-1
 39 -10 l 1,13,0
 19 -2 19 -2 8 14 c 128,-1,1
EndSplineSet
EndChar
StartChar: hyphen
Encoding: 45 45 273
Width: 361
GlyphClass: 1
Flags: W
LayerCount: 2
Fore
SplineSet
44 289 m 1,0,-1
 334 289 l 1,1,-1
 317 208 l 1,2,-1
 27 208 l 1,3,-1
 44 289 l 1,0,-1
EndSplineSet
EndChar
StartChar: period
Encoding: 46 46 258
Width: 207
GlyphClass: 1
Flags: W
LayerCount: 2
Fore
SplineSet
16 7 m 128,-1,1
 -3 26 -3 26 -3 53 c 256,2,3
 -3 80 -3 80 16 99 c 128,-1,4
 35 118 35 118 62 118 c 256,5,6
 89 118 89 118 108 99 c 128,-1,7
 127 80 127 80 127 53 c 256,8,9
 127 26 127 26 108 7 c 128,-1,10
 89 -12 89 -12 62 -12 c 256,11,0
 35 -12 35 -12 16 7 c 128,-1,1
EndSplineSet
EndChar
StartChar: zero
Encoding: 48 48 229
Width: 640
GlyphClass: 1
Flags: W
LayerCount: 2
Fore
SplineSet
124 56.5 m 128,-1,1
 67 125 67 125 67 241 c 0,2,3
 67 338 67 338 101 440 c 128,-1,4
 135 542 135 542 206.5 612 c 128,-1,5
 278 682 278 682 385 682 c 0,6,7
 498 682 498 682 554.5 613.5 c 128,-1,8
 611 545 611 545 611 430 c 0,9,10
 611 333 611 333 577 230.5 c 128,-1,11
 543 128 543 128 471.5 58 c 128,-1,12
 400 -12 400 -12 294 -12 c 0,13,0
 181 -12 181 -12 124 56.5 c 128,-1,1
411 107 m 1,15,-1
 225 513 l 1,16,17
 188 456 188 456 169 380 c 128,-1,18
 150 304 150 304 150 237 c 0,19,20
 150 155 150 155 185 108.5 c 128,-1,21
 220 62 220 62 296 62 c 0,22,14
 361 62 361 62 411 107 c 1,15,-1
509.5 291.5 m 128,-1,24
 528 367 528 367 528 432 c 0,25,26
 528 514 528 514 493.5 561 c 128,-1,27
 459 608 459 608 383 608 c 0,28,29
 320 608 320 608 269 564 c 1,30,-1
 455 159 l 1,31,23
 491 216 491 216 509.5 291.5 c 128,-1,24
EndSplineSet
Substitution2: "'tnum' Tabular Numbers in Latin lookup 10 subtable" zero.tf
AlternateSubs2: "'aalt' Access All Alternates in Latin lookup 0 subtable" zero.tf
EndChar
StartChar: one
Encoding: 49 49 230
Width: 407
GlyphClass: 5
Flags: W
LayerCount: 2
Fore
SplineSet
268 504 m 1,0,-1
 90 504 l 1,1,-1
 104 571 l 1,2,3
 183 570 183 570 220 576 c 128,-1,4
 257 582 257 582 280.5 602 c 128,-1,5
 304 622 304 622 331 668 c 1,6,-1
 387 668 l 1,7,-1
 245 0 l 1,8,-1
 161 0 l 1,9,-1
 268 504 l 1,0,-1
EndSplineSet
Substitution2: "'tnum' Tabular Numbers in Latin lookup 10 subtable" one.tf
Substitution2: "'sups' Superscript in Latin lookup 6 subtable" uni00B9
AlternateSubs2: "'aalt' Access All Alternates in Latin lookup 0 subtable" uni00B9 one.tf
EndChar
StartChar: two
Encoding: 50 50 231
Width: 548
GlyphClass: 5
Flags: W
LayerCount: 2
Fore
SplineSet
26 98 m 2,0,1
 156 178 156 178 240.5 237.5 c 128,-1,2
 325 297 325 297 387.5 367.5 c 128,-1,3
 450 438 450 438 450 506 c 0,4,5
 450 553 450 553 417.5 581.5 c 128,-1,6
 385 610 385 610 331 610 c 0,7,8
 279 610 279 610 237.5 583.5 c 128,-1,9
 196 557 196 557 176 497 c 1,10,-1
 94 527 l 1,11,12
 125 603 125 603 188.5 641.5 c 128,-1,13
 252 680 252 680 334 680 c 0,14,15
 424 680 424 680 482.5 635.5 c 128,-1,16
 541 591 541 591 541 515 c 0,17,18
 541 425 541 425 470.5 342 c 128,-1,19
 400 259 400 259 316 202 c 128,-1,20
 232 145 232 145 120 80 c 1,21,-1
 474 80 l 1,22,-1
 456 0 l 1,23,-1
 -24 0 l 1,24,-1
 -8 77 l 1,25,-1
 26 98 l 2,0,1
EndSplineSet
Substitution2: "'tnum' Tabular Numbers in Latin lookup 10 subtable" two.tf
Substitution2: "'sups' Superscript in Latin lookup 6 subtable" uni00B2
AlternateSubs2: "'aalt' Access All Alternates in Latin lookup 0 subtable" uni00B2 two.tf
EndChar
StartChar: three
Encoding: 51 51 232
Width: 576
GlyphClass: 5
Flags: W
LayerCount: 2
Fore
SplineSet
99 31 m 128,-1,1
 38 74 38 74 29 154 c 1,2,-1
 113 174 l 1,3,4
 119 115 119 115 158.5 86.5 c 128,-1,5
 198 58 198 58 257 58 c 0,6,7
 324 58 324 58 370 96 c 128,-1,8
 416 134 416 134 416 198 c 0,9,10
 416 255 416 255 372.5 284.5 c 128,-1,11
 329 314 329 314 262 314 c 2,12,-1
 244 314 l 1,13,-1
 260 390 l 1,14,-1
 318 390 l 2,15,16
 385 390 385 390 424.5 425.5 c 128,-1,17
 464 461 464 461 464 513 c 0,18,19
 464 558 464 558 428.5 584 c 128,-1,20
 393 610 393 610 340 610 c 0,21,22
 286 610 286 610 244 581.5 c 128,-1,23
 202 553 202 553 185 500 c 1,24,-1
 104 527 l 1,25,26
 138 603 138 603 201.5 641.5 c 128,-1,27
 265 680 265 680 344 680 c 0,28,29
 400 680 400 680 447 661.5 c 128,-1,30
 494 643 494 643 521.5 608 c 128,-1,31
 549 573 549 573 549 524 c 0,32,33
 549 459 549 459 509 407.5 c 128,-1,34
 469 356 469 356 397 344 c 1,35,36
 447 329 447 329 475 289.5 c 128,-1,37
 503 250 503 250 503 200 c 0,38,39
 503 138 503 138 469.5 89.5 c 128,-1,40
 436 41 436 41 378.5 14.5 c 128,-1,41
 321 -12 321 -12 252 -12 c 0,42,0
 160 -12 160 -12 99 31 c 128,-1,1
EndSplineSet
Substitution2: "'tnum' Tabular Numbers in Latin lookup 10 subtable" three.tf
Substitution2: "'sups' Superscript in Latin lookup 6 subtable" uni00B3
AlternateSubs2: "'aalt' Access All Alternates in Latin lookup 0 subtable" uni00B3 three.tf
EndChar
StartChar: four
Encoding: 52 52 233
Width: 614
GlyphClass: 5
Flags: W
LayerCount: 2
Fore
SplineSet
351 165 m 1,0,-1
 19 165 l 1,1,-1
 36 244 l 1,2,-1
 448 668 l 1,3,-1
 542 668 l 1,4,-1
 452 244 l 1,5,-1
 574 244 l 1,6,-1
 557 165 l 1,7,-1
 435 165 l 1,8,-1
 400 0 l 1,9,-1
 316 0 l 1,10,-1
 351 165 l 1,0,-1
368 244 m 1,11,-1
 434 553 l 1,12,-1
 133 244 l 1,13,-1
 368 244 l 1,11,-1
EndSplineSet
Substitution2: "'tnum' Tabular Numbers in Latin lookup 10 subtable" four.tf
AlternateSubs2: "'aalt' Access All Alternates in Latin lookup 0 subtable" four.tf
EndChar
StartChar: five
Encoding: 53 53 234
Width: 583
GlyphClass: 1
Flags: W
LayerCount: 2
Fore
SplineSet
117.5 28 m 128,-1,1
 63 68 63 68 47 154 c 1,2,-1
 130 177 l 1,3,4
 135 121 135 121 169 89.5 c 128,-1,5
 203 58 203 58 263 58 c 0,6,7
 314 58 314 58 353.5 85 c 128,-1,8
 393 112 393 112 414 155.5 c 128,-1,9
 435 199 435 199 435 247 c 0,10,11
 435 288 435 288 416.5 318 c 128,-1,12
 398 348 398 348 369 363 c 128,-1,13
 340 378 340 378 308 378 c 0,14,15
 265 378 265 378 228.5 357 c 128,-1,16
 192 336 192 336 171 304 c 1,17,-1
 94 328 l 1,18,-1
 207 668 l 1,19,-1
 590 668 l 1,20,-1
 573 588 l 1,21,-1
 258 588 l 1,22,-1
 197 405 l 1,23,24
 228 429 228 429 264.5 439.5 c 128,-1,25
 301 450 301 450 335 450 c 0,26,27
 387 450 387 450 430 426 c 128,-1,28
 473 402 473 402 498 357 c 128,-1,29
 523 312 523 312 523 254 c 0,30,31
 523 182 523 182 490 121 c 128,-1,32
 457 60 457 60 397.5 24 c 128,-1,33
 338 -12 338 -12 262 -12 c 0,34,0
 172 -12 172 -12 117.5 28 c 128,-1,1
EndSplineSet
Substitution2: "'tnum' Tabular Numbers in Latin lookup 10 subtable" five.tf
AlternateSubs2: "'aalt' Access All Alternates in Latin lookup 0 subtable" five.tf
EndChar
StartChar: six
Encoding: 54 54 235
Width: 598
GlyphClass: 1
Flags: W
LayerCount: 2
Fore
SplineSet
122 45.5 m 128,-1,1
 66 103 66 103 66 211 c 0,2,3
 66 303 66 303 100.5 413 c 128,-1,4
 135 523 135 523 207.5 601.5 c 128,-1,5
 280 680 280 680 386 680 c 0,6,7
 452 680 452 680 501 651.5 c 128,-1,8
 550 623 550 623 570 569 c 1,9,-1
 487 542 l 1,10,11
 474 572 474 572 445 589.5 c 128,-1,12
 416 607 416 607 380 607 c 0,13,14
 308 607 308 607 255 544 c 128,-1,15
 202 481 202 481 176 371 c 1,16,17
 205 405 205 405 246 425 c 128,-1,18
 287 445 287 445 337 445 c 0,19,20
 395 445 395 445 440.5 421.5 c 128,-1,21
 486 398 486 398 512 354 c 128,-1,22
 538 310 538 310 538 252 c 0,23,24
 538 184 538 184 505 123 c 128,-1,25
 472 62 472 62 413 25 c 128,-1,26
 354 -12 354 -12 280 -12 c 0,27,0
 178 -12 178 -12 122 45.5 c 128,-1,1
369.5 87 m 128,-1,29
 407 112 407 112 427 152.5 c 128,-1,30
 447 193 447 193 447 240 c 0,31,32
 447 301 447 301 410 335 c 128,-1,33
 373 369 373 369 315 369 c 0,34,35
 268 369 268 369 231 345 c 128,-1,36
 194 321 194 321 173.5 280 c 128,-1,37
 153 239 153 239 153 190 c 0,38,39
 153 128 153 128 190.5 95 c 128,-1,40
 228 62 228 62 284 62 c 0,41,28
 332 62 332 62 369.5 87 c 128,-1,29
EndSplineSet
Substitution2: "'tnum' Tabular Numbers in Latin lookup 10 subtable" six.tf
AlternateSubs2: "'aalt' Access All Alternates in Latin lookup 0 subtable" six.tf
EndChar
StartChar: eight
Encoding: 56 56 237
Width: 615
GlyphClass: 1
Flags: W
LayerCount: 2
Fore
SplineSet
171 9 m 128,-1,1
 116 30 116 30 82 72 c 128,-1,2
 48 114 48 114 48 173 c 0,3,4
 48 245 48 245 91.5 300 c 128,-1,5
 135 355 135 355 212 380 c 1,6,7
 178 424 178 424 178 481 c 0,8,9
 178 533 178 533 206.5 579.5 c 128,-1,10
 235 626 235 626 282 653.5 c 128,-1,11
 329 681 329 681 382 681 c 0,12,13
 427 681 427 681 464 660 c 128,-1,14
 501 639 501 639 522.5 601.5 c 128,-1,15
 544 564 544 564 544 518 c 256,16,17
 544 472 544 472 520.5 428 c 128,-1,18
 497 384 497 384 454 354 c 1,19,20
 497 330 497 330 520 292 c 128,-1,21
 543 254 543 254 543 206 c 0,22,23
 543 141 543 141 508.5 91 c 128,-1,24
 474 41 474 41 416.5 14.5 c 128,-1,25
 359 -12 359 -12 290 -12 c 0,26,0
 226 -12 226 -12 171 9 c 128,-1,1
406.5 100.5 m 128,-1,28
 452 139 452 139 452 203 c 0,29,30
 452 260 452 260 407 289 c 128,-1,31
 362 318 362 318 300 318 c 0,32,33
 231 318 231 318 185 280 c 128,-1,34
 139 242 139 242 139 178 c 0,35,36
 139 120 139 120 184 91 c 128,-1,37
 229 62 229 62 292 62 c 0,38,27
 361 62 361 62 406.5 100.5 c 128,-1,28
406.5 409 m 128,-1,40
 434 424 434 424 450.5 450.5 c 128,-1,41
 467 477 467 477 467 510 c 0,42,43
 467 550 467 550 441.5 577 c 128,-1,44
 416 604 416 604 374 604 c 0,45,46
 343 604 343 604 316 589 c 128,-1,47
 289 574 289 574 272 547.5 c 128,-1,48
 255 521 255 521 255 488 c 0,49,50
 255 446 255 446 282 420 c 128,-1,51
 309 394 309 394 349 394 c 0,52,39
 379 394 379 394 406.5 409 c 128,-1,40
EndSplineSet
Substitution2: "'tnum' Tabular Numbers in Latin lookup 10 subtable" eight.tf
AlternateSubs2: "'aalt' Access All Alternates in Latin lookup 0 subtable" eight.tf
EndChar
StartChar: nine
Encoding: 57 57 238
Width: 595
GlyphClass: 1
Flags: W
LayerCount: 2
Fore
SplineSet
305 207 m 0,1,2
 244 207 244 207 196.5 234.5 c 128,-1,3
 149 262 149 262 122 309.5 c 128,-1,4
 95 357 95 357 95 414 c 0,5,6
 95 482 95 482 131 543 c 128,-1,7
 167 604 167 604 228.5 641.5 c 128,-1,8
 290 679 290 679 363 679 c 0,9,10
 425 679 425 679 474 651 c 128,-1,11
 523 623 523 623 550 574.5 c 128,-1,12
 577 526 577 526 577 468 c 0,13,14
 577 400 577 400 540 337.5 c 128,-1,15
 503 275 503 275 438 201 c 2,16,-1
 262 0 l 1,17,-1
 152 0 l 1,18,-1
 345 210 l 1,19,0
 324 207 324 207 305 207 c 0,1,2
404 311 m 128,-1,21
 444 334 444 334 468 373 c 128,-1,22
 492 412 492 412 492 457 c 0,23,24
 492 497 492 497 473 528.5 c 128,-1,25
 454 560 454 560 422.5 577 c 128,-1,26
 391 594 391 594 353 594 c 0,27,28
 308 594 308 594 268 571 c 128,-1,29
 228 548 228 548 204 509 c 128,-1,30
 180 470 180 470 180 425 c 0,31,32
 180 385 180 385 199 353.5 c 128,-1,33
 218 322 218 322 249.5 305 c 128,-1,34
 281 288 281 288 319 288 c 0,35,20
 364 288 364 288 404 311 c 128,-1,21
EndSplineSet
Substitution2: "'tnum' Tabular Numbers in Latin lookup 10 subtable" nine.tf
AlternateSubs2: "'aalt' Access All Alternates in Latin lookup 0 subtable" nine.tf
EndChar
StartChar: less
Encoding: 60 60 327
Width: 553
GlyphClass: 1
Flags: W
LayerCount: 2
Fore
SplineSet
33 215 m 1,0,-1
 47 282 l 1,1,-1
 566 495 l 1,2,-1
 545 399 l 1,3,-1
 147 242 l 1,4,-1
 478 86 l 1,5,-1
 460 1 l 1,6,-1
 33 215 l 1,0,-1
EndSplineSet
EndChar
StartChar: equal
Encoding: 61 61 324
Width: 628
GlyphClass: 1
Flags: W
LayerCount: 2
Fore
SplineSet
96 386 m 1,0,-1
 591 386 l 1,1,-1
 574 307 l 1,2,-1
 79 307 l 1,3,-1
 96 386 l 1,0,-1
57 200 m 1,4,-1
 552 200 l 1,5,-1
 535 121 l 1,6,-1
 40 121 l 1,7,-1
 57 200 l 1,4,-1
EndSplineSet
EndChar
StartChar: greater
Encoding: 62 62 326
Width: 553
GlyphClass: 1
Flags: W
LayerCount: 2
Fore
SplineSet
8 97 m 1,0,-1
 406 252 l 1,1,-1
 74 409 l 1,2,-1
 93 495 l 1,3,-1
 520 281 l 1,4,-1
 506 214 l 1,5,-1
 -13 1 l 1,6,-1
 8 97 l 1,0,-1
EndSplineSet
EndChar
StartChar: question
Encoding: 63 63 265
Width: 480
GlyphClass: 1
Flags: W
LayerCount: 2
Fore
SplineSet
207.5 311 m 128,-1,1
 237 347 237 347 300 378 c 0,2,3
 362 409 362 409 395 442.5 c 128,-1,4
 428 476 428 476 428 520 c 0,5,6
 428 561 428 561 395 586 c 128,-1,7
 362 611 362 611 311 611 c 0,8,9
 259 611 259 611 219 581 c 128,-1,10
 179 551 179 551 164 501 c 1,11,-1
 83 526 l 1,12,13
 107 600 107 600 171 640.5 c 128,-1,14
 235 681 235 681 315 681 c 0,15,16
 368 681 368 681 414 662.5 c 128,-1,17
 460 644 460 644 487.5 609 c 128,-1,18
 515 574 515 574 515 527 c 0,19,20
 515 457 515 457 474 411.5 c 128,-1,21
 433 366 433 366 347 318 c 0,22,23
 295 290 295 290 277 270.5 c 128,-1,24
 259 251 259 251 252 219 c 2,25,-1
 246 190 l 1,26,-1
 159 190 l 1,27,-1
 165 217 l 2,28,0
 178 275 178 275 207.5 311 c 128,-1,1
127 7 m 128,-1,30
 108 26 108 26 108 53 c 256,31,32
 108 80 108 80 127 99 c 128,-1,33
 146 118 146 118 173 118 c 256,34,35
 200 118 200 118 219 99 c 128,-1,36
 238 80 238 80 238 53 c 256,37,38
 238 26 238 26 219 7 c 128,-1,39
 200 -12 200 -12 173 -12 c 256,40,29
 146 -12 146 -12 127 7 c 128,-1,30
EndSplineSet
EndChar
StartChar: at
Encoding: 64 64 297
Width: 778
GlyphClass: 1
Flags: W
LayerCount: 2
Fore
SplineSet
195.5 -56.5 m 128,-1,1
 124 -17 124 -17 83 53.5 c 128,-1,2
 42 124 42 124 42 213 c 0,3,4
 42 318 42 318 93.5 408 c 128,-1,5
 145 498 145 498 234.5 551 c 128,-1,6
 324 604 324 604 431 604 c 0,7,8
 520 604 520 604 592 567 c 128,-1,9
 664 530 664 530 705 465 c 128,-1,10
 746 400 746 400 746 318 c 0,11,12
 746 266 746 266 725 209.5 c 128,-1,13
 704 153 704 153 661.5 114.5 c 128,-1,14
 619 76 619 76 559 76 c 0,15,16
 523 76 523 76 496 93.5 c 128,-1,17
 469 111 469 111 460 138 c 1,18,19
 431 104 431 104 400.5 89.5 c 128,-1,20
 370 75 370 75 335 75 c 0,21,22
 277 75 277 75 242.5 115 c 128,-1,23
 208 155 208 155 208 215 c 0,24,25
 208 271 208 271 233.5 323 c 128,-1,26
 259 375 259 375 307.5 407 c 128,-1,27
 356 439 356 439 421 439 c 0,28,29
 453 439 453 439 489.5 429.5 c 128,-1,30
 526 420 526 420 559 405 c 1,31,-1
 518 212 l 2,32,33
 515 200 515 200 515 189 c 0,34,35
 515 141 515 141 570 141 c 0,36,37
 607 141 607 141 632.5 170 c 128,-1,38
 658 199 658 199 671 240 c 128,-1,39
 684 281 684 281 684 316 c 0,40,41
 684 379 684 379 650.5 430.5 c 128,-1,42
 617 482 617 482 558.5 512 c 128,-1,43
 500 542 500 542 428 542 c 0,44,45
 337 542 337 542 263.5 497.5 c 128,-1,46
 190 453 190 453 148 378 c 128,-1,47
 106 303 106 303 106 216 c 0,48,49
 106 141 106 141 140 84.5 c 128,-1,50
 174 28 174 28 232.5 -3 c 128,-1,51
 291 -34 291 -34 362 -34 c 0,52,53
 421 -34 421 -34 476 -11 c 1,54,-1
 461 -80 l 1,55,56
 407 -96 407 -96 357 -96 c 0,57,0
 267 -96 267 -96 195.5 -56.5 c 128,-1,1
414.5 167 m 128,-1,59
 443 193 443 193 452 231 c 2,60,-1
 479 361 l 1,61,62
 449 373 449 373 417 373 c 0,63,64
 376 373 376 373 345.5 352 c 128,-1,65
 315 331 315 331 298.5 297 c 128,-1,66
 282 263 282 263 282 225 c 0,67,68
 282 188 282 188 301 164.5 c 128,-1,69
 320 141 320 141 352 141 c 0,70,58
 386 141 386 141 414.5 167 c 128,-1,59
EndSplineSet
EndChar
StartChar: A
Encoding: 65 65 2
Width: 626
GlyphClass: 2
Flags: W
AnchorPoint: "Anchor-2" 565 10 basechar 0
AnchorPoint: "Anchor-1" 403 668 basechar 0
AnchorPoint: "Anchor-0" 261 0 basechar 0
LayerCount: 2
Fore
SplineSet
352 668 m 1,0,-1
 454 668 l 1,1,-1
 563 0 l 1,2,-1
 466 0 l 1,3,-1
 445 146 l 1,4,-1
 143 146 l 1,5,-1
 60 0 l 1,6,-1
 -43 0 l 1,7,-1
 352 668 l 1,0,-1
434 227 m 1,8,-1
 385 571 l 1,9,-1
 189 227 l 1,10,-1
 434 227 l 1,8,-1
EndSplineSet
Substitution2: "Single Substitution lookup 15 subtable" ordfeminine
AlternateSubs2: "'aalt' Access All Alternates in Latin lookup 0 subtable" ordfeminine
EndChar
StartChar: B
Encoding: 66 66 13
Width: 613
GlyphClass: 2
Flags: W
AnchorPoint: "Anchor-1" 402 668 basechar 0
AnchorPoint: "Anchor-0" 260 0 basechar 0
LayerCount: 2
Fore
SplineSet
167 668 m 1,0,-1
 390 668 l 2,1,2
 494 668 494 668 548.5 625.5 c 128,-1,3
 603 583 603 583 603 513 c 0,4,5
 603 454 603 454 571.5 407 c 128,-1,6
 540 360 540 360 482 340 c 1,7,8
 523 319 523 319 545 284.5 c 128,-1,9
 567 250 567 250 567 207 c 0,10,11
 567 149 567 149 540 102 c 128,-1,12
 513 55 513 55 462 27.5 c 128,-1,13
 411 0 411 0 341 0 c 2,14,-1
 25 0 l 1,15,-1
 167 668 l 1,0,-1
435 115.5 m 128,-1,17
 472 152 472 152 472 209 c 0,18,19
 472 253 472 253 438 280.5 c 128,-1,20
 404 308 404 308 342 308 c 2,21,-1
 184 308 l 1,22,-1
 136 79 l 1,23,-1
 331 79 l 2,24,16
 398 79 398 79 435 115.5 c 128,-1,17
478.5 415 m 128,-1,26
 509 448 509 448 509 499 c 0,27,28
 509 539 509 539 479.5 564 c 128,-1,29
 450 589 450 589 390 589 c 2,30,-1
 244 589 l 1,31,-1
 200 382 l 1,32,-1
 390 382 l 2,33,25
 448 382 448 382 478.5 415 c 128,-1,26
EndSplineSet
EndChar
StartChar: C
Encoding: 67 67 14
Width: 645
GlyphClass: 2
Flags: W
AnchorPoint: "Anchor-1" 439 668 basechar 0
AnchorPoint: "Anchor-0" 335 0 basechar 0
LayerCount: 2
Fore
SplineSet
186 23.5 m 128,-1,1
 124 59 124 59 91.5 122.5 c 128,-1,2
 59 186 59 186 59 269 c 0,3,4
 59 371 59 371 102 465.5 c 128,-1,5
 145 560 145 560 226.5 620 c 128,-1,6
 308 680 308 680 417 680 c 0,7,8
 503 680 503 680 567 640.5 c 128,-1,9
 631 601 631 601 657 525 c 1,10,-1
 575 497 l 1,11,12
 557 546 557 546 514 573.5 c 128,-1,13
 471 601 471 601 414 601 c 0,14,15
 330 601 330 601 271.5 550 c 128,-1,16
 213 499 213 499 184 423.5 c 128,-1,17
 155 348 155 348 155 275 c 0,18,19
 155 182 155 182 203 124.5 c 128,-1,20
 251 67 251 67 343 67 c 0,21,22
 398 67 398 67 441.5 91 c 128,-1,23
 485 115 485 115 520 167 c 1,24,-1
 602 134 l 1,25,26
 509 -12 509 -12 335 -12 c 0,27,0
 248 -12 248 -12 186 23.5 c 128,-1,1
EndSplineSet
EndChar
StartChar: D
Encoding: 68 68 19
Width: 669
GlyphClass: 2
Flags: W
AnchorPoint: "Anchor-1" 429 668 basechar 0
AnchorPoint: "Anchor-0" 287 0 basechar 0
LayerCount: 2
Fore
SplineSet
167 668 m 1,0,-1
 292 668 l 2,1,2
 461 668 461 668 553 600 c 128,-1,3
 645 532 645 532 645 398 c 0,4,5
 645 300 645 300 609 209.5 c 128,-1,6
 573 119 573 119 492 59.5 c 128,-1,7
 411 0 411 0 282 0 c 2,8,-1
 25 0 l 1,9,-1
 167 668 l 1,0,-1
438 125 m 128,-1,11
 497 171 497 171 523 242 c 128,-1,12
 549 313 549 313 549 390 c 0,13,14
 549 589 549 589 290 589 c 2,15,-1
 244 589 l 1,16,-1
 136 79 l 1,17,-1
 286 79 l 2,18,10
 379 79 379 79 438 125 c 128,-1,11
EndSplineSet
EndChar
StartChar: E
Encoding: 69 69 23
Width: 569
GlyphClass: 2
Flags: W
AnchorPoint: "Anchor-2" 480 10 basechar 0
AnchorPoint: "Anchor-1" 395 668 basechar 0
AnchorPoint: "Anchor-0" 234 0 basechar 0
LayerCount: 2
Fore
SplineSet
167 668 m 1,0,-1
 616 668 l 1,1,-1
 599 587 l 1,2,-1
 244 587 l 1,3,-1
 201 384 l 1,4,-1
 466 384 l 1,5,-1
 449 303 l 1,6,-1
 183 303 l 1,7,-1
 136 81 l 1,8,-1
 495 81 l 1,9,-1
 478 0 l 1,10,-1
 25 0 l 1,11,-1
 167 668 l 1,0,-1
EndSplineSet
EndChar
StartChar: F
Encoding: 70 70 32
Width: 552
GlyphClass: 2
Flags: W
AnchorPoint: "Anchor-1" 366 668 basechar 0
AnchorPoint: "Anchor-0" 224 0 basechar 0
LayerCount: 2
Fore
SplineSet
167 668 m 1,0,-1
 601 668 l 1,1,-1
 584 587 l 1,2,-1
 244 587 l 1,3,-1
 201 384 l 1,4,-1
 537 384 l 1,5,-1
 520 303 l 1,6,-1
 183 303 l 1,7,-1
 119 0 l 1,8,-1
 25 0 l 1,9,-1
 167 668 l 1,0,-1
EndSplineSet
EndChar
StartChar: G
Encoding: 71 71 33
Width: 694
GlyphClass: 2
Flags: W
AnchorPoint: "Anchor-1" 439 668 basechar 0
AnchorPoint: "Anchor-0" 298 0 basechar 0
LayerCount: 2
Fore
SplineSet
178.5 22.5 m 128,-1,1
 120 57 120 57 89 119.5 c 128,-1,2
 58 182 58 182 58 264 c 0,3,4
 58 365 58 365 100 461 c 128,-1,5
 142 557 142 557 223.5 618.5 c 128,-1,6
 305 680 305 680 418 680 c 0,7,8
 510 680 510 680 576 638 c 128,-1,9
 642 596 642 596 666 525 c 1,10,-1
 582 496 l 1,11,12
 566 546 566 546 521 573.5 c 128,-1,13
 476 601 476 601 415 601 c 0,14,15
 329 601 329 601 270 548.5 c 128,-1,16
 211 496 211 496 182.5 419 c 128,-1,17
 154 342 154 342 154 270 c 0,18,19
 154 178 154 178 201 122.5 c 128,-1,20
 248 67 248 67 335 67 c 0,21,22
 405 67 405 67 467.5 107.5 c 128,-1,23
 530 148 530 148 550 245 c 1,24,-1
 553 264 l 1,25,-1
 361 264 l 1,26,-1
 378 345 l 1,27,-1
 664 345 l 1,28,-1
 590 0 l 1,29,-1
 525 0 l 1,30,-1
 528 81 l 1,31,32
 484 33 484 33 430 10.5 c 128,-1,33
 376 -12 376 -12 318 -12 c 0,34,0
 237 -12 237 -12 178.5 22.5 c 128,-1,1
EndSplineSet
EndChar
StartChar: H
Encoding: 72 72 37
Width: 694
GlyphClass: 2
Flags: W
AnchorPoint: "Anchor-1" 435 668 basechar 0
AnchorPoint: "Anchor-0" 293 0 basechar 0
LayerCount: 2
Fore
SplineSet
167 668 m 1,0,-1
 261 668 l 1,1,-1
 201 384 l 1,2,-1
 551 384 l 1,3,-1
 611 668 l 1,4,-1
 705 668 l 1,5,-1
 563 0 l 1,6,-1
 469 0 l 1,7,-1
 533 303 l 1,8,-1
 183 303 l 1,9,-1
 119 0 l 1,10,-1
 25 0 l 1,11,-1
 167 668 l 1,0,-1
EndSplineSet
EndChar
StartChar: J
Encoding: 74 74 48
Width: 512
GlyphClass: 2
Flags: W
AnchorPoint: "Anchor-1" 475 668 basechar 0
AnchorPoint: "Anchor-0" 199 0 basechar 0
LayerCount: 2
Fore
SplineSet
45.5 40.5 m 128,-1,1
 -5 93 -5 93 0 189 c 1,2,-1
 89 214 l 1,3,4
 86 198 86 198 86 181 c 0,5,6
 86 128 86 128 114.5 96.5 c 128,-1,7
 143 65 143 65 195 65 c 0,8,9
 250 65 250 65 283 100.5 c 128,-1,10
 316 136 316 136 329 199 c 2,11,-1
 429 668 l 1,12,-1
 523 668 l 1,13,-1
 420 189 l 2,14,15
 399 92 399 92 340.5 40 c 128,-1,16
 282 -12 282 -12 192 -12 c 0,17,0
 96 -12 96 -12 45.5 40.5 c 128,-1,1
EndSplineSet
Substitution2: "Single Substitution lookup 14 subtable" uni004A0301
AlternateSubs2: "'aalt' Access All Alternates in Latin lookup 0 subtable" uni004A0301
EndChar
StartChar: K
Encoding: 75 75 50
Width: 631
GlyphClass: 2
Flags: W
AnchorPoint: "Anchor-1" 404 668 basechar 0
AnchorPoint: "Anchor-0" 262 0 basechar 0
LayerCount: 2
Fore
SplineSet
167 668 m 1,0,-1
 261 668 l 1,1,-1
 190 335 l 1,2,-1
 553 668 l 1,3,-1
 679 668 l 1,4,-1
 360 383 l 1,5,-1
 566 0 l 1,6,-1
 458 0 l 1,7,-1
 290 319 l 1,8,-1
 162 204 l 1,9,-1
 119 0 l 1,10,-1
 25 0 l 1,11,-1
 167 668 l 1,0,-1
EndSplineSet
EndChar
StartChar: L
Encoding: 76 76 52
Width: 541
GlyphClass: 2
Flags: W
AnchorPoint: "Anchor-3" 283 459 basechar 0
AnchorPoint: "Anchor-1" 359 668 basechar 0
AnchorPoint: "Anchor-0" 217 0 basechar 0
LayerCount: 2
Fore
SplineSet
167 668 m 1,0,-1
 261 668 l 1,1,-1
 136 81 l 1,2,-1
 495 81 l 1,3,-1
 478 0 l 1,4,-1
 25 0 l 1,5,-1
 167 668 l 1,0,-1
EndSplineSet
EndChar
StartChar: M
Encoding: 77 77 56
Width: 824
GlyphClass: 2
Flags: W
AnchorPoint: "Anchor-1" 500 668 basechar 0
AnchorPoint: "Anchor-0" 358 0 basechar 0
LayerCount: 2
Fore
SplineSet
167 668 m 1,0,-1
 312 668 l 1,1,-1
 379 110 l 1,2,-1
 682 668 l 1,3,-1
 835 668 l 1,4,-1
 693 0 l 1,5,-1
 600 0 l 1,6,-1
 724 585 l 1,7,-1
 401 0 l 1,8,-1
 316 0 l 1,9,-1
 242 585 l 1,10,-1
 117 0 l 1,11,-1
 25 0 l 1,12,-1
 167 668 l 1,0,-1
EndSplineSet
EndChar
StartChar: O
Encoding: 79 79 62
Width: 714
GlyphClass: 2
Flags: W
AnchorPoint: "Anchor-3" 791 668 basechar 0
AnchorPoint: "Anchor-2" 598 10 basechar 0
AnchorPoint: "Anchor-1" 437 668 basechar 0
AnchorPoint: "Anchor-0" 306 0 basechar 0
LayerCount: 2
Fore
SplineSet
196 21 m 128,-1,1
 133 54 133 54 96.5 118.5 c 128,-1,2
 60 183 60 183 60 273 c 0,3,4
 60 376 60 376 104 470 c 128,-1,5
 148 564 148 564 228.5 622 c 128,-1,6
 309 680 309 680 413 680 c 0,7,8
 492 680 492 680 555 647 c 128,-1,9
 618 614 618 614 654.5 549.5 c 128,-1,10
 691 485 691 485 691 395 c 0,11,12
 691 292 691 292 647 198 c 128,-1,13
 603 104 603 104 522.5 46 c 128,-1,14
 442 -12 442 -12 338 -12 c 0,15,0
 259 -12 259 -12 196 21 c 128,-1,1
479 118 m 128,-1,17
 537 169 537 169 566 245 c 128,-1,18
 595 321 595 321 595 393 c 0,19,20
 595 488 595 488 545 544.5 c 128,-1,21
 495 601 495 601 412 601 c 0,22,23
 330 601 330 601 272 550 c 128,-1,24
 214 499 214 499 185 423 c 128,-1,25
 156 347 156 347 156 275 c 0,26,27
 156 180 156 180 206 123.5 c 128,-1,28
 256 67 256 67 339 67 c 0,29,16
 421 67 421 67 479 118 c 128,-1,17
EndSplineSet
Substitution2: "Single Substitution lookup 15 subtable" ordmasculine
AlternateSubs2: "'aalt' Access All Alternates in Latin lookup 0 subtable" ordmasculine
EndChar
StartChar: P
Encoding: 80 80 71
Width: 592
GlyphClass: 2
Flags: W
AnchorPoint: "Anchor-1" 393 668 basechar 0
AnchorPoint: "Anchor-0" 251 0 basechar 0
LayerCount: 2
Fore
SplineSet
167 668 m 1,0,-1
 378 668 l 2,1,2
 487 668 487 668 550.5 621 c 128,-1,3
 614 574 614 574 614 491 c 0,4,5
 614 422 614 422 583 371 c 128,-1,6
 552 320 552 320 497 293 c 128,-1,7
 442 266 442 266 371 266 c 2,8,-1
 176 266 l 1,9,-1
 119 0 l 1,10,-1
 25 0 l 1,11,-1
 167 668 l 1,0,-1
475 382 m 128,-1,13
 515 417 515 417 515 484 c 0,14,15
 515 535 515 535 477 561 c 128,-1,16
 439 587 439 587 369 587 c 2,17,-1
 244 587 l 1,18,-1
 193 347 l 1,19,-1
 362 347 l 2,20,12
 435 347 435 347 475 382 c 128,-1,13
EndSplineSet
EndChar
StartChar: Q
Encoding: 81 81 73
Width: 724
GlyphClass: 1
Flags: W
LayerCount: 2
Fore
SplineSet
196 21 m 128,-1,1
 133 54 133 54 96.5 118.5 c 128,-1,2
 60 183 60 183 60 273 c 0,3,4
 60 376 60 376 104 470 c 128,-1,5
 148 564 148 564 228.5 622 c 128,-1,6
 309 680 309 680 413 680 c 0,7,8
 492 680 492 680 555 647 c 128,-1,9
 618 614 618 614 654.5 549.5 c 128,-1,10
 691 485 691 485 691 395 c 0,11,12
 691 321 691 321 668 250.5 c 128,-1,13
 645 180 645 180 602 124 c 1,14,-1
 691 14 l 1,15,-1
 623 -44 l 1,16,-1
 540 59 l 1,17,18
 451 -12 451 -12 338 -12 c 0,19,0
 259 -12 259 -12 196 21 c 128,-1,1
487 125 m 1,21,-1
 343 302 l 1,22,-1
 411 360 l 1,23,-1
 543 197 l 1,24,25
 568 242 568 242 581.5 294 c 128,-1,26
 595 346 595 346 595 393 c 0,27,28
 595 488 595 488 545 544.5 c 128,-1,29
 495 601 495 601 412 601 c 0,30,31
 330 601 330 601 272 550 c 128,-1,32
 214 499 214 499 185 423 c 128,-1,33
 156 347 156 347 156 275 c 0,34,35
 156 180 156 180 206 123.5 c 128,-1,36
 256 67 256 67 339 67 c 256,37,20
 422 67 422 67 487 125 c 1,21,-1
EndSplineSet
EndChar
StartChar: R
Encoding: 82 82 74
Width: 614
GlyphClass: 2
Flags: W
AnchorPoint: "Anchor-1" 376 668 basechar 0
AnchorPoint: "Anchor-0" 258 0 basechar 0
LayerCount: 2
Fore
SplineSet
167 668 m 1,0,-1
 392 668 l 2,1,2
 497 668 497 668 558.5 623 c 128,-1,3
 620 578 620 578 620 498 c 0,4,5
 620 438 620 438 594 388.5 c 128,-1,6
 568 339 568 339 515 309 c 128,-1,7
 462 279 462 279 386 279 c 2,8,-1
 383 279 l 1,9,-1
 535 0 l 1,10,-1
 428 0 l 1,11,-1
 283 277 l 1,12,-1
 178 277 l 1,13,-1
 119 0 l 1,14,-1
 25 0 l 1,15,-1
 167 668 l 1,0,-1
482.5 391.5 m 128,-1,17
 521 425 521 425 521 488 c 0,18,19
 521 537 521 537 484.5 562 c 128,-1,20
 448 587 448 587 381 587 c 2,21,-1
 244 587 l 1,22,-1
 195 358 l 1,23,-1
 378 358 l 2,24,16
 444 358 444 358 482.5 391.5 c 128,-1,17
EndSplineSet
EndChar
StartChar: S
Encoding: 83 83 77
Width: 592
GlyphClass: 2
Flags: W
AnchorPoint: "Anchor-1" 379 668 basechar 0
AnchorPoint: "Anchor-0" 275 0 basechar 0
LayerCount: 2
Fore
SplineSet
113.5 30.5 m 128,-1,1
 44 73 44 73 27 151 c 1,2,-1
 113 180 l 1,3,4
 123 126 123 126 171.5 96.5 c 128,-1,5
 220 67 220 67 286 67 c 0,6,7
 355 67 355 67 402 100 c 128,-1,8
 449 133 449 133 449 191 c 0,9,10
 449 223 449 223 422 247.5 c 128,-1,11
 395 272 395 272 332 294 c 2,12,-1
 248 324 l 2,13,14
 185 346 185 346 145 385.5 c 128,-1,15
 105 425 105 425 105 483 c 0,16,17
 105 542 105 542 140 587 c 128,-1,18
 175 632 175 632 233 656 c 128,-1,19
 291 680 291 680 357 680 c 0,20,21
 436 680 436 680 497.5 646.5 c 128,-1,22
 559 613 559 613 584 549 c 1,23,-1
 498 520 l 1,24,25
 482 559 482 559 439 580 c 128,-1,26
 396 601 396 601 344 601 c 0,27,28
 285 601 285 601 241.5 572.5 c 128,-1,29
 198 544 198 544 198 494 c 0,30,31
 198 464 198 464 222 442 c 128,-1,32
 246 420 246 420 286 405 c 2,33,-1
 374 374 l 2,34,35
 453 345 453 345 498 306.5 c 128,-1,36
 543 268 543 268 543 204 c 0,37,38
 543 139 543 139 506.5 90 c 128,-1,39
 470 41 470 41 408.5 14.5 c 128,-1,40
 347 -12 347 -12 275 -12 c 0,41,0
 183 -12 183 -12 113.5 30.5 c 128,-1,1
EndSplineSet
EndChar
StartChar: T
Encoding: 84 84 83
Width: 558
GlyphClass: 2
Flags: W
AnchorPoint: "Anchor-1" 369 668 basechar 0
AnchorPoint: "Anchor-0" 228 0 basechar 0
LayerCount: 2
Fore
SplineSet
304 587 m 1,0,-1
 82 587 l 1,1,-1
 99 668 l 1,2,-1
 637 668 l 1,3,-1
 620 587 l 1,4,-1
 398 587 l 1,5,-1
 273 0 l 1,6,-1
 179 0 l 1,7,-1
 304 587 l 1,0,-1
EndSplineSet
EndChar
StartChar: U
Encoding: 85 85 87
Width: 690
GlyphClass: 2
Flags: W
AnchorPoint: "Anchor-3" 757 668 basechar 0
AnchorPoint: "Anchor-2" 500 10 basechar 0
AnchorPoint: "Anchor-1" 434 668 basechar 0
AnchorPoint: "Anchor-0" 292 0 basechar 0
LayerCount: 2
Fore
SplineSet
76 201 m 0,1,2
 76 247 76 247 88 304 c 2,3,-1
 166 668 l 1,4,-1
 260 668 l 1,5,-1
 179 284 l 2,6,7
 170 244 170 244 170 210 c 0,8,9
 170 139 170 139 210.5 104 c 128,-1,10
 251 69 251 69 334 69 c 0,11,12
 411 69 411 69 456 114.5 c 128,-1,13
 501 160 501 160 521 254 c 2,14,-1
 609 668 l 1,15,-1
 703 668 l 1,16,-1
 614 251 l 2,17,18
 585 117 585 117 518 52.5 c 128,-1,19
 451 -12 451 -12 333 -12 c 0,20,0
 76 -12 76 -12 76 201 c 0,1,2
EndSplineSet
EndChar
StartChar: V
Encoding: 86 86 96
Width: 593
GlyphClass: 2
Flags: W
AnchorPoint: "Anchor-1" 385 668 basechar 0
AnchorPoint: "Anchor-0" 243 0 basechar 0
LayerCount: 2
Fore
SplineSet
101 668 m 1,0,-1
 195 668 l 1,1,-1
 262 108 l 1,2,-1
 569 668 l 1,3,-1
 670 668 l 1,4,-1
 295 0 l 1,5,-1
 189 0 l 1,6,-1
 101 668 l 1,0,-1
EndSplineSet
EndChar
StartChar: W
Encoding: 87 87 97
Width: 856
GlyphClass: 2
Flags: W
AnchorPoint: "Anchor-1" 515 668 basechar 0
AnchorPoint: "Anchor-0" 377 0 basechar 0
LayerCount: 2
Fore
SplineSet
107 668 m 1,0,-1
 199 668 l 1,1,-1
 209 117 l 1,2,-1
 466 668 l 1,3,-1
 563 668 l 1,4,-1
 586 117 l 1,5,-1
 829 668 l 1,6,-1
 927 668 l 1,7,-1
 618 0 l 1,8,-1
 513 0 l 1,9,-1
 489 535 l 1,10,-1
 238 0 l 1,11,-1
 133 0 l 1,12,-1
 107 668 l 1,0,-1
EndSplineSet
EndChar
StartChar: X
Encoding: 88 88 102
Width: 623
GlyphClass: 2
Flags: W
AnchorPoint: "Anchor-1" 401 668 basechar 0
AnchorPoint: "Anchor-0" 259 0 basechar 0
LayerCount: 2
Fore
SplineSet
274 345 m 1,0,-1
 113 668 l 1,1,-1
 221 668 l 1,2,-1
 344 420 l 1,3,-1
 575 668 l 1,4,-1
 688 668 l 1,5,-1
 389 342 l 1,6,-1
 560 0 l 1,7,-1
 452 0 l 1,8,-1
 317 268 l 1,9,-1
 70 0 l 1,10,-1
 -43 0 l 1,11,-1
 274 345 l 1,0,-1
EndSplineSet
EndChar
StartChar: Y
Encoding: 89 89 103
Width: 575
GlyphClass: 2
Flags: W
AnchorPoint: "Anchor-1" 373 668 basechar 0
AnchorPoint: "Anchor-0" 235 0 basechar 0
LayerCount: 2
Fore
SplineSet
244 266 m 1,0,-1
 89 668 l 1,1,-1
 194 668 l 1,2,-1
 305 358 l 1,3,-1
 548 668 l 1,4,-1
 664 668 l 1,5,-1
 339 266 l 1,6,-1
 282 0 l 1,7,-1
 188 0 l 1,8,-1
 244 266 l 1,0,-1
EndSplineSet
EndChar
StartChar: bracketleft
Encoding: 91 91 281
Width: 318
GlyphClass: 1
Flags: W
LayerCount: 2
Fore
SplineSet
176 708 m 1,0,-1
 382 708 l 1,1,-1
 367 634 l 1,2,-1
 242 634 l 1,3,-1
 88 -88 l 1,4,-1
 213 -88 l 1,5,-1
 198 -162 l 1,6,-1
 -8 -162 l 1,7,-1
 176 708 l 1,0,-1
EndSplineSet
EndChar
StartChar: backslash
Encoding: 92 92 272
Width: 380
GlyphClass: 1
Flags: W
LayerCount: 2
Fore
SplineSet
212 -90 m 1,0,-1
 118 708 l 1,1,-1
 194 708 l 1,2,-1
 288 -90 l 1,3,-1
 212 -90 l 1,0,-1
EndSplineSet
EndChar
StartChar: bracketright
Encoding: 93 93 282
Width: 312
GlyphClass: 1
Flags: W
LayerCount: 2
Fore
SplineSet
-44 -88 m 1,0,-1
 81 -88 l 1,1,-1
 235 634 l 1,2,-1
 110 634 l 1,3,-1
 125 708 l 1,4,-1
 331 708 l 1,5,-1
 147 -162 l 1,6,-1
 -59 -162 l 1,7,-1
 -44 -88 l 1,0,-1
EndSplineSet
EndChar
StartChar: underscore
Encoding: 95 95 276
Width: 370
GlyphClass: 1
Flags: W
LayerCount: 2
Fore
SplineSet
-54 0 m 1,0,-1
 319 0 l 1,1,-1
 301 -79 l 1,2,-1
 -72 -79 l 1,3,-1
 -54 0 l 1,0,-1
EndSplineSet
EndChar
StartChar: a
Encoding: 97 97 112
Width: 525
GlyphClass: 2
Flags: W
AnchorPoint: "Anchor-2" 419 10 basechar 0
AnchorPoint: "Anchor-1" 304 496 basechar 0
AnchorPoint: "Anchor-0" 206 0 basechar 0
LayerCount: 2
Fore
SplineSet
53 21 m 128,-1,1
 8 54 8 54 8 115 c 0,2,3
 8 213 8 213 102.5 259 c 128,-1,4
 197 305 197 305 383 305 c 1,5,-1
 385 314 l 2,6,7
 389 331 389 331 389 349 c 0,8,9
 389 391 389 391 362 414 c 128,-1,10
 335 437 335 437 285 437 c 0,11,12
 242 437 242 437 210 419 c 128,-1,13
 178 401 178 401 165 362 c 1,14,-1
 84 386 l 1,15,16
 112 446 112 446 167.5 475 c 128,-1,17
 223 504 223 504 289 504 c 0,18,19
 375 504 375 504 421 464.5 c 128,-1,20
 467 425 467 425 467 351 c 0,21,22
 467 325 467 325 461 293 c 2,23,-1
 440 192 l 2,24,25
 415 77 415 77 417 0 c 1,26,-1
 342 0 l 1,27,-1
 340 73 l 1,28,29
 311 35 311 35 265.5 11.5 c 128,-1,30
 220 -12 220 -12 162 -12 c 0,31,0
 98 -12 98 -12 53 21 c 128,-1,1
298 90 m 128,-1,33
 345 125 345 125 360 199 c 2,34,-1
 369 242 l 1,35,36
 227 240 227 240 161.5 213 c 128,-1,37
 96 186 96 186 96 128 c 0,38,39
 96 92 96 92 123 73.5 c 128,-1,40
 150 55 150 55 192 55 c 0,41,32
 251 55 251 55 298 90 c 128,-1,33
EndSplineSet
Substitution2: "Single Substitution lookup 15 subtable" ordfeminine
AlternateSubs2: "'aalt' Access All Alternates in Latin lookup 0 subtable" ordfeminine
EndChar
StartChar: b
Encoding: 98 98 123
Width: 567
GlyphClass: 2
Flags: W
AnchorPoint: "Anchor-1" 339 496 basechar 0
AnchorPoint: "Anchor-0" 234 0 basechar 0
LayerCount: 2
Fore
SplineSet
177 15.5 m 128,-1,1
 135 43 135 43 123 88 c 1,2,-1
 81 0 l 1,3,-1
 19 0 l 1,4,-1
 170 708 l 1,5,-1
 254 708 l 1,6,-1
 193 422 l 1,7,8
 221 460 221 460 265 482 c 128,-1,9
 309 504 309 504 359 504 c 0,10,11
 441 504 441 504 487.5 448.5 c 128,-1,12
 534 393 534 393 534 302 c 0,13,14
 534 230 534 230 504.5 157 c 128,-1,15
 475 84 475 84 416 36 c 128,-1,16
 357 -12 357 -12 272 -12 c 0,17,0
 219 -12 219 -12 177 15.5 c 128,-1,1
366 97.5 m 128,-1,19
 406 135 406 135 424.5 189.5 c 128,-1,20
 443 244 443 244 443 296 c 0,21,22
 443 358 443 358 412.5 395 c 128,-1,23
 382 432 382 432 326 432 c 0,24,25
 269 432 269 432 229 392.5 c 128,-1,26
 189 353 189 353 169 296 c 128,-1,27
 149 239 149 239 149 188 c 0,28,29
 149 126 149 126 179 93 c 128,-1,30
 209 60 209 60 266 60 c 0,31,18
 326 60 326 60 366 97.5 c 128,-1,19
EndSplineSet
EndChar
StartChar: c
Encoding: 99 99 124
Width: 485
GlyphClass: 2
Flags: W
AnchorPoint: "Anchor-1" 317 496 basechar 0
AnchorPoint: "Anchor-0" 221 0 basechar 0
LayerCount: 2
Fore
SplineSet
86.5 46.5 m 128,-1,1
 33 105 33 105 33 198 c 0,2,3
 33 276 33 276 66.5 346.5 c 128,-1,4
 100 417 100 417 161 460.5 c 128,-1,5
 222 504 222 504 300 504 c 0,6,7
 366 504 366 504 414 472.5 c 128,-1,8
 462 441 462 441 483 387 c 1,9,-1
 406 361 l 1,10,11
 394 395 394 395 365.5 412.5 c 128,-1,12
 337 430 337 430 298 430 c 0,13,14
 238 430 238 430 197.5 393.5 c 128,-1,15
 157 357 157 357 138 304 c 128,-1,16
 119 251 119 251 119 201 c 0,17,18
 119 137 119 137 150.5 99.5 c 128,-1,19
 182 62 182 62 244 62 c 0,20,21
 329 62 329 62 365 125 c 1,22,-1
 442 94 l 1,23,24
 402 39 402 39 349 13.5 c 128,-1,25
 296 -12 296 -12 236 -12 c 0,26,0
 140 -12 140 -12 86.5 46.5 c 128,-1,1
EndSplineSet
EndChar
StartChar: d
Encoding: 100 100 129
Width: 563
GlyphClass: 2
Flags: W
AnchorPoint: "Anchor-3" 585 497 basechar 0
AnchorPoint: "Anchor-1" 393 796 basechar 0
AnchorPoint: "Anchor-0" 224 0 basechar 0
LayerCount: 2
Fore
SplineSet
78.5 43.5 m 128,-1,1
 32 99 32 99 32 190 c 0,2,3
 32 262 32 262 61.5 335 c 128,-1,4
 91 408 91 408 150 456 c 128,-1,5
 209 504 209 504 294 504 c 0,6,7
 346 504 346 504 387.5 477.5 c 128,-1,8
 429 451 429 451 443 408 c 1,9,-1
 508 708 l 1,10,-1
 592 708 l 1,11,-1
 481 187 l 2,12,13
 461 94 461 94 458 0 c 1,14,-1
 379 0 l 1,15,-1
 373 70 l 1,16,17
 345 32 345 32 301.5 10 c 128,-1,18
 258 -12 258 -12 208 -12 c 0,19,0
 125 -12 125 -12 78.5 43.5 c 128,-1,1
337 100 m 128,-1,21
 377 140 377 140 397 197 c 128,-1,22
 417 254 417 254 417 305 c 0,23,24
 417 366 417 366 386.5 399 c 128,-1,25
 356 432 356 432 300 432 c 0,26,27
 240 432 240 432 200 394.5 c 128,-1,28
 160 357 160 357 141.5 302.5 c 128,-1,29
 123 248 123 248 123 196 c 0,30,31
 123 134 123 134 153.5 97 c 128,-1,32
 184 60 184 60 240 60 c 0,33,20
 297 60 297 60 337 100 c 128,-1,21
EndSplineSet
EndChar
StartChar: e
Encoding: 101 101 133
Width: 538
GlyphClass: 2
Flags: W
AnchorPoint: "Anchor-2" 406 10 basechar 0
AnchorPoint: "Anchor-1" 322 496 basechar 0
AnchorPoint: "Anchor-0" 216 0 basechar 0
LayerCount: 2
Fore
SplineSet
136.5 15 m 128,-1,1
 87 42 87 42 60.5 90.5 c 128,-1,2
 34 139 34 139 34 202 c 0,3,4
 34 280 34 280 68.5 349.5 c 128,-1,5
 103 419 103 419 165 461.5 c 128,-1,6
 227 504 227 504 305 504 c 0,7,8
 366 504 366 504 412.5 477 c 128,-1,9
 459 450 459 450 484 402 c 128,-1,10
 509 354 509 354 509 295 c 0,11,12
 509 261 509 261 500 225 c 1,13,-1
 117 225 l 1,14,15
 114 141 114 141 155.5 101.5 c 128,-1,16
 197 62 197 62 257 62 c 0,17,18
 295 62 295 62 325.5 73.5 c 128,-1,19
 356 85 356 85 378 114 c 1,20,-1
 457 83 l 1,21,22
 415 33 415 33 365 10.5 c 128,-1,23
 315 -12 315 -12 253 -12 c 0,24,0
 186 -12 186 -12 136.5 15 c 128,-1,1
431 307 m 2,25,26
 431 362 431 362 396 397 c 128,-1,27
 361 432 361 432 301 432 c 0,28,29
 234 432 234 432 191.5 392 c 128,-1,30
 149 352 149 352 130 292 c 1,31,-1
 430 292 l 1,32,-1
 431 307 l 2,25,26
EndSplineSet
EndChar
StartChar: f
Encoding: 102 102 142
Width: 314
GlyphClass: 2
Flags: W
AnchorPoint: "Anchor-1" 257 796 basechar 0
AnchorPoint: "Anchor-0" 88 0 basechar 0
LayerCount: 2
Fore
SplineSet
137 429 m 1,0,-1
 54 429 l 1,1,-1
 69 496 l 1,2,-1
 152 496 l 1,3,-1
 174 601 l 2,4,5
 184 648 184 648 199.5 673 c 128,-1,6
 215 698 215 698 238 707.5 c 128,-1,7
 261 717 261 717 298 717 c 2,8,-1
 385 717 l 1,9,-1
 371 646 l 1,10,-1
 315 646 l 2,11,12
 286 646 286 646 275 634.5 c 128,-1,13
 264 623 264 623 256 588 c 2,14,-1
 236 496 l 1,15,-1
 338 496 l 1,16,-1
 323 429 l 1,17,-1
 221 429 l 1,18,-1
 131 0 l 1,19,-1
 47 0 l 1,20,-1
 137 429 l 1,0,-1
EndSplineSet
EndChar
StartChar: g
Encoding: 103 103 143
Width: 560
GlyphClass: 2
Flags: W
AnchorPoint: "Anchor-1" 324 496 basechar 0
AnchorPoint: "Anchor-0" 170 -251 basechar 0
LayerCount: 2
Fore
SplineSet
88.5 -162.5 m 128,-1,1
 31 -133 31 -133 18 -73 c 1,2,-1
 100 -50 l 1,3,4
 110 -86 110 -86 144 -102.5 c 128,-1,5
 178 -119 178 -119 219 -119 c 0,6,7
 327 -119 327 -119 352 -4 c 2,8,-1
 369 76 l 1,9,10
 309 9 309 9 222 9 c 0,11,12
 136 9 136 9 85.5 65 c 128,-1,13
 35 121 35 121 35 210 c 0,14,15
 35 283 35 283 67 351 c 128,-1,16
 99 419 99 419 156.5 461.5 c 128,-1,17
 214 504 214 504 288 504 c 0,18,19
 335 504 335 504 376.5 482 c 128,-1,20
 418 460 418 460 439 410 c 1,21,-1
 481 496 l 1,22,-1
 542 496 l 1,23,-1
 434 -14 l 2,24,25
 415 -102 415 -102 357 -147 c 128,-1,26
 299 -192 299 -192 213 -192 c 0,27,0
 146 -192 146 -192 88.5 -162.5 c 128,-1,1
339 116 m 128,-1,29
 377 153 377 153 395 207 c 128,-1,30
 413 261 413 261 413 310 c 0,31,32
 413 367 413 367 382.5 399.5 c 128,-1,33
 352 432 352 432 297 432 c 0,34,35
 237 432 237 432 198 396 c 128,-1,36
 159 360 159 360 141.5 308.5 c 128,-1,37
 124 257 124 257 124 211 c 0,38,39
 124 150 124 150 158 114.5 c 128,-1,40
 192 79 192 79 245 79 c 0,41,28
 301 79 301 79 339 116 c 128,-1,29
EndSplineSet
EndChar
StartChar: h
Encoding: 104 104 147
Width: 552
GlyphClass: 2
Flags: W
AnchorPoint: "Anchor-1" 390 796 basechar 0
AnchorPoint: "Anchor-0" 221 0 basechar 0
LayerCount: 2
Fore
SplineSet
170 708 m 1,0,-1
 254 708 l 1,1,-1
 193 421 l 1,2,3
 218 457 218 457 261 480.5 c 128,-1,4
 304 504 304 504 357 504 c 0,5,6
 422 504 422 504 461 467.5 c 128,-1,7
 500 431 500 431 500 363 c 0,8,9
 500 338 500 338 494 306 c 2,10,-1
 428 0 l 1,11,-1
 344 0 l 1,12,-1
 407 292 l 2,13,14
 413 319 413 319 413 341 c 0,15,16
 413 384 413 384 390.5 408 c 128,-1,17
 368 432 368 432 324 432 c 0,18,19
 262 432 262 432 219.5 389.5 c 128,-1,20
 177 347 177 347 161 267 c 2,21,-1
 104 0 l 1,22,-1
 20 0 l 1,23,-1
 170 708 l 1,0,-1
EndSplineSet
EndChar
StartChar: l
Encoding: 108 108 163
Width: 263
GlyphClass: 2
Flags: W
AnchorPoint: "Anchor-3" 243 498 basechar 0
AnchorPoint: "Anchor-1" 236 796 basechar 0
AnchorPoint: "Anchor-0" 77 0 basechar 0
LayerCount: 2
Fore
SplineSet
62.5 17.5 m 128,-1,1
 35 35 35 35 35 75 c 0,2,3
 35 95 35 95 41 120 c 2,4,-1
 166 708 l 1,5,-1
 250 708 l 1,6,-1
 127 131 l 2,7,8
 124 116 124 116 124 107 c 0,9,10
 124 88 124 88 136 81 c 128,-1,11
 148 74 148 74 177 74 c 2,12,-1
 205 74 l 1,13,-1
 190 0 l 1,14,-1
 156 0 l 2,15,0
 90 0 90 0 62.5 17.5 c 128,-1,1
EndSplineSet
EndChar
StartChar: m
Encoding: 109 109 167
Width: 845
GlyphClass: 2
Flags: W
AnchorPoint: "Anchor-1" 470 496 basechar 0
AnchorPoint: "Anchor-0" 364 0 basechar 0
LayerCount: 2
Fore
SplineSet
125 496 m 1,0,-1
 187 496 l 1,1,-1
 190 421 l 1,2,3
 217 459 217 459 258.5 481.5 c 128,-1,4
 300 504 300 504 351 504 c 0,5,6
 400 504 400 504 435 479.5 c 128,-1,7
 470 455 470 455 481 406 c 1,8,9
 517 457 517 457 561 480.5 c 128,-1,10
 605 504 605 504 659 504 c 0,11,12
 718 504 718 504 755.5 467.5 c 128,-1,13
 793 431 793 431 793 363 c 0,14,15
 793 338 793 338 787 306 c 2,16,-1
 722 0 l 1,17,-1
 638 0 l 1,18,-1
 701 292 l 2,19,20
 707 319 707 319 707 341 c 0,21,22
 707 385 707 385 686 408.5 c 128,-1,23
 665 432 665 432 626 432 c 0,24,25
 571 432 571 432 530 391 c 128,-1,26
 489 350 489 350 471 267 c 2,27,-1
 413 0 l 1,28,-1
 329 0 l 1,29,-1
 392 292 l 2,30,31
 397 315 397 315 397 341 c 0,32,33
 397 385 397 385 376 408.5 c 128,-1,34
 355 432 355 432 315 432 c 0,35,36
 259 432 259 432 217.5 389 c 128,-1,37
 176 346 176 346 159 267 c 2,38,-1
 103 0 l 1,39,-1
 19 0 l 1,40,-1
 125 496 l 1,0,-1
EndSplineSet
EndChar
StartChar: n
Encoding: 110 110 168
Width: 550
GlyphClass: 2
Flags: W
AnchorPoint: "Anchor-1" 330 496 basechar 0
AnchorPoint: "Anchor-0" 224 0 basechar 0
LayerCount: 2
Fore
SplineSet
125 496 m 1,0,-1
 187 496 l 1,1,-1
 190 421 l 1,2,3
 217 457 217 457 260.5 480.5 c 128,-1,4
 304 504 304 504 358 504 c 0,5,6
 421 504 421 504 459.5 467.5 c 128,-1,7
 498 431 498 431 498 363 c 0,8,9
 498 338 498 338 492 306 c 2,10,-1
 427 0 l 1,11,-1
 343 0 l 1,12,-1
 406 292 l 2,13,14
 412 319 412 319 412 341 c 0,15,16
 412 384 412 384 389.5 408 c 128,-1,17
 367 432 367 432 323 432 c 0,18,19
 261 432 261 432 219 389.5 c 128,-1,20
 177 347 177 347 160 267 c 2,21,-1
 103 0 l 1,22,-1
 19 0 l 1,23,-1
 125 496 l 1,0,-1
EndSplineSet
EndChar
StartChar: o
Encoding: 111 111 173
Width: 548
GlyphClass: 2
Flags: W
AnchorPoint: "Anchor-3" 582 496 basechar 0
AnchorPoint: "Anchor-2" 444 10 basechar 0
AnchorPoint: "Anchor-1" 323 496 basechar 0
AnchorPoint: "Anchor-0" 221 0 basechar 0
LayerCount: 2
Fore
SplineSet
131 15.5 m 128,-1,1
 84 43 84 43 59 92 c 128,-1,2
 34 141 34 141 34 203 c 0,3,4
 34 280 34 280 68 349.5 c 128,-1,5
 102 419 102 419 164 461.5 c 128,-1,6
 226 504 226 504 306 504 c 0,7,8
 369 504 369 504 416 476.5 c 128,-1,9
 463 449 463 449 488 400 c 128,-1,10
 513 351 513 351 513 289 c 0,11,12
 513 212 513 212 479 142.5 c 128,-1,13
 445 73 445 73 383 30.5 c 128,-1,14
 321 -12 321 -12 241 -12 c 0,15,0
 178 -12 178 -12 131 15.5 c 128,-1,1
346 97.5 m 128,-1,17
 387 133 387 133 407 186 c 128,-1,18
 427 239 427 239 427 289 c 0,19,20
 427 353 427 353 395 391.5 c 128,-1,21
 363 430 363 430 302 430 c 0,22,23
 242 430 242 430 201 394.5 c 128,-1,24
 160 359 160 359 140 306 c 128,-1,25
 120 253 120 253 120 203 c 0,26,27
 120 139 120 139 152 100.5 c 128,-1,28
 184 62 184 62 245 62 c 0,29,16
 305 62 305 62 346 97.5 c 128,-1,17
EndSplineSet
Substitution2: "Single Substitution lookup 15 subtable" ordmasculine
AlternateSubs2: "'aalt' Access All Alternates in Latin lookup 0 subtable" ordmasculine
EndChar
StartChar: p
Encoding: 112 112 182
Width: 567
GlyphClass: 2
Flags: W
AnchorPoint: "Anchor-1" 338 496 basechar 0
AnchorPoint: "Anchor-0" 232 0 basechar 0
LayerCount: 2
Fore
SplineSet
125 496 m 1,0,-1
 186 496 l 1,1,-1
 192 421 l 1,2,3
 219 459 219 459 264 481.5 c 128,-1,4
 309 504 309 504 359 504 c 0,5,6
 441 504 441 504 487.5 448.5 c 128,-1,7
 534 393 534 393 534 302 c 0,8,9
 534 230 534 230 504.5 157 c 128,-1,10
 475 84 475 84 416 36 c 128,-1,11
 357 -12 357 -12 272 -12 c 0,12,13
 219 -12 219 -12 177 15 c 128,-1,14
 135 42 135 42 123 88 c 1,15,-1
 69 -162 l 1,16,-1
 -15 -162 l 1,17,-1
 125 496 l 1,0,-1
366 97.5 m 128,-1,19
 406 135 406 135 424.5 189.5 c 128,-1,20
 443 244 443 244 443 296 c 0,21,22
 443 358 443 358 412.5 395 c 128,-1,23
 382 432 382 432 326 432 c 0,24,25
 269 432 269 432 229 392.5 c 128,-1,26
 189 353 189 353 169 296 c 128,-1,27
 149 239 149 239 149 188 c 0,28,29
 149 126 149 126 179 93 c 128,-1,30
 209 60 209 60 266 60 c 0,31,18
 326 60 326 60 366 97.5 c 128,-1,19
EndSplineSet
EndChar
StartChar: q
Encoding: 113 113 184
Width: 573
GlyphClass: 2
Flags: W
AnchorPoint: "Anchor-1" 332 496 basechar 0
AnchorPoint: "Anchor-0" 227 0 basechar 0
LayerCount: 2
Fore
SplineSet
345 -74 m 0,1,2
 345 -56 345 -56 350 -29 c 2,3,-1
 370 66 l 1,4,5
 343 29 343 29 299 8.5 c 128,-1,6
 255 -12 255 -12 208 -12 c 0,7,8
 125 -12 125 -12 78.5 43.5 c 128,-1,9
 32 99 32 99 32 190 c 0,10,11
 32 262 32 262 61.5 335 c 128,-1,12
 91 408 91 408 150 456 c 128,-1,13
 209 504 209 504 294 504 c 0,14,15
 346 504 346 504 388 477.5 c 128,-1,16
 430 451 430 451 443 409 c 1,17,-1
 485 496 l 1,18,-1
 546 496 l 1,19,-1
 438 -16 l 2,20,21
 434 -36 434 -36 434 -45 c 0,22,23
 434 -94 434 -94 496 -94 c 0,24,25
 529 -94 529 -94 552 -85 c 1,26,-1
 536 -162 l 1,27,28
 508 -173 508 -173 470 -173 c 0,29,0
 345 -173 345 -173 345 -74 c 0,1,2
337 100 m 128,-1,31
 377 140 377 140 397 197 c 128,-1,32
 417 254 417 254 417 305 c 0,33,34
 417 366 417 366 386.5 399 c 128,-1,35
 356 432 356 432 300 432 c 0,36,37
 240 432 240 432 200 394.5 c 128,-1,38
 160 357 160 357 141.5 302.5 c 128,-1,39
 123 248 123 248 123 196 c 0,40,41
 123 134 123 134 153.5 97 c 128,-1,42
 184 60 184 60 240 60 c 0,43,30
 297 60 297 60 337 100 c 128,-1,31
EndSplineSet
EndChar
StartChar: r
Encoding: 114 114 185
Width: 349
GlyphClass: 2
Flags: W
AnchorPoint: "Anchor-1" 245 496 basechar 0
AnchorPoint: "Anchor-0" 118 0 basechar 0
LayerCount: 2
Fore
SplineSet
125 496 m 1,0,-1
 190 496 l 1,1,-1
 189 403 l 1,2,3
 219 448 219 448 273 477.5 c 128,-1,4
 327 507 327 507 387 504 c 1,5,-1
 369 421 l 1,6,7
 194 425 194 425 153 229 c 2,8,-1
 104 0 l 1,9,-1
 20 0 l 1,10,-1
 125 496 l 1,0,-1
EndSplineSet
EndChar
StartChar: s
Encoding: 115 115 188
Width: 471
GlyphClass: 2
Flags: W
AnchorPoint: "Anchor-1" 282 496 basechar 0
AnchorPoint: "Anchor-0" 201 0 basechar 0
LayerCount: 2
Fore
SplineSet
86.5 22 m 128,-1,1
 27 56 27 56 9 115 c 1,2,-1
 91 144 l 1,3,4
 99 103 99 103 135 81 c 128,-1,5
 171 59 171 59 220 59 c 0,6,7
 268 59 268 59 301.5 80 c 128,-1,8
 335 101 335 101 335 139 c 0,9,10
 335 166 335 166 312 183.5 c 128,-1,11
 289 201 289 201 242 218 c 2,12,-1
 189 235 l 2,13,14
 130 256 130 256 100 285 c 128,-1,15
 70 314 70 314 70 357 c 0,16,17
 70 404 70 404 97 437.5 c 128,-1,18
 124 471 124 471 169 488.5 c 128,-1,19
 214 506 214 506 266 506 c 0,20,21
 329 506 329 506 380.5 479 c 128,-1,22
 432 452 432 452 449 402 c 1,23,-1
 370 372 l 1,24,25
 361 404 361 404 330 419.5 c 128,-1,26
 299 435 299 435 259 435 c 0,27,28
 215 435 215 435 183.5 419 c 128,-1,29
 152 403 152 403 152 369 c 0,30,31
 152 345 152 345 170 329.5 c 128,-1,32
 188 314 188 314 226 300 c 2,33,-1
 279 283 l 2,34,35
 349 258 349 258 383 228.5 c 128,-1,36
 417 199 417 199 417 153 c 0,37,38
 417 102 417 102 390 64.5 c 128,-1,39
 363 27 363 27 317 7.5 c 128,-1,40
 271 -12 271 -12 216 -12 c 0,41,0
 146 -12 146 -12 86.5 22 c 128,-1,1
EndSplineSet
EndChar
StartChar: t
Encoding: 116 116 194
Width: 326
GlyphClass: 2
Flags: W
AnchorPoint: "Anchor-3" 278 545 basechar 0
AnchorPoint: "Anchor-1" 216 496 basechar 0
AnchorPoint: "Anchor-0" 147 0 basechar 0
LayerCount: 2
Fore
SplineSet
102.5 18 m 128,-1,1
 72 36 72 36 72 81 c 0,2,3
 72 99 72 99 79 136 c 2,4,-1
 142 429 l 1,5,-1
 58 429 l 1,6,-1
 73 496 l 1,7,-1
 157 496 l 1,8,-1
 183 620 l 1,9,-1
 267 620 l 1,10,-1
 241 496 l 1,11,-1
 344 496 l 1,12,-1
 329 429 l 1,13,-1
 226 429 l 1,14,-1
 165 144 l 2,15,16
 161 127 161 127 161 111 c 0,17,18
 161 91 161 91 174.5 82.5 c 128,-1,19
 188 74 188 74 224 74 c 2,20,-1
 254 74 l 1,21,-1
 238 0 l 1,22,-1
 209 0 l 2,23,0
 133 0 133 0 102.5 18 c 128,-1,1
EndSplineSet
EndChar
StartChar: u
Encoding: 117 117 198
Width: 541
GlyphClass: 2
Flags: W
AnchorPoint: "Anchor-3" 558 496 basechar 0
AnchorPoint: "Anchor-2" 418 10 basechar 0
AnchorPoint: "Anchor-1" 313 496 basechar 0
AnchorPoint: "Anchor-0" 207 0 basechar 0
LayerCount: 2
Fore
SplineSet
89 24.5 m 128,-1,1
 51 61 51 61 51 129 c 0,2,3
 51 158 51 158 58 189 c 2,4,-1
 123 496 l 1,5,-1
 207 496 l 1,6,-1
 144 203 l 2,7,8
 139 181 139 181 139 154 c 0,9,10
 139 110 139 110 160.5 86 c 128,-1,11
 182 62 182 62 223 62 c 0,12,13
 281 62 281 62 322 106.5 c 128,-1,14
 363 151 363 151 380 229 c 2,15,-1
 437 496 l 1,16,-1
 521 496 l 1,17,-1
 416 0 l 1,18,-1
 347 0 l 1,19,-1
 350 75 l 1,20,21
 324 37 324 37 281 12.5 c 128,-1,22
 238 -12 238 -12 186 -12 c 0,23,0
 127 -12 127 -12 89 24.5 c 128,-1,1
EndSplineSet
EndChar
StartChar: w
Encoding: 119 119 208
Width: 684
GlyphClass: 2
Flags: W
AnchorPoint: "Anchor-1" 393 496 basechar 0
AnchorPoint: "Anchor-0" 289 0 basechar 0
LayerCount: 2
Fore
SplineSet
68 496 m 1,0,-1
 152 496 l 1,1,-1
 173 120 l 1,2,-1
 353 496 l 1,3,-1
 433 496 l 1,4,-1
 455 120 l 1,5,-1
 634 496 l 1,6,-1
 722 496 l 1,7,-1
 475 0 l 1,8,-1
 396 0 l 1,9,-1
 374 402 l 1,10,-1
 181 0 l 1,11,-1
 104 0 l 1,12,-1
 68 496 l 1,0,-1
EndSplineSet
EndChar
StartChar: x
Encoding: 120 120 213
Width: 481
GlyphClass: 2
Flags: W
AnchorPoint: "Anchor-1" 294 496 basechar 0
AnchorPoint: "Anchor-0" 188 0 basechar 0
LayerCount: 2
Fore
SplineSet
193 259 m 1,0,-1
 72 496 l 1,1,-1
 159 496 l 1,2,-1
 250 316 l 1,3,-1
 414 496 l 1,4,-1
 515 496 l 1,5,-1
 290 251 l 1,6,-1
 418 0 l 1,7,-1
 330 0 l 1,8,-1
 231 192 l 1,9,-1
 58 0 l 1,10,-1
 -43 0 l 1,11,-1
 193 259 l 1,0,-1
EndSplineSet
EndChar
StartChar: y
Encoding: 121 121 214
Width: 449
GlyphClass: 2
Flags: W
AnchorPoint: "Anchor-1" 273 496 basechar 0
AnchorPoint: "Anchor-0" 170 0 basechar 0
LayerCount: 2
Fore
SplineSet
-24 -88 m 1,0,-1
 22 -88 l 2,1,2
 60 -88 60 -88 80.5 -74.5 c 128,-1,3
 101 -61 101 -61 116 -29 c 2,4,-1
 136 13 l 1,5,-1
 63 496 l 1,6,-1
 149 496 l 1,7,-1
 199 113 l 1,8,-1
 401 496 l 1,9,-1
 492 496 l 1,10,-1
 193 -40 l 2,11,12
 165 -90 165 -90 143.5 -115.5 c 128,-1,13
 122 -141 122 -141 97 -151.5 c 128,-1,14
 72 -162 72 -162 35 -162 c 2,15,-1
 -40 -162 l 1,16,-1
 -24 -88 l 1,0,-1
EndSplineSet
EndChar
StartChar: braceleft
Encoding: 123 123 279
Width: 336
GlyphClass: 1
Flags: W
LayerCount: 2
Fore
SplineSet
91.5 -143 m 128,-1,1
 63 -124 63 -124 63 -81 c 0,2,3
 63 -54 63 -54 72 -15 c 2,4,-1
 107 145 l 2,5,6
 112 167 112 167 112 181 c 0,7,8
 112 206 112 206 95 220 c 128,-1,9
 78 234 78 234 37 238 c 1,10,-1
 51 308 l 1,11,12
 90 309 90 309 111 319 c 128,-1,13
 132 329 132 329 142 346.5 c 128,-1,14
 152 364 152 364 159 396 c 2,15,-1
 201 586 l 2,16,17
 212 638 212 638 226 663.5 c 128,-1,18
 240 689 240 689 263.5 698.5 c 128,-1,19
 287 708 287 708 332 708 c 2,20,-1
 399 708 l 1,21,-1
 385 637 l 1,22,-1
 342 637 l 2,23,24
 319 637 319 637 308 632.5 c 128,-1,25
 297 628 297 628 291.5 616 c 128,-1,26
 286 604 286 604 280 576 c 2,27,-1
 238 384 l 2,28,29
 226 327 226 327 201.5 301 c 128,-1,30
 177 275 177 275 138 268 c 1,31,-1
 137 263 l 1,32,33
 164 254 164 254 177.5 235 c 128,-1,34
 191 216 191 216 191 182 c 0,35,36
 191 161 191 161 185 131 c 2,37,-1
 152 -21 l 2,38,39
 147 -46 147 -46 147 -59 c 0,40,41
 147 -76 147 -76 157.5 -83.5 c 128,-1,42
 168 -91 168 -91 194 -91 c 2,43,-1
 229 -91 l 1,44,-1
 215 -162 l 1,45,-1
 190 -162 l 2,46,0
 120 -162 120 -162 91.5 -143 c 128,-1,1
EndSplineSet
EndChar
StartChar: braceright
Encoding: 125 125 280
Width: 336
GlyphClass: 1
Flags: W
LayerCount: 2
Fore
SplineSet
-38 -91 m 1,0,-1
 5 -91 l 2,1,2
 28 -91 28 -91 39 -86.5 c 128,-1,3
 50 -82 50 -82 55.5 -70 c 128,-1,4
 61 -58 61 -58 67 -30 c 2,5,-1
 109 162 l 2,6,7
 121 219 121 219 145.5 245 c 128,-1,8
 170 271 170 271 209 278 c 1,9,-1
 210 283 l 1,10,11
 183 292 183 292 169.5 311 c 128,-1,12
 156 330 156 330 156 364 c 0,13,14
 156 385 156 385 162 415 c 2,15,-1
 195 567 l 2,16,17
 200 592 200 592 200 605 c 0,18,19
 200 622 200 622 189.5 629.5 c 128,-1,20
 179 637 179 637 153 637 c 2,21,-1
 118 637 l 1,22,-1
 132 708 l 1,23,-1
 158 708 l 2,24,25
 228 708 228 708 256 689 c 128,-1,26
 284 670 284 670 284 627 c 0,27,28
 284 600 284 600 275 561 c 2,29,-1
 240 401 l 2,30,31
 235 379 235 379 235 365 c 0,32,33
 235 340 235 340 252 326 c 128,-1,34
 269 312 269 312 310 308 c 1,35,-1
 296 238 l 1,36,37
 257 237 257 237 236 227 c 128,-1,38
 215 217 215 217 205 199.5 c 128,-1,39
 195 182 195 182 188 150 c 2,40,-1
 146 -40 l 2,41,42
 135 -92 135 -92 121 -117.5 c 128,-1,43
 107 -143 107 -143 83.5 -152.5 c 128,-1,44
 60 -162 60 -162 15 -162 c 2,45,-1
 -52 -162 l 1,46,-1
 -38 -91 l 1,0,-1
EndSplineSet
EndChar
StartChar: asciitilde
Encoding: 126 126 333
Width: 555
GlyphClass: 1
Flags: W
LayerCount: 2
Fore
SplineSet
178 329 m 0,1,2
 207 329 207 329 231 320.5 c 128,-1,3
 255 312 255 312 290 295 c 0,4,5
 320 280 320 280 339 273 c 128,-1,6
 358 266 358 266 379 266 c 0,7,8
 411 266 411 266 431.5 285 c 128,-1,9
 452 304 452 304 462 344 c 1,10,-1
 529 323 l 1,11,12
 490 190 490 190 382 190 c 0,13,14
 353 190 353 190 329 198.5 c 128,-1,15
 305 207 305 207 270 224 c 0,16,17
 240 239 240 239 221 246 c 128,-1,18
 202 253 202 253 181 253 c 0,19,20
 149 253 149 253 128.5 234 c 128,-1,21
 108 215 108 215 98 175 c 1,22,-1
 31 196 l 1,23,0
 70 329 70 329 178 329 c 0,1,2
EndSplineSet
EndChar
StartChar: exclamdown
Encoding: 161 161 264
Width: 289
GlyphClass: 1
Flags: W
LayerCount: 2
Fore
SplineSet
47 2 m 1,0,-1
 130 303 l 1,1,-1
 182 303 l 1,2,-1
 137 2 l 1,3,-1
 101 -170 l 1,4,-1
 11 -170 l 1,5,-1
 47 2 l 1,0,-1
141 399 m 128,-1,7
 122 418 122 418 121 445 c 0,8,9
 121 472 121 472 140 491 c 128,-1,10
 159 510 159 510 186 510 c 0,11,12
 214 510 214 510 232.5 490.5 c 128,-1,13
 251 471 251 471 251 443 c 0,14,15
 251 417 251 417 232 398.5 c 128,-1,16
 213 380 213 380 187 380 c 0,17,6
 160 380 160 380 141 399 c 128,-1,7
EndSplineSet
EndChar
StartChar: cent
Encoding: 162 162 311
Width: 484
GlyphClass: 1
Flags: W
LayerCount: 2
Fore
SplineSet
72 63 m 128,-1,1
 33 117 33 117 33 197 c 0,2,3
 33 274 33 274 65 343.5 c 128,-1,4
 97 413 97 413 155.5 457 c 128,-1,5
 214 501 214 501 288 505 c 1,6,-1
 306 586 l 1,7,-1
 354 586 l 1,8,-1
 336 502 l 1,9,10
 385 495 385 495 423 467 c 128,-1,11
 461 439 461 439 481 391 c 1,12,-1
 406 365 l 1,13,14
 394 392 394 392 372 408.5 c 128,-1,15
 350 425 350 425 321 430 c 1,16,-1
 242 59 l 1,17,18
 324 61 324 61 371 124 c 1,19,-1
 442 96 l 1,20,21
 404 42 404 42 349 15.5 c 128,-1,22
 294 -11 294 -11 227 -12 c 1,23,-1
 210 -90 l 1,24,-1
 162 -90 l 1,25,-1
 180 -6 l 1,26,0
 111 9 111 9 72 63 c 128,-1,1
189 385.5 m 128,-1,28
 154 348 154 348 137 298 c 128,-1,29
 120 248 120 248 120 202 c 0,30,31
 120 152 120 152 139.5 116.5 c 128,-1,32
 159 81 159 81 196 68 c 1,33,-1
 273 431 l 1,34,27
 224 423 224 423 189 385.5 c 128,-1,28
EndSplineSet
EndChar
StartChar: sterling
Encoding: 163 163 316
Width: 610
GlyphClass: 1
Flags: W
LayerCount: 2
Fore
SplineSet
162 143 m 128,-1,1
 211 200 211 200 211 279 c 0,2,3
 211 297 211 297 208 318 c 1,4,-1
 93 318 l 1,5,-1
 105 369 l 1,6,-1
 199 369 l 1,7,8
 187 416 187 416 182 442 c 128,-1,9
 177 468 177 468 177 493 c 0,10,11
 177 546 177 546 202.5 588.5 c 128,-1,12
 228 631 228 631 277.5 655.5 c 128,-1,13
 327 680 327 680 395 680 c 0,14,15
 476 680 476 680 534 643 c 128,-1,16
 592 606 592 606 607 540 c 1,17,-1
 524 517 l 1,18,19
 517 561 517 561 482.5 585 c 128,-1,20
 448 609 448 609 394 609 c 0,21,22
 334 609 334 609 298 577 c 128,-1,23
 262 545 262 545 262 488 c 0,24,25
 262 466 262 466 267 443 c 128,-1,26
 272 420 272 420 286 369 c 1,27,-1
 479 369 l 1,28,-1
 468 318 l 1,29,-1
 296 318 l 1,30,31
 299 300 299 300 299 279 c 0,32,33
 299 225 299 225 274 179 c 128,-1,34
 249 133 249 133 203 100 c 1,35,36
 210 102 210 102 226 102 c 0,37,38
 245 102 245 102 262.5 98 c 128,-1,39
 280 94 280 94 306 85 c 0,40,41
 336 75 336 75 355.5 70.5 c 128,-1,42
 375 66 375 66 399 66 c 0,43,44
 421 66 421 66 443 71.5 c 128,-1,45
 465 77 465 77 500 91 c 1,46,-1
 511 17 l 1,47,48
 437 -12 437 -12 382 -12 c 0,49,50
 357 -12 357 -12 336.5 -7.5 c 128,-1,51
 316 -3 316 -3 285 7 c 0,52,53
 258 16 258 16 237 21 c 128,-1,54
 216 26 216 26 191 26 c 0,55,56
 161 26 161 26 129 17.5 c 128,-1,57
 97 9 97 9 54 -11 c 1,58,-1
 38 52 l 1,59,0
 113 86 113 86 162 143 c 128,-1,1
EndSplineSet
EndChar
StartChar: currency
Encoding: 164 164 312
Width: 580
GlyphClass: 1
Flags: W
LayerCount: 2
Fore
SplineSet
68 120 m 1,0,-1
 134 186 l 1,1,2
 111 215 111 215 99 250 c 128,-1,3
 87 285 87 285 87 321 c 256,4,5
 87 357 87 357 99 392 c 128,-1,6
 111 427 111 427 134 456 c 1,7,-1
 68 522 l 1,8,-1
 104 558 l 1,9,-1
 170 492 l 1,10,11
 229 539 229 539 305 539 c 256,12,13
 381 539 381 539 440 492 c 1,14,-1
 506 558 l 1,15,-1
 542 522 l 1,16,-1
 476 456 l 1,17,18
 499 427 499 427 511 392 c 128,-1,19
 523 357 523 357 523 321 c 256,20,21
 523 285 523 285 511 250 c 128,-1,22
 499 215 499 215 476 186 c 1,23,-1
 542 120 l 1,24,-1
 506 84 l 1,25,-1
 440 150 l 1,26,27
 381 103 381 103 305 103 c 256,28,29
 229 103 229 103 170 150 c 1,30,-1
 104 84 l 1,31,-1
 68 120 l 1,0,-1
376.5 198 m 128,-1,33
 409 217 409 217 428 250 c 128,-1,34
 447 283 447 283 447 321 c 256,35,36
 447 359 447 359 428 392 c 128,-1,37
 409 425 409 425 376.5 444 c 128,-1,38
 344 463 344 463 305 463 c 256,39,40
 266 463 266 463 233.5 444 c 128,-1,41
 201 425 201 425 182 392 c 128,-1,42
 163 359 163 359 163 321 c 256,43,44
 163 283 163 283 182 250 c 128,-1,45
 201 217 201 217 233.5 198 c 128,-1,46
 266 179 266 179 305 179 c 256,47,32
 344 179 344 179 376.5 198 c 128,-1,33
EndSplineSet
EndChar
StartChar: yen
Encoding: 165 165 317
Width: 575
GlyphClass: 1
Flags: W
LayerCount: 2
Fore
SplineSet
206 86 m 1,0,-1
 56 86 l 1,1,-1
 67 137 l 1,2,-1
 217 137 l 1,3,-1
 235 223 l 1,4,-1
 85 223 l 1,5,-1
 96 274 l 1,6,-1
 237 274 l 1,7,-1
 89 668 l 1,8,-1
 187 668 l 1,9,-1
 303 345 l 1,10,-1
 556 668 l 1,11,-1
 664 668 l 1,12,-1
 348 274 l 1,13,-1
 489 274 l 1,14,-1
 478 223 l 1,15,-1
 329 223 l 1,16,-1
 311 137 l 1,17,-1
 460 137 l 1,18,-1
 449 86 l 1,19,-1
 300 86 l 1,20,-1
 282 0 l 1,21,-1
 188 0 l 1,22,-1
 206 86 l 1,0,-1
EndSplineSet
EndChar
StartChar: brokenbar
Encoding: 166 166 306
Width: 237
GlyphClass: 1
Flags: W
LayerCount: 2
Fore
SplineSet
75 233 m 1,0,-1
 156 233 l 1,1,-1
 72 -162 l 1,2,-1
 -9 -162 l 1,3,-1
 75 233 l 1,0,-1
203 838 m 1,4,-1
 284 838 l 1,5,-1
 200 443 l 1,6,-1
 119 443 l 1,7,-1
 203 838 l 1,4,-1
EndSplineSet
EndChar
StartChar: section
Encoding: 167 167 300
Width: 526
GlyphClass: 1
Flags: W
LayerCount: 2
Fore
SplineSet
78 -139 m 128,-1,1
 30 -105 30 -105 18 -44 c 1,2,-1
 102 -22 l 1,3,4
 112 -103 112 -103 206 -103 c 0,5,6
 251 -103 251 -103 282.5 -82 c 128,-1,7
 314 -61 314 -61 314 -30 c 0,8,9
 314 -6 314 -6 295.5 15.5 c 128,-1,10
 277 37 277 37 234 68 c 2,11,-1
 147 131 l 2,12,13
 94 170 94 170 70 202 c 128,-1,14
 46 234 46 234 46 274 c 0,15,16
 46 332 46 332 83.5 369.5 c 128,-1,17
 121 407 121 407 185 430 c 1,18,19
 161 454 161 454 150 477 c 128,-1,20
 139 500 139 500 139 526 c 0,21,22
 139 570 139 570 166.5 605.5 c 128,-1,23
 194 641 194 641 239.5 660.5 c 128,-1,24
 285 680 285 680 336 680 c 0,25,26
 409 680 409 680 457 646 c 128,-1,27
 505 612 505 612 517 551 c 1,28,-1
 433 529 l 1,29,30
 423 610 423 610 329 610 c 0,31,32
 284 610 284 610 252.5 589 c 128,-1,33
 221 568 221 568 221 537 c 0,34,35
 221 513 221 513 239.5 491.5 c 128,-1,36
 258 470 258 470 301 439 c 2,37,-1
 388 376 l 2,38,39
 441 337 441 337 465 305 c 128,-1,40
 489 273 489 273 489 233 c 0,41,42
 489 175 489 175 451.5 137.5 c 128,-1,43
 414 100 414 100 350 77 c 1,44,45
 374 53 374 53 385 30.5 c 128,-1,46
 396 8 396 8 396 -19 c 0,47,48
 396 -63 396 -63 368.5 -98.5 c 128,-1,49
 341 -134 341 -134 295.5 -153.5 c 128,-1,50
 250 -173 250 -173 199 -173 c 0,51,0
 126 -173 126 -173 78 -139 c 128,-1,1
408 218 m 0,53,54
 408 243 408 243 389 266 c 128,-1,55
 370 289 370 289 332 317 c 2,56,-1
 236 387 l 1,57,58
 127 351 127 351 127 289 c 0,59,60
 127 264 127 264 146 241 c 128,-1,61
 165 218 165 218 203 190 c 2,62,-1
 299 120 l 1,63,52
 408 156 408 156 408 218 c 0,53,54
EndSplineSet
EndChar
StartChar: copyright
Encoding: 169 169 301
Width: 798
GlyphClass: 1
Flags: W
LayerCount: 2
Fore
SplineSet
243 33.5 m 128,-1,1
 163 80 163 80 116.5 160 c 128,-1,2
 70 240 70 240 70 334 c 256,3,4
 70 428 70 428 116.5 508 c 128,-1,5
 163 588 163 588 243 634.5 c 128,-1,6
 323 681 323 681 417 681 c 256,7,8
 511 681 511 681 591 634.5 c 128,-1,9
 671 588 671 588 717.5 508 c 128,-1,10
 764 428 764 428 764 334 c 256,11,12
 764 240 764 240 717.5 160 c 128,-1,13
 671 80 671 80 591 33.5 c 128,-1,14
 511 -13 511 -13 417 -13 c 256,15,0
 323 -13 323 -13 243 33.5 c 128,-1,1
288.5 194.5 m 128,-1,17
 242 246 242 246 242 336 c 0,18,19
 242 424 242 424 290.5 475 c 128,-1,20
 339 526 339 526 421 526 c 0,21,22
 473 526 473 526 509.5 504 c 128,-1,23
 546 482 546 482 566 444 c 1,24,-1
 499 419 l 1,25,26
 475 465 475 465 419 465 c 0,27,28
 374 465 374 465 347.5 433 c 128,-1,29
 321 401 321 401 321 336 c 0,30,31
 321 270 321 270 347.5 237.5 c 128,-1,32
 374 205 374 205 419 205 c 0,33,34
 479 205 479 205 502 247 c 1,35,-1
 568 223 l 1,36,37
 547 187 547 187 509.5 165 c 128,-1,38
 472 143 472 143 419 143 c 0,39,16
 335 143 335 143 288.5 194.5 c 128,-1,17
560.5 87 m 128,-1,41
 626 125 626 125 664 190.5 c 128,-1,42
 702 256 702 256 702 334 c 256,43,44
 702 412 702 412 664 477.5 c 128,-1,45
 626 543 626 543 560.5 581 c 128,-1,46
 495 619 495 619 417 619 c 256,47,48
 339 619 339 619 273.5 581 c 128,-1,49
 208 543 208 543 170 477.5 c 128,-1,50
 132 412 132 412 132 334 c 256,51,52
 132 256 132 256 170 190.5 c 128,-1,53
 208 125 208 125 273.5 87 c 128,-1,54
 339 49 339 49 417 49 c 256,55,40
 495 49 495 49 560.5 87 c 128,-1,41
EndSplineSet
EndChar
StartChar: ordfeminine
Encoding: 170 170 223
Width: 372
GlyphClass: 1
Flags: W
LayerCount: 2
Fore
SplineSet
128 415 m 128,-1,1
 102 436 102 436 102 468 c 0,2,3
 102 523 102 523 159.5 548.5 c 128,-1,4
 217 574 217 574 311 573 c 1,5,6
 314 587 314 587 314 597 c 0,7,8
 314 620 314 620 301 629.5 c 128,-1,9
 288 639 288 639 261 639 c 0,10,11
 241 639 241 639 224.5 630 c 128,-1,12
 208 621 208 621 203 603 c 1,13,-1
 142 624 l 1,14,15
 157 654 157 654 189 671 c 128,-1,16
 221 688 221 688 264 688 c 0,17,18
 319 688 319 688 349 665 c 128,-1,19
 379 642 379 642 379 597 c 0,20,21
 379 577 379 577 375 560 c 2,22,-1
 361 501 l 2,23,24
 348 438 348 438 349 400 c 1,25,-1
 291 400 l 1,26,-1
 289 441 l 1,27,28
 273 418 273 418 248.5 406 c 128,-1,29
 224 394 224 394 196 394 c 0,30,0
 154 394 154 394 128 415 c 128,-1,1
269 464.5 m 128,-1,32
 292 484 292 484 299 514 c 2,33,-1
 302 528 l 1,34,35
 237 529 237 529 205 515 c 128,-1,36
 173 501 173 501 173 474 c 0,37,38
 173 460 173 460 184 452.5 c 128,-1,39
 195 445 195 445 215 445 c 0,40,31
 246 445 246 445 269 464.5 c 128,-1,32
EndSplineSet
EndChar
StartChar: guillemotleft
Encoding: 171 171 289
Width: 562
GlyphClass: 1
Flags: W
LayerCount: 2
Fore
SplineSet
264 244 m 1,0,-1
 454 460 l 1,1,-1
 552 460 l 1,2,-1
 356 238 l 1,3,-1
 462 40 l 1,4,-1
 374 40 l 1,5,-1
 264 244 l 1,0,-1
55 250 m 1,6,-1
 245 460 l 1,7,-1
 343 460 l 1,8,-1
 147 244 l 1,9,-1
 253 40 l 1,10,-1
 165 40 l 1,11,-1
 55 250 l 1,6,-1
EndSplineSet
EndChar
StartChar: logicalnot
Encoding: 172 172 332
Width: 602
GlyphClass: 1
Flags: W
LayerCount: 2
Fore
SplineSet
483 316 m 1,0,-1
 67 316 l 1,1,-1
 84 396 l 1,2,-1
 580 396 l 1,3,-1
 514 90 l 1,4,-1
 434 90 l 1,5,-1
 483 316 l 1,0,-1
EndSplineSet
EndChar
StartChar: registered
Encoding: 174 174 302
Width: 798
GlyphClass: 1
Flags: W
LayerCount: 2
Fore
SplineSet
243 33.5 m 128,-1,1
 163 80 163 80 116.5 160 c 128,-1,2
 70 240 70 240 70 334 c 256,3,4
 70 428 70 428 116.5 508 c 128,-1,5
 163 588 163 588 243 634.5 c 128,-1,6
 323 681 323 681 417 681 c 256,7,8
 511 681 511 681 591 634.5 c 128,-1,9
 671 588 671 588 717.5 508 c 128,-1,10
 764 428 764 428 764 334 c 256,11,12
 764 240 764 240 717.5 160 c 128,-1,13
 671 80 671 80 591 33.5 c 128,-1,14
 511 -13 511 -13 417 -13 c 256,15,0
 323 -13 323 -13 243 33.5 c 128,-1,1
560.5 87 m 128,-1,17
 626 125 626 125 664 190.5 c 128,-1,18
 702 256 702 256 702 334 c 256,19,20
 702 412 702 412 664 477.5 c 128,-1,21
 626 543 626 543 560.5 581 c 128,-1,22
 495 619 495 619 417 619 c 256,23,24
 339 619 339 619 273.5 581 c 128,-1,25
 208 543 208 543 170 477.5 c 128,-1,26
 132 412 132 412 132 334 c 256,27,28
 132 256 132 256 170 190.5 c 128,-1,29
 208 125 208 125 273.5 87 c 128,-1,30
 339 49 339 49 417 49 c 256,31,16
 495 49 495 49 560.5 87 c 128,-1,17
282 529 m 1,32,-1
 414 529 l 2,33,34
 489 529 489 529 528.5 502 c 128,-1,35
 568 475 568 475 568 413 c 0,36,37
 568 371 568 371 542.5 345 c 128,-1,38
 517 319 517 319 480 310 c 1,39,-1
 588 162 l 1,40,-1
 502 162 l 1,41,-1
 400 300 l 1,42,-1
 358 300 l 1,43,-1
 358 162 l 1,44,-1
 282 162 l 1,45,-1
 282 529 l 1,32,-1
475.5 371.5 m 128,-1,47
 493 385 493 385 493 412 c 0,48,49
 493 444 493 444 473 456 c 128,-1,50
 453 468 453 468 412 468 c 2,51,-1
 358 468 l 1,52,-1
 358 358 l 1,53,-1
 417 358 l 2,54,46
 458 358 458 358 475.5 371.5 c 128,-1,47
EndSplineSet
EndChar
StartChar: degree
Encoding: 176 176 304
Width: 352
GlyphClass: 1
Flags: W
LayerCount: 2
Fore
SplineSet
171 426.5 m 128,-1,1
 140 445 140 445 121.5 476 c 128,-1,2
 103 507 103 507 103 544 c 256,3,4
 103 581 103 581 121.5 612 c 128,-1,5
 140 643 140 643 171 661.5 c 128,-1,6
 202 680 202 680 239 680 c 256,7,8
 276 680 276 680 307 661.5 c 128,-1,9
 338 643 338 643 356.5 612 c 128,-1,10
 375 581 375 581 375 544 c 256,11,12
 375 507 375 507 356.5 476 c 128,-1,13
 338 445 338 445 307 426.5 c 128,-1,14
 276 408 276 408 239 408 c 256,15,0
 202 408 202 408 171 426.5 c 128,-1,1
291 492.5 m 128,-1,17
 312 514 312 514 312 544 c 0,18,19
 312 575 312 575 291 596 c 128,-1,20
 270 617 270 617 239 617 c 0,21,22
 209 617 209 617 187.5 596 c 128,-1,23
 166 575 166 575 166 544 c 0,24,25
 166 514 166 514 187.5 492.5 c 128,-1,26
 209 471 209 471 239 471 c 0,27,16
 270 471 270 471 291 492.5 c 128,-1,17
EndSplineSet
EndChar
StartChar: plusminus
Encoding: 177 177 330
Width: 579
GlyphClass: 1
Flags: W
LayerCount: 2
Fore
SplineSet
255 270 m 1,0,-1
 58 270 l 1,1,-1
 75 350 l 1,2,-1
 272 350 l 1,3,-1
 303 496 l 1,4,-1
 383 496 l 1,5,-1
 352 350 l 1,6,-1
 548 350 l 1,7,-1
 531 270 l 1,8,-1
 335 270 l 1,9,-1
 304 124 l 1,10,-1
 224 124 l 1,11,-1
 255 270 l 1,0,-1
17 80 m 1,12,-1
 490 80 l 1,13,-1
 473 0 l 1,14,-1
 0 0 l 1,15,-1
 17 80 l 1,12,-1
EndSplineSet
EndChar
StartChar: uni00B2
Encoding: 178 178 254
Width: 382
GlyphClass: 1
Flags: W
LayerCount: 2
Fore
SplineSet
276 584.5 m 128,-1,1
 340 641 340 641 340 688 c 0,2,3
 340 710 340 710 326 722.5 c 128,-1,4
 312 735 312 735 289 735 c 0,5,6
 265 735 265 735 245.5 720.5 c 128,-1,7
 226 706 226 706 218 676 c 1,8,-1
 155 697 l 1,9,10
 172 739 172 739 207.5 762.5 c 128,-1,11
 243 786 243 786 291 786 c 0,12,13
 342 786 342 786 377.5 761.5 c 128,-1,14
 413 737 413 737 413 693 c 0,15,16
 413 629 413 629 348.5 567.5 c 128,-1,17
 284 506 284 506 198 461 c 1,18,-1
 374 461 l 1,19,-1
 361 403 l 1,20,-1
 84 403 l 1,21,-1
 96 459 l 1,22,0
 212 528 212 528 276 584.5 c 128,-1,1
EndSplineSet
EndChar
StartChar: uni00B3
Encoding: 179 179 255
Width: 384
GlyphClass: 1
Flags: W
LayerCount: 2
Fore
SplineSet
152 421 m 128,-1,1
 116 446 116 446 108 486 c 1,2,-1
 170 503 l 1,3,4
 175 476 175 476 193 461.5 c 128,-1,5
 211 447 211 447 241 447 c 0,6,7
 273 447 273 447 295 466.5 c 128,-1,8
 317 486 317 486 317 517 c 0,9,10
 317 572 317 572 220 571 c 1,11,-1
 231 626 l 1,12,13
 249 624 249 624 257 624 c 0,14,15
 298 624 298 624 320.5 640.5 c 128,-1,16
 343 657 343 657 343 688 c 0,17,18
 343 710 343 710 326.5 722.5 c 128,-1,19
 310 735 310 735 286 735 c 0,20,21
 233 735 233 735 210 683 c 1,22,-1
 149 702 l 1,23,24
 166 742 166 742 202 764 c 128,-1,25
 238 786 238 786 286 786 c 0,26,27
 340 786 340 786 377.5 761 c 128,-1,28
 415 736 415 736 415 690 c 0,29,30
 415 659 415 659 394.5 632 c 128,-1,31
 374 605 374 605 342 593 c 1,32,33
 364 581 364 581 375.5 561 c 128,-1,34
 387 541 387 541 387 518 c 0,35,36
 387 486 387 486 369.5 458 c 128,-1,37
 352 430 352 430 318.5 413 c 128,-1,38
 285 396 285 396 240 396 c 0,39,0
 188 396 188 396 152 421 c 128,-1,1
EndSplineSet
EndChar
StartChar: paragraph
Encoding: 182 182 299
Width: 510
GlyphClass: 1
Flags: W
LayerCount: 2
Fore
SplineSet
114.5 357 m 128,-1,1
 84 400 84 400 84 454 c 0,2,3
 84 477 84 477 88 494 c 0,4,5
 99 546 99 546 131.5 585.5 c 128,-1,6
 164 625 164 625 209.5 646.5 c 128,-1,7
 255 668 255 668 305 668 c 2,8,-1
 571 668 l 1,9,-1
 557 601 l 1,10,-1
 517 601 l 1,11,-1
 355 -162 l 1,12,-1
 274 -162 l 1,13,-1
 436 601 l 1,14,-1
 342 601 l 1,15,-1
 180 -162 l 1,16,-1
 99 -162 l 1,17,-1
 196 294 l 1,18,0
 145 314 145 314 114.5 357 c 128,-1,1
EndSplineSet
EndChar
StartChar: uni00B9
Encoding: 185 185 253
Width: 256
GlyphClass: 1
Flags: W
LayerCount: 2
Fore
SplineSet
227 681 m 1,0,-1
 144 681 l 1,1,-1
 155 730 l 1,2,3
 232 730 232 730 260 779 c 1,4,-1
 315 779 l 1,5,-1
 235 403 l 1,6,-1
 168 403 l 1,7,-1
 227 681 l 1,0,-1
EndSplineSet
EndChar
StartChar: ordmasculine
Encoding: 186 186 224
Width: 380
GlyphClass: 1
Flags: W
LayerCount: 2
Fore
SplineSet
147.5 426 m 128,-1,1
 112 458 112 458 112 515 c 0,2,3
 112 560 112 560 131 599.5 c 128,-1,4
 150 639 150 639 185.5 663.5 c 128,-1,5
 221 688 221 688 269 688 c 0,6,7
 321 688 321 688 356.5 656 c 128,-1,8
 392 624 392 624 392 567 c 0,9,10
 392 522 392 522 373 482.5 c 128,-1,11
 354 443 354 443 318.5 418.5 c 128,-1,12
 283 394 283 394 235 394 c 0,13,0
 183 394 183 394 147.5 426 c 128,-1,1
286 467.5 m 128,-1,15
 305 487 305 487 313.5 514 c 128,-1,16
 322 541 322 541 322 565 c 0,17,18
 322 596 322 596 307.5 615 c 128,-1,19
 293 634 293 634 266 634 c 0,20,21
 237 634 237 634 218 614.5 c 128,-1,22
 199 595 199 595 190.5 568 c 128,-1,23
 182 541 182 541 182 517 c 0,24,25
 182 486 182 486 196.5 467 c 128,-1,26
 211 448 211 448 238 448 c 0,27,14
 267 448 267 448 286 467.5 c 128,-1,15
EndSplineSet
EndChar
StartChar: guillemotright
Encoding: 187 187 290
Width: 563
GlyphClass: 1
Flags: W
LayerCount: 2
Fore
SplineSet
416 256 m 1,0,-1
 310 460 l 1,1,-1
 398 460 l 1,2,-1
 508 250 l 1,3,-1
 318 40 l 1,4,-1
 220 40 l 1,5,-1
 416 256 l 1,0,-1
207 262 m 1,6,-1
 101 460 l 1,7,-1
 189 460 l 1,8,-1
 299 256 l 1,9,-1
 109 40 l 1,10,-1
 11 40 l 1,11,-1
 207 262 l 1,6,-1
EndSplineSet
EndChar
StartChar: onequarter
Encoding: 188 188 251
Width: 821
GlyphClass: 3
Flags: W
LayerCount: 2
Fore
SplineSet
665 668 m 1,0,-1
 761 668 l 1,1,-1
 159 0 l 1,2,-1
 63 0 l 1,3,-1
 665 668 l 1,0,-1
205 571 m 1,4,-1
 122 571 l 1,5,-1
 133 619 l 1,6,7
 210 619 210 619 237 668 c 1,8,-1
 294 668 l 1,9,-1
 214 293 l 1,10,-1
 146 293 l 1,11,-1
 205 571 l 1,4,-1
613 143 m 1,12,-1
 644 288 l 1,13,-1
 505 143 l 1,14,-1
 613 143 l 1,12,-1
601 86 m 1,15,-1
 416 86 l 1,16,-1
 428 140 l 1,17,-1
 655 375 l 1,18,-1
 731 375 l 1,19,-1
 681 143 l 1,20,-1
 746 143 l 1,21,-1
 734 86 l 1,22,-1
 669 86 l 1,23,-1
 651 0 l 1,24,-1
 583 0 l 1,25,-1
 601 86 l 1,15,-1
EndSplineSet
Ligature2: "'frac' Diagonal Fractions in Latin lookup 7 subtable" one slash four
EndChar
StartChar: onehalf
Encoding: 189 189 250
Width: 837
GlyphClass: 3
Flags: W
LayerCount: 2
Fore
SplineSet
665 668 m 1,0,-1
 761 668 l 1,1,-1
 159 0 l 1,2,-1
 63 0 l 1,3,-1
 665 668 l 1,0,-1
205 571 m 1,4,-1
 122 571 l 1,5,-1
 133 619 l 1,6,7
 210 619 210 619 237 668 c 1,8,-1
 294 668 l 1,9,-1
 214 293 l 1,10,-1
 146 293 l 1,11,-1
 205 571 l 1,4,-1
495 73 m 2,12,13
 584 130 584 130 648.5 185 c 128,-1,14
 713 240 713 240 713 286 c 0,15,16
 713 308 713 308 698.5 320 c 128,-1,17
 684 332 684 332 660 332 c 0,18,19
 634 332 634 332 615 316.5 c 128,-1,20
 596 301 596 301 588 273 c 1,21,-1
 524 292 l 1,22,23
 538 330 538 330 575 356 c 128,-1,24
 612 382 612 382 662 382 c 256,25,26
 712 382 712 382 747.5 357.5 c 128,-1,27
 783 333 783 333 783 290 c 256,28,29
 783 247 783 247 752 207 c 128,-1,30
 721 167 721 167 681 137.5 c 128,-1,31
 641 108 641 108 579 69 c 2,32,-1
 561 58 l 1,33,-1
 743 58 l 1,34,-1
 731 0 l 1,35,-1
 456 0 l 1,36,-1
 467 54 l 1,37,-1
 495 73 l 2,12,13
EndSplineSet
Ligature2: "'frac' Diagonal Fractions in Latin lookup 7 subtable" one slash two
EndChar
StartChar: threequarters
Encoding: 190 190 252
Width: 886
GlyphClass: 3
Flags: W
LayerCount: 2
Fore
SplineSet
731 668 m 1,0,-1
 827 668 l 1,1,-1
 224 0 l 1,2,-1
 128 0 l 1,3,-1
 731 668 l 1,0,-1
133 312 m 128,-1,5
 98 334 98 334 87 381 c 1,6,-1
 149 397 l 1,7,8
 157 341 157 341 217 341 c 0,9,10
 253 341 253 341 273.5 361.5 c 128,-1,11
 294 382 294 382 294 412 c 0,12,13
 294 469 294 469 197 465 c 1,14,-1
 208 518 l 1,15,16
 216 517 216 517 230 517 c 0,17,18
 321 517 321 517 321 580 c 0,19,20
 321 603 321 603 305.5 615.5 c 128,-1,21
 290 628 290 628 264 628 c 0,22,23
 212 628 212 628 187 575 c 1,24,-1
 127 595 l 1,25,26
 144 635 144 635 180 657 c 128,-1,27
 216 679 216 679 264 679 c 0,28,29
 316 679 316 679 353 654 c 128,-1,30
 390 629 390 629 390 585 c 0,31,32
 390 551 390 551 371.5 525.5 c 128,-1,33
 353 500 353 500 319 486 c 1,34,35
 341 475 341 475 352 455 c 128,-1,36
 363 435 363 435 363 411 c 0,37,38
 363 356 363 356 321 323 c 128,-1,39
 279 290 279 290 218 290 c 0,40,4
 168 290 168 290 133 312 c 128,-1,5
666 86 m 1,41,-1
 481 86 l 1,42,-1
 493 140 l 1,43,-1
 720 375 l 1,44,-1
 796 375 l 1,45,-1
 746 143 l 1,46,-1
 811 143 l 1,47,-1
 799 86 l 1,48,-1
 734 86 l 1,49,-1
 716 0 l 1,50,-1
 648 0 l 1,51,-1
 666 86 l 1,41,-1
678 143 m 1,52,-1
 709 288 l 1,53,-1
 570 143 l 1,54,-1
 678 143 l 1,52,-1
EndSplineSet
Ligature2: "'frac' Diagonal Fractions in Latin lookup 7 subtable" three slash four
EndChar
StartChar: questiondown
Encoding: 191 191 266
Width: 457
GlyphClass: 1
Flags: W
LayerCount: 2
Fore
SplineSet
67 -164.5 m 128,-1,1
 21 -146 21 -146 -6.5 -111 c 128,-1,2
 -34 -76 -34 -76 -34 -29 c 0,3,4
 -34 41 -34 41 7 86.5 c 128,-1,5
 48 132 48 132 134 180 c 0,6,7
 186 208 186 208 204 227.5 c 128,-1,8
 222 247 222 247 229 279 c 2,9,-1
 235 308 l 1,10,-1
 322 308 l 1,11,-1
 316 281 l 2,12,13
 303 223 303 223 273.5 187 c 128,-1,14
 244 151 244 151 181 120 c 0,15,16
 119 89 119 89 86 56 c 128,-1,17
 53 23 53 23 53 -22 c 0,18,19
 53 -63 53 -63 86 -88 c 128,-1,20
 119 -113 119 -113 170 -113 c 0,21,22
 222 -113 222 -113 262 -83 c 128,-1,23
 302 -53 302 -53 317 -3 c 1,24,-1
 398 -28 l 1,25,26
 374 -102 374 -102 310 -142.5 c 128,-1,27
 246 -183 246 -183 166 -183 c 0,28,0
 113 -183 113 -183 67 -164.5 c 128,-1,1
262 399 m 128,-1,30
 243 418 243 418 243 445 c 256,31,32
 243 472 243 472 262 491 c 128,-1,33
 281 510 281 510 308 510 c 256,34,35
 335 510 335 510 354 491 c 128,-1,36
 373 472 373 472 373 445 c 256,37,38
 373 418 373 418 354 399 c 128,-1,39
 335 380 335 380 308 380 c 256,40,29
 281 380 281 380 262 399 c 128,-1,30
EndSplineSet
EndChar
StartChar: Aring
Encoding: 197 197 10
Width: 626
GlyphClass: 2
Flags: W
AnchorPoint: "Anchor-2" 565 10 basechar 0
AnchorPoint: "Anchor-1" 439 838 basechar 0
AnchorPoint: "Anchor-0" 261 0 basechar 0
LayerCount: 2
Fore
SplineSet
307 729 m 0,1,2
 307 774 307 774 338.5 806 c 128,-1,3
 370 838 370 838 416 838 c 256,4,5
 462 838 462 838 493.5 806 c 128,-1,6
 525 774 525 774 525 729 c 0,7,8
 525 696 525 696 507 669 c 128,-1,9
 489 642 489 642 460 629 c 1,10,-1
 563 0 l 1,11,-1
 466 0 l 1,12,-1
 445 146 l 1,13,-1
 143 146 l 1,14,-1
 60 0 l 1,15,-1
 -43 0 l 1,16,-1
 341 650 l 1,17,0
 307 682 307 682 307 729 c 0,1,2
434 227 m 1,18,-1
 385 571 l 1,19,-1
 189 227 l 1,20,-1
 434 227 l 1,18,-1
453 692.5 m 128,-1,22
 468 707 468 707 468 729 c 256,23,24
 468 751 468 751 453 765.5 c 128,-1,25
 438 780 438 780 416 780 c 256,26,27
 394 780 394 780 379 765.5 c 128,-1,28
 364 751 364 751 364 729 c 256,29,30
 364 707 364 707 379 692.5 c 128,-1,31
 394 678 394 678 416 678 c 256,32,21
 438 678 438 678 453 692.5 c 128,-1,22
EndSplineSet
EndChar
StartChar: Ccedilla
Encoding: 199 199 17
Width: 645
GlyphClass: 2
Flags: W
AnchorPoint: "Anchor-1" 439 668 basechar 0
LayerCount: 2
Fore
SplineSet
257.5 -175.5 m 128,-1,1
 236 -168 236 -168 212 -154 c 1,2,-1
 233 -121 l 1,3,4
 251 -132 251 -132 264.5 -137 c 128,-1,5
 278 -142 278 -142 295 -142 c 0,6,7
 315 -142 315 -142 330 -132 c 128,-1,8
 345 -122 345 -122 345 -105 c 0,9,10
 345 -91 345 -91 332 -83.5 c 128,-1,11
 319 -76 319 -76 300 -76 c 0,12,13
 290 -77 290 -77 279 -78 c 0,14,15
 268 -80 268 -80 262 -75.5 c 128,-1,16
 256 -71 256 -71 256 -64 c 0,17,18
 256 -56 256 -56 262 -50 c 2,19,-1
 296 -10 l 1,20,21
 184 2 184 2 121.5 77 c 128,-1,22
 59 152 59 152 59 269 c 0,23,24
 59 371 59 371 102 465.5 c 128,-1,25
 145 560 145 560 226.5 620 c 128,-1,26
 308 680 308 680 417 680 c 0,27,28
 503 680 503 680 567 640.5 c 128,-1,29
 631 601 631 601 657 525 c 1,30,-1
 575 497 l 1,31,32
 557 546 557 546 514 573.5 c 128,-1,33
 471 601 471 601 414 601 c 0,34,35
 330 601 330 601 271.5 550 c 128,-1,36
 213 499 213 499 184 423.5 c 128,-1,37
 155 348 155 348 155 275 c 0,38,39
 155 182 155 182 203 124.5 c 128,-1,40
 251 67 251 67 343 67 c 0,41,42
 398 67 398 67 441.5 91 c 128,-1,43
 485 115 485 115 520 167 c 1,44,-1
 602 134 l 1,45,46
 511 -9 511 -9 345 -12 c 1,47,-1
 318 -43 l 1,48,-1
 337 -42 l 2,49,50
 368 -42 368 -42 386.5 -56.5 c 128,-1,51
 405 -71 405 -71 405 -100 c 0,52,53
 405 -137 405 -137 376 -160 c 128,-1,54
 347 -183 347 -183 306 -183 c 0,55,0
 279 -183 279 -183 257.5 -175.5 c 128,-1,1
EndSplineSet
EndChar
StartChar: Eth
Encoding: 208 208 22
Width: 689
GlyphClass: 1
Flags: W
LayerCount: 2
Fore
SplineSet
111 309 m 1,0,-1
 44 309 l 1,1,-1
 60 388 l 1,2,-1
 127 388 l 1,3,-1
 187 668 l 1,4,-1
 312 668 l 2,5,6
 481 668 481 668 573 600 c 128,-1,7
 665 532 665 532 665 398 c 0,8,9
 665 300 665 300 629 209.5 c 128,-1,10
 593 119 593 119 512 59.5 c 128,-1,11
 431 0 431 0 302 0 c 2,12,-1
 45 0 l 1,13,-1
 111 309 l 1,0,-1
458 125 m 128,-1,15
 517 171 517 171 543 242 c 128,-1,16
 569 313 569 313 569 390 c 0,17,18
 569 589 569 589 310 589 c 2,19,-1
 264 589 l 1,20,-1
 221 388 l 1,21,-1
 411 388 l 1,22,-1
 395 309 l 1,23,-1
 205 309 l 1,24,-1
 156 79 l 1,25,-1
 306 79 l 2,26,14
 399 79 399 79 458 125 c 128,-1,15
EndSplineSet
EndChar
StartChar: multiply
Encoding: 215 215 322
Width: 531
GlyphClass: 1
Flags: W
LayerCount: 2
Fore
SplineSet
20 96 m 1,0,-1
 211 253 l 1,1,-1
 86 410 l 1,2,-1
 148 460 l 1,3,-1
 272 302 l 1,4,-1
 463 460 l 1,5,-1
 511 400 l 1,6,-1
 320 243 l 1,7,-1
 444 86 l 1,8,-1
 382 36 l 1,9,-1
 260 193 l 1,10,-1
 70 36 l 1,11,-1
 20 96 l 1,0,-1
EndSplineSet
EndChar
StartChar: Oslash
Encoding: 216 216 68
Width: 714
GlyphClass: 2
Flags: W
AnchorPoint: "Anchor-3" 791 668 basechar 0
AnchorPoint: "Anchor-1" 437 668 basechar 0
AnchorPoint: "Anchor-0" 306 0 basechar 0
LayerCount: 2
Fore
SplineSet
223 8.5 m 128,-1,1
 170 29 170 29 133 69 c 1,2,-1
 53 -6 l 1,3,-1
 18 30 l 1,4,-1
 102 109 l 1,5,6
 60 177 60 177 60 273 c 0,7,8
 60 376 60 376 104 470 c 128,-1,9
 148 564 148 564 228.5 622 c 128,-1,10
 309 680 309 680 413 680 c 0,11,12
 476 680 476 680 529 659 c 128,-1,13
 582 638 582 638 620 597 c 1,14,-1
 700 673 l 1,15,-1
 737 637 l 1,16,-1
 651 556 l 1,17,18
 691 487 691 487 691 395 c 0,19,20
 691 292 691 292 647 198 c 128,-1,21
 603 104 603 104 522.5 46 c 128,-1,22
 442 -12 442 -12 338 -12 c 0,23,0
 276 -12 276 -12 223 8.5 c 128,-1,1
479 118 m 128,-1,25
 537 169 537 169 566 245 c 128,-1,26
 595 321 595 321 595 393 c 0,27,28
 595 445 595 445 579 488 c 1,29,-1
 199 131 l 1,30,31
 223 100 223 100 258.5 83.5 c 128,-1,32
 294 67 294 67 339 67 c 0,33,24
 421 67 421 67 479 118 c 128,-1,25
174 177 m 1,35,-1
 553 535 l 1,36,37
 529 567 529 567 493 584 c 128,-1,38
 457 601 457 601 412 601 c 0,39,40
 330 601 330 601 272 550 c 128,-1,41
 214 499 214 499 185 423 c 128,-1,42
 156 347 156 347 156 275 c 0,43,34
 156 219 156 219 174 177 c 1,35,-1
EndSplineSet
EndChar
StartChar: Thorn
Encoding: 222 222 72
Width: 592
GlyphClass: 2
Flags: W
AnchorPoint: "Anchor-1" 378 668 basechar 0
AnchorPoint: "Anchor-0" 236 0 basechar 0
LayerCount: 2
Fore
SplineSet
167 668 m 1,0,-1
 261 668 l 1,1,-1
 234 541 l 1,2,-1
 351 541 l 2,3,4
 460 541 460 541 523.5 494.5 c 128,-1,5
 587 448 587 448 587 365 c 0,6,7
 587 296 587 296 556 245 c 128,-1,8
 525 194 525 194 470 166.5 c 128,-1,9
 415 139 415 139 345 139 c 2,10,-1
 149 139 l 1,11,-1
 119 0 l 1,12,-1
 25 0 l 1,13,-1
 167 668 l 1,0,-1
447.5 255.5 m 128,-1,15
 488 291 488 291 488 358 c 0,16,17
 488 408 488 408 450 434 c 128,-1,18
 412 460 412 460 343 460 c 2,19,-1
 217 460 l 1,20,-1
 166 220 l 1,21,-1
 335 220 l 2,22,14
 407 220 407 220 447.5 255.5 c 128,-1,15
EndSplineSet
EndChar
StartChar: germandbls
Encoding: 223 223 193
Width: 587
GlyphClass: 1
Flags: W
LayerCount: 2
Fore
SplineSet
287 63 m 0,1,2
 366 63 366 63 412.5 107.5 c 128,-1,3
 459 152 459 152 459 223 c 0,4,5
 459 265 459 265 434.5 298 c 128,-1,6
 410 331 410 331 369 349 c 128,-1,7
 328 367 328 367 280 367 c 2,8,-1
 278 367 l 1,9,-1
 292 439 l 1,10,11
 360 439 360 439 404.5 464.5 c 128,-1,12
 449 490 449 490 449 536 c 0,13,14
 449 572 449 572 420 591.5 c 128,-1,15
 391 611 391 611 348 611 c 0,16,17
 241 611 241 611 213 483 c 2,18,-1
 110 0 l 1,19,-1
 26 0 l 1,20,-1
 131 495 l 2,21,22
 150 583 150 583 203.5 631.5 c 128,-1,23
 257 680 257 680 344 680 c 0,24,25
 420 680 420 680 472.5 644 c 128,-1,26
 525 608 525 608 525 543 c 0,27,28
 525 494 525 494 494.5 457 c 128,-1,29
 464 420 464 420 410 402 c 1,30,31
 472 382 472 382 508 334 c 128,-1,32
 544 286 544 286 544 224 c 0,33,34
 544 155 544 155 511 101.5 c 128,-1,35
 478 48 478 48 419 18 c 128,-1,36
 360 -12 360 -12 287 -12 c 0,37,38
 267 -12 267 -12 223 -6 c 1,39,-1
 217 74 l 1,40,0
 250 63 250 63 287 63 c 0,1,2
EndSplineSet
EndChar
StartChar: ae
Encoding: 230 230 122
Width: 859
GlyphClass: 2
Flags: W
AnchorPoint: "Anchor-1" 484 496 basechar 0
AnchorPoint: "Anchor-0" 378 0 basechar 0
LayerCount: 2
Fore
SplineSet
53 21 m 128,-1,1
 7 54 7 54 7 113 c 0,2,3
 7 205 7 205 90 248.5 c 128,-1,4
 173 292 173 292 343 292 c 2,5,-1
 378 292 l 1,6,-1
 382 311 l 2,7,8
 386 328 386 328 386 348 c 0,9,10
 386 392 386 392 360 414.5 c 128,-1,11
 334 437 334 437 285 437 c 0,12,13
 242 437 242 437 210 419 c 128,-1,14
 178 401 178 401 165 362 c 1,15,-1
 84 386 l 1,16,17
 112 446 112 446 167 475 c 128,-1,18
 222 504 222 504 286 504 c 0,19,20
 348 504 348 504 389 483 c 128,-1,21
 430 462 430 462 447 421 c 1,22,23
 483 460 483 460 529 482 c 128,-1,24
 575 504 575 504 629 504 c 0,25,26
 691 504 691 504 736.5 477 c 128,-1,27
 782 450 782 450 806 403 c 128,-1,28
 830 356 830 356 830 297 c 0,29,30
 830 263 830 263 821 225 c 1,31,-1
 444 225 l 1,32,33
 443 218 443 218 443 205 c 0,34,35
 443 132 443 132 482.5 97 c 128,-1,36
 522 62 522 62 579 62 c 0,37,38
 661 62 661 62 699 114 c 1,39,-1
 778 83 l 1,40,41
 698 -12 698 -12 576 -12 c 0,42,43
 505 -12 505 -12 455.5 19 c 128,-1,44
 406 50 406 50 383 106 c 1,45,46
 350 51 350 51 293.5 19.5 c 128,-1,47
 237 -12 237 -12 167 -12 c 0,48,0
 99 -12 99 -12 53 21 c 128,-1,1
296.5 89.5 m 128,-1,50
 343 124 343 124 358 199 c 2,51,-1
 364 227 l 1,52,-1
 327 228 l 2,53,54
 202 228 202 228 148.5 201.5 c 128,-1,55
 95 175 95 175 95 126 c 0,56,57
 95 92 95 92 122.5 73.5 c 128,-1,58
 150 55 150 55 191 55 c 0,59,49
 250 55 250 55 296.5 89.5 c 128,-1,50
722 393.5 m 128,-1,61
 687 432 687 432 623 432 c 256,62,63
 559 432 559 432 518 392 c 128,-1,64
 477 352 477 352 457 292 c 1,65,-1
 752 292 l 1,66,60
 757 355 757 355 722 393.5 c 128,-1,61
EndSplineSet
EndChar
StartChar: ccedilla
Encoding: 231 231 127
Width: 485
GlyphClass: 2
Flags: W
AnchorPoint: "Anchor-1" 317 496 basechar 0
LayerCount: 2
Fore
SplineSet
143.5 -175.5 m 128,-1,1
 122 -168 122 -168 98 -154 c 1,2,-1
 119 -121 l 1,3,4
 137 -132 137 -132 150.5 -137 c 128,-1,5
 164 -142 164 -142 181 -142 c 0,6,7
 201 -142 201 -142 216 -132 c 128,-1,8
 231 -122 231 -122 231 -105 c 0,9,10
 231 -91 231 -91 218 -83.5 c 128,-1,11
 205 -76 205 -76 186 -76 c 0,12,13
 176 -77 176 -77 165 -78 c 0,14,15
 154 -80 154 -80 148 -75.5 c 128,-1,16
 142 -71 142 -71 142 -64 c 0,17,18
 142 -56 142 -56 148 -50 c 2,19,-1
 185 -7 l 1,20,21
 112 8 112 8 72.5 63.5 c 128,-1,22
 33 119 33 119 33 198 c 0,23,24
 33 276 33 276 66.5 346.5 c 128,-1,25
 100 417 100 417 161 460.5 c 128,-1,26
 222 504 222 504 300 504 c 0,27,28
 366 504 366 504 414 472.5 c 128,-1,29
 462 441 462 441 483 387 c 1,30,-1
 406 361 l 1,31,32
 394 395 394 395 365.5 412.5 c 128,-1,33
 337 430 337 430 298 430 c 0,34,35
 238 430 238 430 197.5 393.5 c 128,-1,36
 157 357 157 357 138 304 c 128,-1,37
 119 251 119 251 119 201 c 0,38,39
 119 137 119 137 150.5 99.5 c 128,-1,40
 182 62 182 62 244 62 c 0,41,42
 329 62 329 62 365 125 c 1,43,-1
 442 94 l 1,44,45
 405 44 405 44 355 16 c 128,-1,46
 305 -12 305 -12 231 -12 c 1,47,-1
 204 -43 l 1,48,-1
 223 -42 l 2,49,50
 254 -42 254 -42 272.5 -56.5 c 128,-1,51
 291 -71 291 -71 291 -100 c 0,52,53
 291 -137 291 -137 262 -160 c 128,-1,54
 233 -183 233 -183 192 -183 c 0,55,0
 165 -183 165 -183 143.5 -175.5 c 128,-1,1
EndSplineSet
EndChar
StartChar: eth
Encoding: 240 240 132
Width: 565
GlyphClass: 2
Flags: W
AnchorPoint: "Anchor-1" 395 796 basechar 0
AnchorPoint: "Anchor-0" 226 0 basechar 0
LayerCount: 2
Fore
SplineSet
127.5 14 m 128,-1,1
 80 40 80 40 54.5 85 c 128,-1,2
 29 130 29 130 29 186 c 0,3,4
 29 253 29 253 60.5 312.5 c 128,-1,5
 92 372 92 372 149 408.5 c 128,-1,6
 206 445 206 445 277 445 c 0,7,8
 338 445 338 445 384 414.5 c 128,-1,9
 430 384 430 384 446 331 c 1,10,11
 452 395 452 395 452 424 c 0,12,13
 452 519 452 519 417 571 c 1,14,-1
 326 505 l 1,15,-1
 294 546 l 1,16,-1
 380 607 l 1,17,18
 357 623 357 623 323 634.5 c 128,-1,19
 289 646 289 646 249 650 c 1,20,-1
 264 719 l 1,21,22
 377 706 377 706 443 655 c 1,23,-1
 510 704 l 1,24,-1
 542 664 l 1,25,-1
 479 618 l 1,26,27
 529 548 529 548 529 417 c 0,28,29
 529 311 529 311 499.5 213 c 128,-1,30
 470 115 470 115 404.5 51.5 c 128,-1,31
 339 -12 339 -12 239 -12 c 0,32,0
 175 -12 175 -12 127.5 14 c 128,-1,1
330.5 84.5 m 128,-1,34
 369 110 369 110 390 152.5 c 128,-1,35
 411 195 411 195 411 243 c 0,36,37
 411 299 411 299 375.5 335 c 128,-1,38
 340 371 340 371 280 371 c 0,39,40
 230 371 230 371 192 344 c 128,-1,41
 154 317 154 317 134 274 c 128,-1,42
 114 231 114 231 114 185 c 0,43,44
 114 127 114 127 148.5 93 c 128,-1,45
 183 59 183 59 242 59 c 0,46,33
 292 59 292 59 330.5 84.5 c 128,-1,34
EndSplineSet
EndChar
StartChar: divide
Encoding: 247 247 323
Width: 606
GlyphClass: 1
Flags: W
LayerCount: 2
Fore
SplineSet
64 288 m 1,0,-1
 560 288 l 1,1,-1
 542 208 l 1,2,-1
 46 208 l 1,3,-1
 64 288 l 1,0,-1
218 32 m 128,-1,5
 199 51 199 51 199 79 c 0,6,7
 199 105 199 105 218 124 c 128,-1,8
 237 143 237 143 264 143 c 0,9,10
 292 143 292 143 310.5 124.5 c 128,-1,11
 329 106 329 106 329 79 c 0,12,13
 329 51 329 51 310.5 32 c 128,-1,14
 292 13 292 13 264 13 c 0,15,4
 237 13 237 13 218 32 c 128,-1,5
291 371.5 m 128,-1,17
 272 390 272 390 272 418 c 0,18,19
 272 445 272 445 291 464 c 128,-1,20
 310 483 310 483 337 483 c 256,21,22
 364 483 364 483 383 464 c 128,-1,23
 402 445 402 445 402 418 c 0,24,25
 402 390 402 390 383 371.5 c 128,-1,26
 364 353 364 353 337 353 c 256,27,16
 310 353 310 353 291 371.5 c 128,-1,17
EndSplineSet
EndChar
StartChar: oslash
Encoding: 248 248 179
Width: 548
GlyphClass: 2
Flags: W
AnchorPoint: "Anchor-3" 582 496 basechar 0
AnchorPoint: "Anchor-1" 323 496 basechar 0
AnchorPoint: "Anchor-0" 221 0 basechar 0
LayerCount: 2
Fore
SplineSet
94 44 m 1,1,-1
 37 -9 l 1,2,-1
 2 27 l 1,3,-1
 63 84 l 1,4,5
 34 136 34 136 34 203 c 0,6,7
 34 280 34 280 68 349.5 c 128,-1,8
 102 419 102 419 164 461.5 c 128,-1,9
 226 504 226 504 306 504 c 0,10,11
 395 504 395 504 452 449 c 1,12,-1
 511 505 l 1,13,-1
 546 469 l 1,14,-1
 483 410 l 1,15,16
 513 356 513 356 513 289 c 0,17,18
 513 212 513 212 479 142.5 c 128,-1,19
 445 73 445 73 383 30.5 c 128,-1,20
 321 -12 321 -12 241 -12 c 0,21,0
 150 -12 150 -12 94 44 c 1,1,-1
346 97.5 m 128,-1,23
 387 133 387 133 407 186 c 128,-1,24
 427 239 427 239 427 289 c 0,25,26
 427 322 427 322 418 349 c 1,27,-1
 153 100 l 1,28,29
 185 62 185 62 245 62 c 256,30,22
 305 62 305 62 346 97.5 c 128,-1,23
128 145 m 1,32,-1
 393 394 l 1,33,34
 360 430 360 430 302 430 c 0,35,36
 242 430 242 430 201 394.5 c 128,-1,37
 160 359 160 359 140 306 c 128,-1,38
 120 253 120 253 120 203 c 0,39,31
 120 174 120 174 128 145 c 1,32,-1
EndSplineSet
EndChar
StartChar: thorn
Encoding: 254 254 183
Width: 567
GlyphClass: 2
Flags: W
AnchorPoint: "Anchor-1" 336 496 basechar 0
AnchorPoint: "Anchor-0" 231 0 basechar 0
LayerCount: 2
Fore
SplineSet
170 708 m 1,0,-1
 254 708 l 1,1,-1
 193 422 l 1,2,3
 219 460 219 460 264 482 c 128,-1,4
 309 504 309 504 359 504 c 0,5,6
 441 504 441 504 487.5 448.5 c 128,-1,7
 534 393 534 393 534 302 c 0,8,9
 534 230 534 230 504.5 157 c 128,-1,10
 475 84 475 84 416 36 c 128,-1,11
 357 -12 357 -12 272 -12 c 0,12,13
 219 -12 219 -12 177 15 c 128,-1,14
 135 42 135 42 123 88 c 1,15,-1
 69 -162 l 1,16,-1
 -15 -162 l 1,17,-1
 170 708 l 1,0,-1
366 97.5 m 128,-1,19
 406 135 406 135 424.5 189.5 c 128,-1,20
 443 244 443 244 443 296 c 0,21,22
 443 358 443 358 412.5 395 c 128,-1,23
 382 432 382 432 326 432 c 0,24,25
 269 432 269 432 229 392.5 c 128,-1,26
 189 353 189 353 169 296 c 128,-1,27
 149 239 149 239 149 188 c 0,28,29
 149 126 149 126 179.5 93 c 128,-1,30
 210 60 210 60 266 60 c 0,31,18
 326 60 326 60 366 97.5 c 128,-1,19
EndSplineSet
EndChar
StartChar: Aogonek
Encoding: 260 260 9
Width: 626
GlyphClass: 2
Flags: W
AnchorPoint: "Anchor-1" 403 668 basechar 0
AnchorPoint: "Anchor-0" 261 0 basechar 0
LayerCount: 2
Fore
SplineSet
412 -154 m 128,-1,1
 387 -135 387 -135 387 -99 c 0,2,3
 387 -67 387 -67 408.5 -39 c 128,-1,4
 430 -11 430 -11 465 5 c 1,5,-1
 445 146 l 1,6,-1
 143 146 l 1,7,-1
 60 0 l 1,8,-1
 -43 0 l 1,9,-1
 352 668 l 1,10,-1
 454 668 l 1,11,-1
 563 0 l 1,12,13
 512 -16 512 -16 485.5 -34.5 c 128,-1,14
 459 -53 459 -53 459 -80 c 0,15,16
 459 -98 459 -98 472.5 -106.5 c 128,-1,17
 486 -115 486 -115 506 -115 c 0,18,19
 523 -115 523 -115 540 -110 c 1,20,-1
 528 -167 l 1,21,22
 501 -173 501 -173 478 -173 c 0,23,0
 437 -173 437 -173 412 -154 c 128,-1,1
434 227 m 1,24,-1
 385 571 l 1,25,-1
 189 227 l 1,26,-1
 434 227 l 1,24,-1
EndSplineSet
EndChar
StartChar: aogonek
Encoding: 261 261 119
Width: 525
GlyphClass: 2
Flags: W
AnchorPoint: "Anchor-1" 304 496 basechar 0
AnchorPoint: "Anchor-0" 206 0 basechar 0
LayerCount: 2
Fore
SplineSet
266.5 -153.5 m 128,-1,1
 240 -134 240 -134 240 -100 c 0,2,3
 240 -61 240 -61 267.5 -33 c 128,-1,4
 295 -5 295 -5 342 10 c 1,5,-1
 340 73 l 1,6,7
 311 35 311 35 265.5 11.5 c 128,-1,8
 220 -12 220 -12 162 -12 c 0,9,10
 98 -12 98 -12 53 21 c 128,-1,11
 8 54 8 54 8 115 c 0,12,13
 8 213 8 213 102.5 259 c 128,-1,14
 197 305 197 305 383 305 c 1,15,-1
 385 314 l 2,16,17
 389 331 389 331 389 349 c 0,18,19
 389 391 389 391 362 414 c 128,-1,20
 335 437 335 437 285 437 c 0,21,22
 242 437 242 437 210 419 c 128,-1,23
 178 401 178 401 165 362 c 1,24,-1
 84 386 l 1,25,26
 112 446 112 446 167.5 475 c 128,-1,27
 223 504 223 504 289 504 c 0,28,29
 375 504 375 504 421 464.5 c 128,-1,30
 467 425 467 425 467 351 c 0,31,32
 467 325 467 325 461 293 c 2,33,-1
 440 192 l 2,34,35
 415 77 415 77 417 0 c 1,36,37
 373 -15 373 -15 343 -33.5 c 128,-1,38
 313 -52 313 -52 313 -79 c 0,39,40
 313 -98 313 -98 327.5 -106.5 c 128,-1,41
 342 -115 342 -115 362 -115 c 0,42,43
 376 -115 376 -115 394 -110 c 1,44,-1
 381 -167 l 1,45,46
 357 -173 357 -173 332 -173 c 0,47,0
 293 -173 293 -173 266.5 -153.5 c 128,-1,1
298 90 m 128,-1,49
 345 125 345 125 360 199 c 2,50,-1
 369 242 l 1,51,52
 227 240 227 240 161.5 213 c 128,-1,53
 96 186 96 186 96 128 c 0,54,55
 96 92 96 92 123 73.5 c 128,-1,56
 150 55 150 55 192 55 c 0,57,48
 251 55 251 55 298 90 c 128,-1,49
EndSplineSet
EndChar
StartChar: dcroat
Encoding: 273 273 131
Width: 564
GlyphClass: 1
Flags: W
LayerCount: 2
Fore
SplineSet
78.5 43.5 m 128,-1,1
 32 99 32 99 32 190 c 0,2,3
 32 262 32 262 61.5 335 c 128,-1,4
 91 408 91 408 150 456 c 128,-1,5
 209 504 209 504 294 504 c 0,6,7
 346 504 346 504 387.5 477.5 c 128,-1,8
 429 451 429 451 443 408 c 1,9,-1
 473 548 l 1,10,-1
 315 548 l 1,11,-1
 329 615 l 1,12,-1
 488 615 l 1,13,-1
 508 708 l 1,14,-1
 592 708 l 1,15,-1
 572 615 l 1,16,-1
 658 615 l 1,17,-1
 644 548 l 1,18,-1
 558 548 l 1,19,-1
 481 187 l 2,20,21
 461 94 461 94 458 0 c 1,22,-1
 379 0 l 1,23,-1
 373 70 l 1,24,25
 345 32 345 32 301.5 10 c 128,-1,26
 258 -12 258 -12 208 -12 c 0,27,0
 125 -12 125 -12 78.5 43.5 c 128,-1,1
337 100 m 128,-1,29
 377 140 377 140 397 197 c 128,-1,30
 417 254 417 254 417 305 c 0,31,32
 417 366 417 366 386.5 399 c 128,-1,33
 356 432 356 432 300 432 c 0,34,35
 240 432 240 432 200 394.5 c 128,-1,36
 160 357 160 357 141.5 302.5 c 128,-1,37
 123 248 123 248 123 196 c 0,38,39
 123 134 123 134 153.5 97 c 128,-1,40
 184 60 184 60 240 60 c 0,41,28
 297 60 297 60 337 100 c 128,-1,29
EndSplineSet
EndChar
StartChar: Eogonek
Encoding: 280 280 31
Width: 569
GlyphClass: 2
Flags: W
AnchorPoint: "Anchor-1" 284 668 basechar 0
AnchorPoint: "Anchor-0" 234 0 basechar 0
LayerCount: 2
Fore
SplineSet
167 668 m 1,0,-1
 616 668 l 1,1,-1
 599 587 l 1,2,-1
 244 587 l 1,3,-1
 201 384 l 1,4,-1
 466 384 l 1,5,-1
 449 303 l 1,6,-1
 183 303 l 1,7,-1
 136 81 l 1,8,-1
 495 81 l 1,9,-1
 478 0 l 1,10,11
 427 -16 427 -16 400.5 -34.5 c 128,-1,12
 374 -53 374 -53 374 -80 c 0,13,14
 374 -98 374 -98 387.5 -106.5 c 128,-1,15
 401 -115 401 -115 421 -115 c 0,16,17
 438 -115 438 -115 455 -110 c 1,18,-1
 443 -167 l 1,19,20
 416 -173 416 -173 393 -173 c 0,21,22
 352 -173 352 -173 327 -154 c 128,-1,23
 302 -135 302 -135 302 -99 c 0,24,25
 302 -69 302 -69 321 -42.5 c 128,-1,26
 340 -16 340 -16 371 0 c 1,27,-1
 25 0 l 1,28,-1
 167 668 l 1,0,-1
EndSplineSet
EndChar
StartChar: eogonek
Encoding: 281 281 141
Width: 538
GlyphClass: 2
Flags: W
AnchorPoint: "Anchor-1" 322 496 basechar 0
AnchorPoint: "Anchor-0" 216 0 basechar 0
LayerCount: 2
Fore
SplineSet
253.5 -153.5 m 128,-1,1
 227 -134 227 -134 227 -100 c 0,2,3
 227 -52 227 -52 270 -12 c 1,4,5
 199 -15 199 -15 146 10 c 128,-1,6
 93 35 93 35 63.5 84.5 c 128,-1,7
 34 134 34 134 34 202 c 0,8,9
 34 280 34 280 68.5 349.5 c 128,-1,10
 103 419 103 419 165 461.5 c 128,-1,11
 227 504 227 504 305 504 c 0,12,13
 366 504 366 504 412.5 477 c 128,-1,14
 459 450 459 450 484 402 c 128,-1,15
 509 354 509 354 509 295 c 0,16,17
 509 261 509 261 500 225 c 1,18,-1
 117 225 l 1,19,20
 114 141 114 141 155.5 101.5 c 128,-1,21
 197 62 197 62 257 62 c 0,22,23
 295 62 295 62 325.5 73.5 c 128,-1,24
 356 85 356 85 378 114 c 1,25,-1
 457 83 l 1,26,27
 427 45 427 45 367 11 c 0,28,29
 340 -4 340 -4 320 -27.5 c 128,-1,30
 300 -51 300 -51 300 -76 c 0,31,32
 300 -115 300 -115 348 -115 c 0,33,34
 364 -115 364 -115 381 -110 c 1,35,-1
 368 -167 l 1,36,37
 341 -173 341 -173 319 -173 c 0,38,0
 280 -173 280 -173 253.5 -153.5 c 128,-1,1
431 307 m 2,39,40
 431 362 431 362 396 397 c 128,-1,41
 361 432 361 432 301 432 c 0,42,43
 234 432 234 432 191.5 392 c 128,-1,44
 149 352 149 352 130 292 c 1,45,-1
 430 292 l 1,46,-1
 431 307 l 2,39,40
EndSplineSet
EndChar
StartChar: Hbar
Encoding: 294 294 38
Width: 694
GlyphClass: 1
Flags: W
LayerCount: 2
Fore
SplineSet
133 506 m 1,0,-1
 66 506 l 1,1,-1
 82 582 l 1,2,-1
 149 582 l 1,3,-1
 167 668 l 1,4,-1
 261 668 l 1,5,-1
 243 582 l 1,6,-1
 593 582 l 1,7,-1
 611 668 l 1,8,-1
 705 668 l 1,9,-1
 687 582 l 1,10,-1
 753 582 l 1,11,-1
 738 506 l 1,12,-1
 671 506 l 1,13,-1
 563 0 l 1,14,-1
 469 0 l 1,15,-1
 533 303 l 1,16,-1
 183 303 l 1,17,-1
 119 0 l 1,18,-1
 25 0 l 1,19,-1
 133 506 l 1,0,-1
551 384 m 1,20,-1
 577 506 l 1,21,-1
 227 506 l 1,22,-1
 201 384 l 1,23,-1
 551 384 l 1,20,-1
EndSplineSet
EndChar
StartChar: hbar
Encoding: 295 295 148
Width: 550
GlyphClass: 1
Flags: W
LayerCount: 2
Fore
SplineSet
134 548 m 1,0,-1
 48 548 l 1,1,-1
 62 615 l 1,2,-1
 148 615 l 1,3,-1
 168 708 l 1,4,-1
 252 708 l 1,5,-1
 232 615 l 1,6,-1
 391 615 l 1,7,-1
 377 548 l 1,8,-1
 218 548 l 1,9,-1
 191 421 l 1,10,11
 216 457 216 457 259 480.5 c 128,-1,12
 302 504 302 504 355 504 c 0,13,14
 420 504 420 504 459 467.5 c 128,-1,15
 498 431 498 431 498 363 c 0,16,17
 498 338 498 338 492 306 c 2,18,-1
 426 0 l 1,19,-1
 342 0 l 1,20,-1
 405 292 l 2,21,22
 411 319 411 319 411 341 c 0,23,24
 411 384 411 384 388.5 408 c 128,-1,25
 366 432 366 432 322 432 c 0,26,27
 260 432 260 432 217.5 389.5 c 128,-1,28
 175 347 175 347 159 267 c 2,29,-1
 102 0 l 1,30,-1
 18 0 l 1,31,-1
 134 548 l 1,0,-1
EndSplineSet
EndChar
StartChar: Iogonek
Encoding: 302 302 47
Width: 392
GlyphClass: 2
Flags: W
AnchorPoint: "Anchor-1" 285 668 basechar 0
AnchorPoint: "Anchor-0" 144 0 basechar 0
LayerCount: 2
Fore
SplineSet
17 70 m 1,0,-1
 111 70 l 1,1,-1
 223 598 l 1,2,-1
 129 598 l 1,3,-1
 144 668 l 1,4,-1
 426 668 l 1,5,-1
 411 598 l 1,6,-1
 317 598 l 1,7,-1
 205 70 l 1,8,-1
 299 70 l 1,9,-1
 284 0 l 1,10,11
 233 -16 233 -16 206.5 -34.5 c 128,-1,12
 180 -53 180 -53 180 -80 c 0,13,14
 180 -98 180 -98 193.5 -106.5 c 128,-1,15
 207 -115 207 -115 227 -115 c 0,16,17
 244 -115 244 -115 261 -110 c 1,18,-1
 249 -167 l 1,19,20
 222 -173 222 -173 199 -173 c 0,21,22
 158 -173 158 -173 133 -154 c 128,-1,23
 108 -135 108 -135 108 -99 c 0,24,25
 108 -69 108 -69 127 -42.5 c 128,-1,26
 146 -16 146 -16 177 0 c 1,27,-1
 2 0 l 1,28,-1
 17 70 l 1,0,-1
EndSplineSet
EndChar
StartChar: iogonek
Encoding: 303 303 156
Width: 252
GlyphClass: 2
Flags: W
AnchorPoint: "Anchor-1" 224 714 basechar 0
AnchorPoint: "Anchor-0" 65 0 basechar 0
LayerCount: 2
Fore
SplineSet
167.5 608.5 m 128,-1,1
 149 627 149 627 149 652 c 0,2,3
 149 678 149 678 167.5 696 c 128,-1,4
 186 714 186 714 211 714 c 0,5,6
 237 714 237 714 255 696 c 128,-1,7
 273 678 273 678 273 652 c 0,8,9
 273 627 273 627 255 608.5 c 128,-1,10
 237 590 237 590 211 590 c 0,11,0
 186 590 186 590 167.5 608.5 c 128,-1,1
-25.5 -153.5 m 128,-1,13
 -52 -134 -52 -134 -52 -100 c 0,14,15
 -52 -63 -52 -63 -26.5 -35.5 c 128,-1,16
 -1 -8 -1 -8 43 8 c 1,17,-1
 132 429 l 1,18,-1
 63 429 l 1,19,-1
 78 496 l 1,20,-1
 231 496 l 1,21,-1
 125 0 l 1,22,23
 81 -15 81 -15 51 -33.5 c 128,-1,24
 21 -52 21 -52 21 -79 c 0,25,26
 21 -98 21 -98 35.5 -106.5 c 128,-1,27
 50 -115 50 -115 70 -115 c 0,28,29
 84 -115 84 -115 102 -110 c 1,30,-1
 89 -167 l 1,31,32
 65 -173 65 -173 40 -173 c 0,33,12
 1 -173 1 -173 -25.5 -153.5 c 128,-1,13
EndSplineSet
EndChar
StartChar: Lslash
Encoding: 321 321 55
Width: 571
GlyphClass: 1
Flags: W
LayerCount: 2
Fore
SplineSet
107 246 m 1,0,-1
 -4 188 l 1,1,-1
 14 271 l 1,2,-1
 125 328 l 1,3,-1
 197 668 l 1,4,-1
 291 668 l 1,5,-1
 230 383 l 1,6,-1
 439 491 l 1,7,-1
 421 408 l 1,8,-1
 213 300 l 1,9,-1
 166 81 l 1,10,-1
 525 81 l 1,11,-1
 508 0 l 1,12,-1
 55 0 l 1,13,-1
 107 246 l 1,0,-1
EndSplineSet
EndChar
StartChar: lslash
Encoding: 322 322 166
Width: 296
GlyphClass: 1
Flags: W
LayerCount: 2
Fore
SplineSet
81.5 17.5 m 128,-1,1
 54 35 54 35 54 75 c 0,2,3
 54 95 54 95 60 120 c 2,4,-1
 91 268 l 1,5,-1
 23 232 l 1,6,-1
 39 307 l 1,7,-1
 107 343 l 1,8,-1
 185 708 l 1,9,-1
 269 708 l 1,10,-1
 202 392 l 1,11,-1
 298 442 l 1,12,-1
 282 367 l 1,13,-1
 186 317 l 1,14,-1
 146 131 l 2,15,16
 143 116 143 116 143 107 c 0,17,18
 143 88 143 88 155 81 c 128,-1,19
 167 74 167 74 196 74 c 2,20,-1
 224 74 l 1,21,-1
 209 0 l 1,22,-1
 175 0 l 2,23,0
 109 0 109 0 81.5 17.5 c 128,-1,1
EndSplineSet
EndChar
StartChar: OE
Encoding: 338 338 70
Width: 1005
GlyphClass: 2
Flags: W
AnchorPoint: "Anchor-1" 600 668 basechar 0
AnchorPoint: "Anchor-0" 458 0 basechar 0
LayerCount: 2
Fore
SplineSet
176.5 23.5 m 128,-1,1
 119 59 119 59 88.5 122 c 128,-1,2
 58 185 58 185 58 266 c 0,3,4
 58 365 58 365 99.5 461 c 128,-1,5
 141 557 141 557 220.5 618.5 c 128,-1,6
 300 680 300 680 409 680 c 0,7,8
 483 680 483 680 533.5 651.5 c 128,-1,9
 584 623 584 623 612 569 c 1,10,-1
 633 668 l 1,11,-1
 1052 668 l 1,12,-1
 1035 587 l 1,13,-1
 706 587 l 1,14,-1
 663 384 l 1,15,-1
 902 384 l 1,16,-1
 885 303 l 1,17,-1
 645 303 l 1,18,-1
 598 81 l 1,19,-1
 931 81 l 1,20,-1
 914 0 l 1,21,-1
 491 0 l 1,22,-1
 504 63 l 1,23,24
 424 -12 424 -12 314 -12 c 0,25,0
 234 -12 234 -12 176.5 23.5 c 128,-1,1
461 122 m 128,-1,27
 515 177 515 177 541.5 256 c 128,-1,28
 568 335 568 335 568 405 c 0,29,30
 568 493 568 493 526.5 547 c 128,-1,31
 485 601 485 601 402 601 c 0,32,33
 320 601 320 601 264 548 c 128,-1,34
 208 495 208 495 181 417.5 c 128,-1,35
 154 340 154 340 154 268 c 0,36,37
 154 178 154 178 199.5 122.5 c 128,-1,38
 245 67 245 67 328 67 c 0,39,26
 407 67 407 67 461 122 c 128,-1,27
EndSplineSet
EndChar
StartChar: oe
Encoding: 339 339 181
Width: 923
GlyphClass: 2
Flags: W
AnchorPoint: "Anchor-1" 546 496 basechar 0
AnchorPoint: "Anchor-0" 440 0 basechar 0
LayerCount: 2
Fore
SplineSet
517 17.5 m 128,-1,1
 468 47 468 47 444 98 c 1,2,3
 408 47 408 47 355.5 17.5 c 128,-1,4
 303 -12 303 -12 238 -12 c 0,5,6
 177 -12 177 -12 130.5 15.5 c 128,-1,7
 84 43 84 43 59 92 c 128,-1,8
 34 141 34 141 34 203 c 0,9,10
 34 279 34 279 67.5 348.5 c 128,-1,11
 101 418 101 418 162.5 461 c 128,-1,12
 224 504 224 504 304 504 c 0,13,14
 367 504 367 504 413.5 476 c 128,-1,15
 460 448 460 448 484 398 c 1,16,17
 521 448 521 448 574 476 c 128,-1,18
 627 504 627 504 690 504 c 0,19,20
 751 504 751 504 797.5 477.5 c 128,-1,21
 844 451 844 451 869 403.5 c 128,-1,22
 894 356 894 356 894 297 c 0,23,24
 894 263 894 263 885 225 c 1,25,-1
 504 225 l 1,26,27
 499 155 499 155 534 108.5 c 128,-1,28
 569 62 569 62 642 62 c 0,29,30
 680 62 680 62 710.5 73.5 c 128,-1,31
 741 85 741 85 763 114 c 1,32,-1
 842 83 l 1,33,34
 800 33 800 33 750 10.5 c 128,-1,35
 700 -12 700 -12 638 -12 c 0,36,0
 566 -12 566 -12 517 17.5 c 128,-1,1
346 94.5 m 128,-1,38
 387 132 387 132 406.5 187 c 128,-1,39
 426 242 426 242 426 293 c 0,40,41
 426 356 426 356 395 393 c 128,-1,42
 364 430 364 430 302 430 c 0,43,44
 242 430 242 430 201 394.5 c 128,-1,45
 160 359 160 359 140 306 c 128,-1,46
 120 253 120 253 120 203 c 0,47,48
 120 139 120 139 152 98 c 128,-1,49
 184 57 184 57 245 57 c 0,50,37
 305 57 305 57 346 94.5 c 128,-1,38
816 307 m 2,51,52
 816 363 816 363 781.5 397.5 c 128,-1,53
 747 432 747 432 686 432 c 0,54,55
 621 432 621 432 578.5 393.5 c 128,-1,56
 536 355 536 355 517 292 c 1,57,-1
 815 292 l 1,58,-1
 816 307 l 2,51,52
EndSplineSet
EndChar
StartChar: Scedilla
Encoding: 350 350 80
Width: 592
GlyphClass: 2
Flags: W
AnchorPoint: "Anchor-1" 379 668 basechar 0
LayerCount: 2
Fore
SplineSet
197.5 -175.5 m 128,-1,1
 176 -168 176 -168 152 -154 c 1,2,-1
 173 -121 l 1,3,4
 191 -132 191 -132 204.5 -137 c 128,-1,5
 218 -142 218 -142 235 -142 c 0,6,7
 255 -142 255 -142 270 -132 c 128,-1,8
 285 -122 285 -122 285 -105 c 0,9,10
 285 -91 285 -91 272 -83.5 c 128,-1,11
 259 -76 259 -76 240 -76 c 0,12,13
 230 -77 230 -77 219 -78 c 0,14,15
 208 -80 208 -80 202 -75.5 c 128,-1,16
 196 -71 196 -71 196 -64 c 0,17,18
 196 -56 196 -56 202 -50 c 2,19,-1
 236 -10 l 1,20,21
 157 -1 157 -1 100 40.5 c 128,-1,22
 43 82 43 82 27 151 c 1,23,-1
 113 180 l 1,24,25
 123 126 123 126 171.5 96.5 c 128,-1,26
 220 67 220 67 286 67 c 0,27,28
 355 67 355 67 402 100 c 128,-1,29
 449 133 449 133 449 191 c 0,30,31
 449 223 449 223 422 247.5 c 128,-1,32
 395 272 395 272 332 294 c 2,33,-1
 248 324 l 2,34,35
 185 346 185 346 145 385.5 c 128,-1,36
 105 425 105 425 105 483 c 0,37,38
 105 542 105 542 140 587 c 128,-1,39
 175 632 175 632 233 656 c 128,-1,40
 291 680 291 680 357 680 c 0,41,42
 436 680 436 680 497.5 646.5 c 128,-1,43
 559 613 559 613 584 549 c 1,44,-1
 498 520 l 1,45,46
 482 559 482 559 439 580 c 128,-1,47
 396 601 396 601 344 601 c 0,48,49
 285 601 285 601 241.5 572.5 c 128,-1,50
 198 544 198 544 198 494 c 0,51,52
 198 464 198 464 222 442 c 128,-1,53
 246 420 246 420 286 405 c 2,54,-1
 374 374 l 2,55,56
 453 345 453 345 498 306.5 c 128,-1,57
 543 268 543 268 543 204 c 0,58,59
 543 141 543 141 508 92.5 c 128,-1,60
 473 44 473 44 414 17 c 128,-1,61
 355 -10 355 -10 285 -12 c 1,62,-1
 258 -43 l 1,63,-1
 277 -42 l 2,64,65
 308 -42 308 -42 326.5 -56.5 c 128,-1,66
 345 -71 345 -71 345 -100 c 0,67,68
 345 -137 345 -137 316 -160 c 128,-1,69
 287 -183 287 -183 246 -183 c 0,70,0
 219 -183 219 -183 197.5 -175.5 c 128,-1,1
EndSplineSet
Substitution2: "'locl' Localized Forms in Latin lookup 4 subtable" uni0218
AlternateSubs2: "'aalt' Access All Alternates in Latin lookup 0 subtable" uni0218
EndChar
StartChar: scedilla
Encoding: 351 351 191
Width: 471
GlyphClass: 2
Flags: W
AnchorPoint: "Anchor-1" 282 496 basechar 0
LayerCount: 2
Fore
SplineSet
123.5 -175.5 m 128,-1,1
 102 -168 102 -168 78 -154 c 1,2,-1
 99 -121 l 1,3,4
 117 -132 117 -132 130.5 -137 c 128,-1,5
 144 -142 144 -142 161 -142 c 0,6,7
 181 -142 181 -142 196 -132 c 128,-1,8
 211 -122 211 -122 211 -105 c 0,9,10
 211 -91 211 -91 198 -83.5 c 128,-1,11
 185 -76 185 -76 166 -76 c 0,12,13
 156 -77 156 -77 145 -78 c 0,14,15
 134 -80 134 -80 128 -75.5 c 128,-1,16
 122 -71 122 -71 122 -64 c 0,17,18
 122 -56 122 -56 128 -50 c 2,19,-1
 165 -7 l 1,20,21
 109 4 109 4 66 35.5 c 128,-1,22
 23 67 23 67 9 115 c 1,23,-1
 91 144 l 1,24,25
 99 103 99 103 135 81 c 128,-1,26
 171 59 171 59 220 59 c 0,27,28
 268 59 268 59 301.5 80 c 128,-1,29
 335 101 335 101 335 139 c 0,30,31
 335 166 335 166 312 183.5 c 128,-1,32
 289 201 289 201 242 218 c 2,33,-1
 189 235 l 2,34,35
 130 256 130 256 100 285 c 128,-1,36
 70 314 70 314 70 357 c 0,37,38
 70 404 70 404 97 437.5 c 128,-1,39
 124 471 124 471 169 488.5 c 128,-1,40
 214 506 214 506 266 506 c 0,41,42
 329 506 329 506 380.5 479 c 128,-1,43
 432 452 432 452 449 402 c 1,44,-1
 370 372 l 1,45,46
 361 404 361 404 330 419.5 c 128,-1,47
 299 435 299 435 259 435 c 0,48,49
 215 435 215 435 183.5 419 c 128,-1,50
 152 403 152 403 152 369 c 0,51,52
 152 345 152 345 170 329.5 c 128,-1,53
 188 314 188 314 226 300 c 2,54,-1
 279 283 l 2,55,56
 349 258 349 258 383 228.5 c 128,-1,57
 417 199 417 199 417 153 c 0,58,59
 417 110 417 110 394.5 72.5 c 128,-1,60
 372 35 372 35 325.5 11.5 c 128,-1,61
 279 -12 279 -12 211 -12 c 1,62,-1
 184 -43 l 1,63,-1
 203 -42 l 2,64,65
 234 -42 234 -42 252.5 -56.5 c 128,-1,66
 271 -71 271 -71 271 -100 c 0,67,68
 271 -137 271 -137 242 -160 c 128,-1,69
 213 -183 213 -183 172 -183 c 0,70,0
 145 -183 145 -183 123.5 -175.5 c 128,-1,1
EndSplineSet
Substitution2: "'locl' Localized Forms in Latin lookup 4 subtable" uni0219
AlternateSubs2: "'aalt' Access All Alternates in Latin lookup 0 subtable" uni0219
EndChar
StartChar: uni0162
Encoding: 354 354 85
Width: 558
GlyphClass: 2
Flags: W
AnchorPoint: "Anchor-1" 369 668 basechar 0
LayerCount: 2
Fore
SplineSet
304 587 m 1,0,-1
 82 587 l 1,1,-1
 99 668 l 1,2,-1
 637 668 l 1,3,-1
 620 587 l 1,4,-1
 398 587 l 1,5,-1
 273 0 l 1,6,-1
 251 0 l 1,7,-1
 214 -43 l 1,8,-1
 233 -42 l 2,9,10
 264 -42 264 -42 282.5 -56.5 c 128,-1,11
 301 -71 301 -71 301 -100 c 0,12,13
 301 -137 301 -137 272 -160 c 128,-1,14
 243 -183 243 -183 202 -183 c 0,15,16
 175 -183 175 -183 153.5 -175.5 c 128,-1,17
 132 -168 132 -168 108 -154 c 1,18,-1
 129 -121 l 1,19,20
 147 -132 147 -132 160.5 -137 c 128,-1,21
 174 -142 174 -142 191 -142 c 0,22,23
 211 -142 211 -142 226 -132 c 128,-1,24
 241 -122 241 -122 241 -105 c 0,25,26
 241 -91 241 -91 228 -83.5 c 128,-1,27
 215 -76 215 -76 196 -76 c 0,28,29
 186 -77 186 -77 175 -78 c 0,30,31
 164 -80 164 -80 158 -75.5 c 128,-1,32
 152 -71 152 -71 152 -64 c 0,33,34
 152 -56 152 -56 158 -50 c 2,35,-1
 201 0 l 1,36,-1
 179 0 l 1,37,-1
 304 587 l 1,0,-1
EndSplineSet
Substitution2: "'locl' Localized Forms in Latin lookup 4 subtable" uni021A
AlternateSubs2: "'aalt' Access All Alternates in Latin lookup 0 subtable" uni021A
EndChar
StartChar: uni0163
Encoding: 355 355 196
Width: 326
GlyphClass: 2
Flags: W
AnchorPoint: "Anchor-3" 278 545 basechar 0
AnchorPoint: "Anchor-1" 216 496 basechar 0
LayerCount: 2
Fore
SplineSet
69.5 -175.5 m 128,-1,1
 48 -168 48 -168 24 -154 c 1,2,-1
 45 -121 l 1,3,4
 63 -132 63 -132 76.5 -137 c 128,-1,5
 90 -142 90 -142 107 -142 c 0,6,7
 127 -142 127 -142 142 -132 c 128,-1,8
 157 -122 157 -122 157 -105 c 0,9,10
 157 -91 157 -91 144 -83.5 c 128,-1,11
 131 -76 131 -76 112 -76 c 0,12,13
 102 -77 102 -77 91 -78 c 0,14,15
 80 -80 80 -80 74 -75.5 c 128,-1,16
 68 -71 68 -71 68 -64 c 0,17,18
 68 -56 68 -56 74 -50 c 2,19,-1
 124 9 l 1,20,21
 96 17 96 17 84 34.5 c 128,-1,22
 72 52 72 52 72 81 c 0,23,24
 72 99 72 99 79 136 c 2,25,-1
 142 429 l 1,26,-1
 58 429 l 1,27,-1
 73 496 l 1,28,-1
 157 496 l 1,29,-1
 183 620 l 1,30,-1
 267 620 l 1,31,-1
 241 496 l 1,32,-1
 344 496 l 1,33,-1
 329 429 l 1,34,-1
 226 429 l 1,35,-1
 165 144 l 2,36,37
 161 127 161 127 161 111 c 0,38,39
 161 91 161 91 174.5 82.5 c 128,-1,40
 188 74 188 74 224 74 c 2,41,-1
 254 74 l 1,42,-1
 238 0 l 1,43,-1
 209 0 l 2,44,45
 180 0 180 0 168 1 c 1,46,-1
 130 -43 l 1,47,-1
 149 -42 l 2,48,49
 180 -42 180 -42 198.5 -56.5 c 128,-1,50
 217 -71 217 -71 217 -100 c 0,51,52
 217 -137 217 -137 188 -160 c 128,-1,53
 159 -183 159 -183 118 -183 c 0,54,0
 91 -183 91 -183 69.5 -175.5 c 128,-1,1
EndSplineSet
Substitution2: "'locl' Localized Forms in Latin lookup 4 subtable" uni021B
AlternateSubs2: "'aalt' Access All Alternates in Latin lookup 0 subtable" uni021B
EndChar
StartChar: Uring
Encoding: 366 366 95
Width: 690
GlyphClass: 2
Flags: W
AnchorPoint: "Anchor-3" 757 668 basechar 0
AnchorPoint: "Anchor-2" 500 10 basechar 0
AnchorPoint: "Anchor-1" 481 888 basechar 0
AnchorPoint: "Anchor-0" 292 0 basechar 0
LayerCount: 2
Fore
SplineSet
76 201 m 0,1,2
 76 247 76 247 88 304 c 2,3,-1
 166 668 l 1,4,-1
 260 668 l 1,5,-1
 179 284 l 2,6,7
 170 244 170 244 170 210 c 0,8,9
 170 139 170 139 210.5 104 c 128,-1,10
 251 69 251 69 334 69 c 0,11,12
 411 69 411 69 456 114.5 c 128,-1,13
 501 160 501 160 521 254 c 2,14,-1
 609 668 l 1,15,-1
 703 668 l 1,16,-1
 614 251 l 2,17,18
 585 117 585 117 518 52.5 c 128,-1,19
 451 -12 451 -12 333 -12 c 0,20,0
 76 -12 76 -12 76 201 c 0,1,2
361 702.5 m 128,-1,22
 329 735 329 735 329 779 c 256,23,24
 329 823 329 823 361 855.5 c 128,-1,25
 393 888 393 888 438 888 c 256,26,27
 483 888 483 888 515 855.5 c 128,-1,28
 547 823 547 823 547 779 c 256,29,30
 547 735 547 735 515 702.5 c 128,-1,31
 483 670 483 670 438 670 c 256,32,21
 393 670 393 670 361 702.5 c 128,-1,22
475 743 m 128,-1,34
 490 758 490 758 490 779 c 256,35,36
 490 800 490 800 475 815 c 128,-1,37
 460 830 460 830 438 830 c 256,38,39
 416 830 416 830 401 815 c 128,-1,40
 386 800 386 800 386 779 c 256,41,42
 386 758 386 758 401 743 c 128,-1,43
 416 728 416 728 438 728 c 256,44,33
 460 728 460 728 475 743 c 128,-1,34
EndSplineSet
EndChar
StartChar: Uogonek
Encoding: 370 370 94
Width: 690
GlyphClass: 2
Flags: W
AnchorPoint: "Anchor-3" 757 668 basechar 0
AnchorPoint: "Anchor-1" 434 668 basechar 0
AnchorPoint: "Anchor-0" 292 0 basechar 0
LayerCount: 2
Fore
SplineSet
347.5 -153.5 m 128,-1,1
 321 -134 321 -134 321 -100 c 0,2,3
 321 -76 321 -76 333 -53 c 128,-1,4
 345 -30 345 -30 365 -11 c 1,5,-1
 330 -12 l 2,6,7
 227 -12 227 -12 151.5 32.5 c 128,-1,8
 76 77 76 77 76 203 c 0,9,10
 76 247 76 247 88 304 c 2,11,-1
 166 668 l 1,12,-1
 260 668 l 1,13,-1
 179 284 l 2,14,15
 170 244 170 244 170 210 c 0,16,17
 170 139 170 139 210.5 104 c 128,-1,18
 251 69 251 69 334 69 c 0,19,20
 411 69 411 69 456 114.5 c 128,-1,21
 501 160 501 160 521 254 c 2,22,-1
 609 668 l 1,23,-1
 703 668 l 1,24,-1
 614 251 l 2,25,26
 594 161 594 161 559.5 104 c 128,-1,27
 525 47 525 47 472 19 c 0,28,29
 442 4 442 4 418 -23 c 128,-1,30
 394 -50 394 -50 394 -76 c 0,31,32
 394 -115 394 -115 442 -115 c 0,33,34
 458 -115 458 -115 475 -110 c 1,35,-1
 462 -167 l 1,36,37
 435 -173 435 -173 413 -173 c 0,38,0
 374 -173 374 -173 347.5 -153.5 c 128,-1,1
EndSplineSet
EndChar
StartChar: uogonek
Encoding: 371 371 205
Width: 541
GlyphClass: 2
Flags: W
AnchorPoint: "Anchor-3" 558 496 basechar 0
AnchorPoint: "Anchor-1" 313 496 basechar 0
AnchorPoint: "Anchor-0" 207 0 basechar 0
LayerCount: 2
Fore
SplineSet
89 24.5 m 128,-1,1
 51 61 51 61 51 129 c 0,2,3
 51 158 51 158 58 189 c 2,4,-1
 123 496 l 1,5,-1
 207 496 l 1,6,-1
 144 203 l 2,7,8
 139 181 139 181 139 154 c 0,9,10
 139 110 139 110 160.5 86 c 128,-1,11
 182 62 182 62 223 62 c 0,12,13
 281 62 281 62 322 106.5 c 128,-1,14
 363 151 363 151 380 229 c 2,15,-1
 437 496 l 1,16,-1
 521 496 l 1,17,-1
 416 0 l 1,18,19
 372 -15 372 -15 342 -33.5 c 128,-1,20
 312 -52 312 -52 312 -79 c 0,21,22
 312 -98 312 -98 326.5 -106.5 c 128,-1,23
 341 -115 341 -115 361 -115 c 0,24,25
 375 -115 375 -115 393 -110 c 1,26,-1
 380 -167 l 1,27,28
 356 -173 356 -173 331 -173 c 0,29,30
 292 -173 292 -173 265.5 -153.5 c 128,-1,31
 239 -134 239 -134 239 -100 c 0,32,33
 239 -60 239 -60 269 -31 c 128,-1,34
 299 -2 299 -2 348 13 c 1,35,-1
 350 75 l 1,36,37
 324 37 324 37 281 12.5 c 128,-1,38
 238 -12 238 -12 186 -12 c 0,39,0
 127 -12 127 -12 89 24.5 c 128,-1,1
EndSplineSet
EndChar
StartChar: florin
Encoding: 402 402 295
Width: 326
GlyphClass: 1
Flags: W
LayerCount: 2
Fore
SplineSet
-62 -165 m 1,1,-1
 -46 -89 l 1,2,3
 -32 -93 -32 -93 -20 -93 c 0,4,5
 11 -93 11 -93 28 -75 c 128,-1,6
 45 -57 45 -57 53 -21 c 2,7,-1
 149 429 l 1,8,-1
 65 429 l 1,9,-1
 79 496 l 1,10,-1
 163 496 l 1,11,-1
 179 569 l 2,12,13
 191 624 191 624 207.5 652.5 c 128,-1,14
 224 681 224 681 255 693.5 c 128,-1,15
 286 706 286 706 341 706 c 2,16,-1
 394 706 l 1,17,-1
 379 635 l 1,18,-1
 327 635 l 2,19,20
 295 635 295 635 283 622.5 c 128,-1,21
 271 610 271 610 263 571 c 2,22,-1
 247 496 l 1,23,-1
 350 496 l 1,24,-1
 336 429 l 1,25,-1
 233 429 l 1,26,-1
 134 -36 l 2,27,28
 117 -113 117 -113 79 -143 c 128,-1,29
 41 -173 41 -173 -13 -173 c 0,30,0
 -38 -173 -38 -173 -62 -165 c 1,1,-1
EndSplineSet
EndChar
StartChar: uni0237
Encoding: 567 567 159
Width: 245
GlyphClass: 2
Flags: W
AnchorPoint: "Anchor-1" 182 496 basechar 0
AnchorPoint: "Anchor-0" 15 -251 basechar 0
LayerCount: 2
Fore
SplineSet
-132 -88 m 1,0,-1
 -60 -88 l 2,1,2
 -26 -88 -26 -88 -9.5 -82.5 c 128,-1,3
 7 -77 7 -77 15.5 -60.5 c 128,-1,4
 24 -44 24 -44 32 -7 c 2,5,-1
 140 496 l 1,6,-1
 224 496 l 1,7,-1
 113 -26 l 2,8,9
 100 -83 100 -83 82 -111.5 c 128,-1,10
 64 -140 64 -140 34.5 -151 c 128,-1,11
 5 -162 5 -162 -47 -162 c 2,12,-1
 -148 -162 l 1,13,-1
 -132 -88 l 1,0,-1
EndSplineSet
EndChar
StartChar: gravecomb
Encoding: 768 768 349
Width: 0
GlyphClass: 4
Flags: W
AnchorPoint: "Anchor-5" 264 707 basemark 0
AnchorPoint: "Anchor-5" 219 496 mark 0
AnchorPoint: "Anchor-1" 219 496 mark 0
LayerCount: 2
Fore
SplineSet
133 642.5 m 128,-1,1
 126 653 126 653 126 663 c 0,2,3
 126 679 126 679 137.5 692.5 c 128,-1,4
 149 706 149 706 168 706 c 0,5,6
 178 706 178 706 186 699 c 128,-1,7
 194 692 194 692 204 675 c 2,8,-1
 263 571 l 1,9,-1
 200 571 l 1,10,-1
 155 616 l 2,11,0
 140 632 140 632 133 642.5 c 128,-1,1
EndSplineSet
Substitution2: "Single Substitution lookup 13 subtable" gravecomb.case
Substitution2: "'case' Case-Sensitive Forms in Latin lookup 11 subtable" gravecomb.case
AlternateSubs2: "'aalt' Access All Alternates in Latin lookup 0 subtable" gravecomb.case
EndChar
StartChar: acutecomb
Encoding: 769 769 351
Width: 0
GlyphClass: 4
Flags: W
AnchorPoint: "Anchor-5" 168 707 basemark 0
AnchorPoint: "Anchor-5" 124 496 mark 0
AnchorPoint: "Anchor-1" 124 496 mark 0
LayerCount: 2
Fore
SplineSet
237 699 m 128,-1,1
 249 706 249 706 263 706 c 0,2,3
 278 706 278 706 287.5 698.5 c 128,-1,4
 297 691 297 691 297 678 c 0,5,6
 297 662 297 662 283.5 649 c 128,-1,7
 270 636 270 636 244 616 c 2,8,-1
 181 571 l 1,9,-1
 106 571 l 1,10,-1
 209 675 l 2,11,0
 225 692 225 692 237 699 c 128,-1,1
EndSplineSet
Substitution2: "Single Substitution lookup 13 subtable" acutecomb.case
Substitution2: "'case' Case-Sensitive Forms in Latin lookup 11 subtable" acutecomb.case
AlternateSubs2: "'aalt' Access All Alternates in Latin lookup 0 subtable" acutecomb.case
EndChar
StartChar: tildecomb
Encoding: 771 771 364
Width: 0
GlyphClass: 4
Flags: W
AnchorPoint: "Anchor-5" 294 681 basemark 0
AnchorPoint: "Anchor-5" 254 496 mark 0
AnchorPoint: "Anchor-1" 254 496 mark 0
LayerCount: 2
Fore
SplineSet
303.5 581.5 m 128,-1,1
 288 588 288 588 269 600 c 0,2,3
 253 609 253 609 243.5 613.5 c 128,-1,4
 234 618 234 618 222 618 c 0,5,6
 204 618 204 618 191 607.5 c 128,-1,7
 178 597 178 597 172 577 c 1,8,-1
 107 577 l 1,9,10
 147 681 147 681 233 681 c 0,11,12
 253 681 253 681 268 675 c 128,-1,13
 283 669 283 669 302 657 c 0,14,15
 316 647 316 647 326.5 642.5 c 128,-1,16
 337 638 337 638 350 638 c 0,17,18
 364 638 364 638 373.5 643.5 c 128,-1,19
 383 649 383 649 393 661 c 0,20,21
 408 680 408 680 426 680 c 0,22,23
 437 680 437 680 444 672.5 c 128,-1,24
 451 665 451 665 451 654 c 0,25,26
 451 642 451 642 436 623 c 128,-1,27
 421 604 421 604 395.5 589.5 c 128,-1,28
 370 575 370 575 340 575 c 0,29,0
 319 575 319 575 303.5 581.5 c 128,-1,1
EndSplineSet
Substitution2: "Single Substitution lookup 13 subtable" tildecomb.case
Substitution2: "'case' Case-Sensitive Forms in Latin lookup 11 subtable" tildecomb.case
AlternateSubs2: "'aalt' Access All Alternates in Latin lookup 0 subtable" tildecomb.case
EndChar
StartChar: uni0306
Encoding: 774 774 360
Width: 0
GlyphClass: 4
Flags: W
AnchorPoint: "Anchor-5" 274 689 basemark 0
AnchorPoint: "Anchor-5" 233 496 mark 0
AnchorPoint: "Anchor-1" 233 496 mark 0
LayerCount: 2
Fore
SplineSet
173.5 602 m 128,-1,1
 136 635 136 635 131 689 c 1,2,-1
 199 689 l 1,3,4
 205 666 205 666 223 651 c 128,-1,5
 241 636 241 636 272 636 c 0,6,7
 298 636 298 636 320.5 650.5 c 128,-1,8
 343 665 343 665 355 689 c 1,9,-1
 423 689 l 1,10,11
 407 635 407 635 362.5 602 c 128,-1,12
 318 569 318 569 262 569 c 0,13,0
 211 569 211 569 173.5 602 c 128,-1,1
EndSplineSet
Substitution2: "Single Substitution lookup 13 subtable" uni0306.case
Substitution2: "'case' Case-Sensitive Forms in Latin lookup 11 subtable" uni0306.case
AlternateSubs2: "'aalt' Access All Alternates in Latin lookup 0 subtable" uni0306.case
EndChar
StartChar: uni0307
Encoding: 775 775 346
Width: 0
GlyphClass: 4
Flags: W
AnchorPoint: "Anchor-5" 188 698 basemark 0
AnchorPoint: "Anchor-5" 145 496 mark 0
AnchorPoint: "Anchor-1" 145 496 mark 0
LayerCount: 2
Fore
SplineSet
138 606 m 128,-1,1
 122 622 122 622 122 644 c 0,2,3
 122 667 122 667 138 682.5 c 128,-1,4
 154 698 154 698 176 698 c 0,5,6
 199 698 199 698 214.5 682.5 c 128,-1,7
 230 667 230 667 230 644 c 0,8,9
 230 622 230 622 214.5 606 c 128,-1,10
 199 590 199 590 176 590 c 0,11,0
 154 590 154 590 138 606 c 128,-1,1
EndSplineSet
Substitution2: "Single Substitution lookup 13 subtable" uni0307.case
Substitution2: "'case' Case-Sensitive Forms in Latin lookup 11 subtable" uni0307.case
AlternateSubs2: "'aalt' Access All Alternates in Latin lookup 0 subtable" uni0307.case
EndChar
StartChar: uni0308
Encoding: 776 776 344
Width: 0
GlyphClass: 4
Flags: W
AnchorPoint: "Anchor-5" 277 698 basemark 0
AnchorPoint: "Anchor-5" 234 496 mark 0
AnchorPoint: "Anchor-1" 234 496 mark 0
LayerCount: 2
Fore
SplineSet
318 606 m 128,-1,1
 302 622 302 622 302 644 c 0,2,3
 302 667 302 667 318 682.5 c 128,-1,4
 334 698 334 698 356 698 c 0,5,6
 379 698 379 698 394.5 682.5 c 128,-1,7
 410 667 410 667 410 644 c 0,8,9
 410 622 410 622 394.5 606 c 128,-1,10
 379 590 379 590 356 590 c 0,11,0
 334 590 334 590 318 606 c 128,-1,1
138 606 m 128,-1,13
 122 622 122 622 122 644 c 0,14,15
 122 667 122 667 138 682.5 c 128,-1,16
 154 698 154 698 176 698 c 0,17,18
 199 698 199 698 214.5 682.5 c 128,-1,19
 230 667 230 667 230 644 c 0,20,21
 230 622 230 622 214.5 606 c 128,-1,22
 199 590 199 590 176 590 c 0,23,12
 154 590 154 590 138 606 c 128,-1,13
EndSplineSet
Substitution2: "Single Substitution lookup 13 subtable" uni0308.case
Substitution2: "'case' Case-Sensitive Forms in Latin lookup 11 subtable" uni0308.case
AlternateSubs2: "'aalt' Access All Alternates in Latin lookup 0 subtable" uni0308.case
EndChar
StartChar: uni030A
Encoding: 778 778 362
Width: 0
GlyphClass: 4
Flags: W
AnchorPoint: "Anchor-5" 270 773 basemark 0
AnchorPoint: "Anchor-5" 211 496 mark 0
AnchorPoint: "Anchor-1" 211 496 mark 0
LayerCount: 2
Fore
SplineSet
161 591 m 128,-1,1
 129 623 129 623 129 668 c 256,2,3
 129 713 129 713 161 745 c 128,-1,4
 193 777 193 777 238 777 c 256,5,6
 283 777 283 777 315 745 c 128,-1,7
 347 713 347 713 347 668 c 256,8,9
 347 623 347 623 315 591 c 128,-1,10
 283 559 283 559 238 559 c 256,11,0
 193 559 193 559 161 591 c 128,-1,1
275 631 m 128,-1,13
 290 646 290 646 290 668 c 256,14,15
 290 690 290 690 275 705 c 128,-1,16
 260 720 260 720 238 720 c 256,17,18
 216 720 216 720 201 705 c 128,-1,19
 186 690 186 690 186 668 c 256,20,21
 186 646 186 646 201 631 c 128,-1,22
 216 616 216 616 238 616 c 256,23,12
 260 616 260 616 275 631 c 128,-1,13
EndSplineSet
Substitution2: "Single Substitution lookup 13 subtable" uni030A.case
Substitution2: "'case' Case-Sensitive Forms in Latin lookup 11 subtable" uni030A.case
AlternateSubs2: "'aalt' Access All Alternates in Latin lookup 0 subtable" uni030A.case
EndChar
StartChar: uni030B
Encoding: 779 779 353
Width: 0
GlyphClass: 4
Flags: W
AnchorPoint: "Anchor-5" 341 706 basemark 0
AnchorPoint: "Anchor-5" 207 496 mark 0
AnchorPoint: "Anchor-1" 207 496 mark 0
LayerCount: 2
Fore
SplineSet
264 706 m 0,1,2
 277 706 277 706 285 699 c 128,-1,3
 293 692 293 692 293 680 c 0,4,5
 293 652 293 652 241 616 c 2,6,-1
 177 571 l 1,7,-1
 106 571 l 1,8,-1
 210 675 l 2,9,0
 240 706 240 706 264 706 c 0,1,2
418 706 m 0,11,12
 431 706 431 706 439 699 c 128,-1,13
 447 692 447 692 447 680 c 0,14,15
 447 664 447 664 433 648.5 c 128,-1,16
 419 633 419 633 395 616 c 2,17,-1
 331 571 l 1,18,-1
 260 571 l 1,19,-1
 364 675 l 2,20,10
 394 706 394 706 418 706 c 0,11,12
EndSplineSet
Substitution2: "Single Substitution lookup 13 subtable" uni030B.case
Substitution2: "'case' Case-Sensitive Forms in Latin lookup 11 subtable" uni030B.case
AlternateSubs2: "'aalt' Access All Alternates in Latin lookup 0 subtable" uni030B.case
EndChar
StartChar: uni030C
Encoding: 780 780 358
Width: 0
GlyphClass: 4
Flags: W
AnchorPoint: "Anchor-5" 293 689 basemark 0
AnchorPoint: "Anchor-5" 252 496 mark 0
AnchorPoint: "Anchor-1" 252 496 mark 0
LayerCount: 2
Fore
SplineSet
222 588 m 2,1,-1
 131 689 l 1,2,-1
 221 689 l 1,3,-1
 275 628 l 1,4,-1
 356 689 l 1,5,-1
 454 689 l 1,6,-1
 321 588 l 2,7,8
 296 569 296 569 268 569 c 0,9,0
 238 569 238 569 222 588 c 2,1,-1
EndSplineSet
Substitution2: "Single Substitution lookup 13 subtable" uni030C.case
Substitution2: "'case' Case-Sensitive Forms in Latin lookup 11 subtable" uni030C.case
AlternateSubs2: "'aalt' Access All Alternates in Latin lookup 0 subtable" uni030C.case
EndChar
StartChar: uni0312
Encoding: 786 786 368
Width: 0
GlyphClass: 4
Flags: W
AnchorPoint: "Anchor-5" 229 773 basemark 0
AnchorPoint: "Anchor-5" 154 496 mark 0
AnchorPoint: "Anchor-1" 154 496 mark 0
LayerCount: 2
Fore
SplineSet
136 615 m 128,-1,1
 126 635 126 635 126 656 c 0,2,3
 126 689 126 689 144 715.5 c 128,-1,4
 162 742 162 742 191 757 c 128,-1,5
 220 772 220 772 253 772 c 0,6,7
 260 772 260 772 276 770 c 1,8,-1
 312 731 l 1,9,10
 297 734 297 734 283 734 c 0,11,12
 244 734 244 734 218 714 c 128,-1,13
 192 694 192 694 192 659 c 0,14,15
 192 643 192 643 200.5 628 c 128,-1,16
 209 613 209 613 226 604 c 1,17,-1
 167 580 l 1,18,0
 146 595 146 595 136 615 c 128,-1,1
EndSplineSet
EndChar
StartChar: uni0326
Encoding: 806 806 369
Width: 0
GlyphClass: 4
Flags: W
AnchorPoint: "Anchor-4" 27 -250 basemark 0
AnchorPoint: "Anchor-4" 81 0 mark 0
AnchorPoint: "Anchor-0" 81 0 mark 0
LayerCount: 2
Fore
SplineSet
-35 -212 m 0,1,2
 6 -212 6 -212 33 -191.5 c 128,-1,3
 60 -171 60 -171 60 -134 c 0,4,5
 60 -119 60 -119 51.5 -104.5 c 128,-1,6
 43 -90 43 -90 26 -81 c 1,7,-1
 85 -56 l 1,8,9
 106 -71 106 -71 116 -91 c 128,-1,10
 126 -111 126 -111 126 -131 c 0,11,12
 126 -164 126 -164 108 -191.5 c 128,-1,13
 90 -219 90 -219 60.5 -234.5 c 128,-1,14
 31 -250 31 -250 -2 -250 c 0,15,16
 -10 -250 -10 -250 -24 -248 c 1,17,-1
 -60 -210 l 1,18,0
 -42 -212 -42 -212 -35 -212 c 0,1,2
EndSplineSet
EndChar
StartChar: uni0327
Encoding: 807 807 370
Width: 0
GlyphClass: 4
Flags: W
AnchorPoint: "Anchor-4" 36 -180 basemark 0
AnchorPoint: "Anchor-4" 75 0 mark 0
AnchorPoint: "Anchor-0" 75 0 mark 0
LayerCount: 2
Fore
SplineSet
-2.5 -175.5 m 128,-1,1
 -24 -168 -24 -168 -48 -154 c 1,2,-1
 -27 -121 l 1,3,4
 -9 -132 -9 -132 4.5 -137 c 128,-1,5
 18 -142 18 -142 35 -142 c 0,6,7
 55 -142 55 -142 70 -132 c 128,-1,8
 85 -122 85 -122 85 -105 c 0,9,10
 85 -91 85 -91 72 -83.5 c 128,-1,11
 59 -76 59 -76 40 -76 c 0,12,13
 30 -77 30 -77 19 -78 c 0,14,15
 8 -80 8 -80 2 -75.5 c 128,-1,16
 -4 -71 -4 -71 -4 -64 c 0,17,18
 -4 -56 -4 -56 2 -50 c 2,19,-1
 68 27 l 1,20,-1
 99 5 l 1,21,-1
 58 -43 l 1,22,-1
 77 -42 l 2,23,24
 108 -42 108 -42 126.5 -56.5 c 128,-1,25
 145 -71 145 -71 145 -100 c 0,26,27
 145 -137 145 -137 116 -160 c 128,-1,28
 87 -183 87 -183 46 -183 c 0,29,0
 19 -183 19 -183 -2.5 -175.5 c 128,-1,1
EndSplineSet
EndChar
StartChar: uni0328
Encoding: 808 808 371
Width: 0
GlyphClass: 4
Flags: W
AnchorPoint: "Anchor-2" 144 10 mark 0
LayerCount: 2
Fore
SplineSet
-8.5 -153.5 m 128,-1,1
 -35 -134 -35 -134 -35 -100 c 0,2,3
 -35 -57 -35 -57 -1.5 -27.5 c 128,-1,4
 32 2 32 2 86 16 c 1,5,-1
 142 0 l 1,6,7
 98 -15 98 -15 68 -33.5 c 128,-1,8
 38 -52 38 -52 38 -79 c 0,9,10
 38 -98 38 -98 52.5 -106.5 c 128,-1,11
 67 -115 67 -115 87 -115 c 0,12,13
 101 -115 101 -115 119 -110 c 1,14,-1
 106 -167 l 1,15,16
 82 -173 82 -173 57 -173 c 0,17,0
 18 -173 18 -173 -8.5 -153.5 c 128,-1,1
EndSplineSet
Substitution2: "Single Substitution lookup 13 subtable" uni0328.case
Substitution2: "'case' Case-Sensitive Forms in Latin lookup 11 subtable" uni0328.case
AlternateSubs2: "'aalt' Access All Alternates in Latin lookup 0 subtable" uni0328.case
EndChar
StartChar: uni03A9
Encoding: 937 937 226
Width: 681
GlyphClass: 1
Flags: W
LayerCount: 2
Fore
SplineSet
11 81 m 1,0,-1
 171 81 l 1,1,-1
 180 128 l 1,2,3
 131 157 131 157 102.5 219.5 c 128,-1,4
 74 282 74 282 74 353 c 0,5,6
 74 439 74 439 117 514.5 c 128,-1,7
 160 590 160 590 234.5 635 c 128,-1,8
 309 680 309 680 398 680 c 0,9,10
 475 680 475 680 536.5 644 c 128,-1,11
 598 608 598 608 632 547.5 c 128,-1,12
 666 487 666 487 666 417 c 0,13,14
 666 320 666 320 607 243 c 128,-1,15
 548 166 548 166 451 124 c 1,16,-1
 442 81 l 1,17,-1
 598 81 l 1,18,-1
 582 0 l 1,19,-1
 345 0 l 1,20,-1
 382 176 l 1,21,22
 474 199 474 199 532.5 263 c 128,-1,23
 591 327 591 327 591 412 c 0,24,25
 591 465 591 465 566 509.5 c 128,-1,26
 541 554 541 554 496 580 c 128,-1,27
 451 606 451 606 393 606 c 0,28,29
 326 606 326 606 270.5 572 c 128,-1,30
 215 538 215 538 183 481.5 c 128,-1,31
 151 425 151 425 151 360 c 256,32,33
 151 295 151 295 183.5 243 c 128,-1,34
 216 191 216 191 270 176 c 1,35,-1
 232 0 l 1,36,-1
 -5 0 l 1,37,-1
 11 81 l 1,0,-1
EndSplineSet
EndChar
StartChar: uni03BC
Encoding: 956 956 227
Width: 557
GlyphClass: 1
Flags: W
LayerCount: 2
Fore
SplineSet
125 496 m 1,0,-1
 209 496 l 1,1,-1
 147 205 l 2,2,3
 141 178 141 178 141 155 c 0,4,5
 141 110 141 110 163 86 c 128,-1,6
 185 62 185 62 227 62 c 0,7,8
 288 62 288 62 330 105.5 c 128,-1,9
 372 149 372 149 389 229 c 2,10,-1
 445 496 l 1,11,-1
 530 500 l 1,12,-1
 451 128 l 2,13,14
 447 106 447 106 447 101 c 0,15,16
 447 85 447 85 456 79.5 c 128,-1,17
 465 74 465 74 488 74 c 2,18,-1
 500 74 l 1,19,-1
 484 0 l 1,20,-1
 450 0 l 2,21,22
 395 0 395 0 376.5 18 c 128,-1,23
 358 36 358 36 360 73 c 1,24,25
 334 35 334 35 292 11.5 c 128,-1,26
 250 -12 250 -12 199 -12 c 0,27,28
 174 -12 174 -12 150 -2.5 c 128,-1,29
 126 7 126 7 109 26 c 1,30,-1
 69 -162 l 1,31,-1
 -15 -162 l 1,32,-1
 125 496 l 1,0,-1
EndSplineSet
EndChar
StartChar: pi
Encoding: 960 960 228
Width: 561
GlyphClass: 1
Flags: W
LayerCount: 2
Fore
SplineSet
133 414 m 1,0,-1
 55 414 l 1,1,-1
 73 496 l 1,2,-1
 579 496 l 1,3,-1
 561 414 l 1,4,-1
 478 414 l 1,5,-1
 420 145 l 2,6,7
 414 121 414 121 414 106 c 0,8,9
 414 88 414 88 424 81 c 128,-1,10
 434 74 434 74 459 74 c 2,11,-1
 489 74 l 1,12,-1
 473 0 l 1,13,-1
 450 0 l 2,14,15
 384 0 384 0 358 14.5 c 128,-1,16
 332 29 332 29 332 68 c 0,17,18
 332 94 332 94 339 125 c 2,19,-1
 401 414 l 1,20,-1
 208 414 l 1,21,-1
 121 0 l 1,22,-1
 44 0 l 1,23,-1
 133 414 l 1,0,-1
EndSplineSet
EndChar
StartChar: uni1E9E
Encoding: 7838 7838 82
Width: 659
GlyphClass: 1
Flags: W
LayerCount: 2
Fore
SplineSet
293 19 m 128,-1,1
 250 50 250 50 238 106 c 1,2,-1
 312 131 l 1,3,4
 319 99 319 99 343 81 c 128,-1,5
 367 63 367 63 404 63 c 0,6,7
 457 63 457 63 490 103.5 c 128,-1,8
 523 144 523 144 523 201 c 0,9,10
 523 245 523 245 496.5 268.5 c 128,-1,11
 470 292 470 292 428 292 c 0,12,13
 410 292 410 292 393 288 c 1,14,-1
 370 349 l 1,15,-1
 583 582 l 1,16,17
 473 606 473 606 391 606 c 0,18,19
 315 606 315 606 273 568 c 128,-1,20
 231 530 231 530 214 451 c 2,21,-1
 118 0 l 1,22,-1
 24 0 l 1,23,-1
 124 474 l 2,24,25
 146 576 146 576 207.5 628 c 128,-1,26
 269 680 269 680 384 680 c 0,27,28
 504 680 504 680 676 635 c 1,29,-1
 660 558 l 1,30,-1
 476 356 l 1,31,32
 536 349 536 349 574.5 309.5 c 128,-1,33
 613 270 613 270 613 204 c 0,34,35
 613 145 613 145 585.5 95.5 c 128,-1,36
 558 46 558 46 509.5 17 c 128,-1,37
 461 -12 461 -12 401 -12 c 0,38,0
 336 -12 336 -12 293 19 c 128,-1,1
EndSplineSet
EndChar
StartChar: endash
Encoding: 8211 8211 274
Width: 503
GlyphClass: 1
Flags: W
LayerCount: 2
Fore
SplineSet
62 287 m 1,0,-1
 459 287 l 1,1,-1
 441 208 l 1,2,-1
 44 208 l 1,3,-1
 62 287 l 1,0,-1
EndSplineSet
EndChar
StartChar: emdash
Encoding: 8212 8212 275
Width: 822
GlyphClass: 1
Flags: W
LayerCount: 2
Fore
SplineSet
62 287 m 1,0,-1
 777 287 l 1,1,-1
 761 208 l 1,2,-1
 44 208 l 1,3,-1
 62 287 l 1,0,-1
EndSplineSet
EndChar
StartChar: quoteleft
Encoding: 8216 8216 287
Width: 235
GlyphClass: 1
Flags: W
LayerCount: 2
Fore
SplineSet
122 436.5 m 128,-1,1
 103 455 103 455 103 481 c 0,2,3
 103 504 103 504 118 527 c 2,4,-1
 205 668 l 1,5,-1
 260 668 l 1,6,-1
 190 546 l 1,7,8
 210 538 210 538 221 522 c 128,-1,9
 232 506 232 506 232 484 c 0,10,11
 232 456 232 456 213 437 c 128,-1,12
 194 418 194 418 169 418 c 0,13,0
 141 418 141 418 122 436.5 c 128,-1,1
EndSplineSet
EndChar
StartChar: quoteright
Encoding: 8217 8217 288
Width: 236
GlyphClass: 1
Flags: W
LayerCount: 2
Fore
SplineSet
142 575 m 128,-1,1
 131 591 131 591 131 613 c 0,2,3
 131 641 131 641 150 660 c 128,-1,4
 169 679 169 679 194 679 c 0,5,6
 222 679 222 679 241 660.5 c 128,-1,7
 260 642 260 642 260 616 c 0,8,9
 260 593 260 593 245 570 c 2,10,-1
 158 429 l 1,11,-1
 103 429 l 1,12,-1
 173 551 l 1,13,0
 153 559 153 559 142 575 c 128,-1,1
EndSplineSet
EndChar
StartChar: quotesinglbase
Encoding: 8218 8218 283
Width: 236
GlyphClass: 1
Flags: W
LayerCount: 2
Fore
SplineSet
23 14 m 128,-1,1
 12 30 12 30 12 52 c 0,2,3
 12 80 12 80 31 99 c 128,-1,4
 50 118 50 118 75 118 c 0,5,6
 103 118 103 118 122 99.5 c 128,-1,7
 141 81 141 81 141 55 c 0,8,9
 141 32 141 32 126 9 c 2,10,-1
 39 -132 l 1,11,-1
 -16 -132 l 1,12,-1
 54 -10 l 1,13,0
 34 -2 34 -2 23 14 c 128,-1,1
EndSplineSet
EndChar
StartChar: quotedblleft
Encoding: 8220 8220 285
Width: 398
GlyphClass: 1
Flags: W
LayerCount: 2
Fore
SplineSet
285 436.5 m 128,-1,1
 266 455 266 455 266 481 c 0,2,3
 266 504 266 504 281 527 c 2,4,-1
 368 668 l 1,5,-1
 423 668 l 1,6,-1
 353 546 l 1,7,8
 373 538 373 538 384 522 c 128,-1,9
 395 506 395 506 395 484 c 0,10,11
 395 456 395 456 376 437 c 128,-1,12
 357 418 357 418 332 418 c 0,13,0
 304 418 304 418 285 436.5 c 128,-1,1
122 436.5 m 128,-1,15
 103 455 103 455 103 481 c 0,16,17
 103 504 103 504 118 527 c 2,18,-1
 205 668 l 1,19,-1
 260 668 l 1,20,-1
 190 546 l 1,21,22
 210 538 210 538 221 522 c 128,-1,23
 232 506 232 506 232 484 c 0,24,25
 232 456 232 456 213 437 c 128,-1,26
 194 418 194 418 169 418 c 0,27,14
 141 418 141 418 122 436.5 c 128,-1,15
EndSplineSet
EndChar
StartChar: quotedblright
Encoding: 8221 8221 286
Width: 398
GlyphClass: 1
Flags: W
LayerCount: 2
Fore
SplineSet
305 576 m 128,-1,1
 294 592 294 592 294 614 c 0,2,3
 294 642 294 642 313 661 c 128,-1,4
 332 680 332 680 357 680 c 0,5,6
 385 680 385 680 404 661.5 c 128,-1,7
 423 643 423 643 423 617 c 0,8,9
 423 594 423 594 408 571 c 2,10,-1
 321 430 l 1,11,-1
 266 430 l 1,12,-1
 336 552 l 1,13,0
 316 560 316 560 305 576 c 128,-1,1
142 576 m 128,-1,15
 131 592 131 592 131 614 c 0,16,17
 131 642 131 642 150 661 c 128,-1,18
 169 680 169 680 194 680 c 0,19,20
 222 680 222 680 241 661.5 c 128,-1,21
 260 643 260 643 260 617 c 0,22,23
 260 594 260 594 245 571 c 2,24,-1
 158 430 l 1,25,-1
 103 430 l 1,26,-1
 173 552 l 1,27,14
 153 560 153 560 142 576 c 128,-1,15
EndSplineSet
EndChar
StartChar: quotedblbase
Encoding: 8222 8222 284
Width: 399
GlyphClass: 1
Flags: W
LayerCount: 2
Fore
SplineSet
186 14 m 128,-1,1
 175 30 175 30 175 52 c 0,2,3
 175 80 175 80 194 99 c 128,-1,4
 213 118 213 118 238 118 c 0,5,6
 266 118 266 118 285 99.5 c 128,-1,7
 304 81 304 81 304 55 c 0,8,9
 304 32 304 32 289 9 c 2,10,-1
 202 -132 l 1,11,-1
 147 -132 l 1,12,-1
 217 -10 l 1,13,0
 197 -2 197 -2 186 14 c 128,-1,1
23 14 m 128,-1,15
 12 30 12 30 12 52 c 0,16,17
 12 80 12 80 31 99 c 128,-1,18
 50 118 50 118 75 118 c 0,19,20
 103 118 103 118 122 99.5 c 128,-1,21
 141 81 141 81 141 55 c 0,22,23
 141 32 141 32 126 9 c 2,24,-1
 39 -132 l 1,25,-1
 -16 -132 l 1,26,-1
 54 -10 l 1,27,14
 34 -2 34 -2 23 14 c 128,-1,15
EndSplineSet
EndChar
StartChar: daggerdbl
Encoding: 8225 8225 309
Width: 541
GlyphClass: 1
Flags: W
LayerCount: 2
Fore
SplineSet
215 172 m 1,0,-1
 25 172 l 1,1,-1
 41 251 l 1,2,-1
 231 251 l 1,3,-1
 266 416 l 1,4,-1
 76 416 l 1,5,-1
 93 496 l 1,6,-1
 283 496 l 1,7,-1
 320 668 l 1,8,-1
 401 668 l 1,9,-1
 364 496 l 1,10,-1
 554 496 l 1,11,-1
 537 416 l 1,12,-1
 347 416 l 1,13,-1
 312 251 l 1,14,-1
 502 251 l 1,15,-1
 486 172 l 1,16,-1
 296 172 l 1,17,-1
 259 0 l 1,18,-1
 178 0 l 1,19,-1
 215 172 l 1,0,-1
EndSplineSet
EndChar
StartChar: perthousand
Encoding: 8240 8240 342
Width: 1367
GlyphClass: 1
Flags: W
LayerCount: 2
Fore
SplineSet
758 668 m 1,0,-1
 850 668 l 1,1,-1
 241 0 l 1,2,-1
 149 0 l 1,3,-1
 758 668 l 1,0,-1
183.5 340.5 m 128,-1,5
 142 365 142 365 117.5 406.5 c 128,-1,6
 93 448 93 448 93 498 c 256,7,8
 93 548 93 548 117.5 589.5 c 128,-1,9
 142 631 142 631 183.5 655.5 c 128,-1,10
 225 680 225 680 275 680 c 256,11,12
 325 680 325 680 366.5 655.5 c 128,-1,13
 408 631 408 631 432.5 589.5 c 128,-1,14
 457 548 457 548 457 498 c 256,15,16
 457 448 457 448 432.5 406.5 c 128,-1,17
 408 365 408 365 366.5 340.5 c 128,-1,18
 325 316 325 316 275 316 c 256,19,4
 225 316 225 316 183.5 340.5 c 128,-1,5
351.5 421.5 m 128,-1,21
 383 453 383 453 383 498 c 256,22,23
 383 543 383 543 351.5 574.5 c 128,-1,24
 320 606 320 606 275 606 c 256,25,26
 230 606 230 606 198.5 574.5 c 128,-1,27
 167 543 167 543 167 498 c 256,28,29
 167 453 167 453 198.5 421.5 c 128,-1,30
 230 390 230 390 275 390 c 256,31,20
 320 390 320 390 351.5 421.5 c 128,-1,21
633.5 12.5 m 128,-1,33
 592 37 592 37 567.5 78.5 c 128,-1,34
 543 120 543 120 543 170 c 256,35,36
 543 220 543 220 567.5 261.5 c 128,-1,37
 592 303 592 303 633.5 327.5 c 128,-1,38
 675 352 675 352 725 352 c 256,39,40
 775 352 775 352 816.5 327.5 c 128,-1,41
 858 303 858 303 882.5 261.5 c 128,-1,42
 907 220 907 220 907 170 c 256,43,44
 907 120 907 120 882.5 78.5 c 128,-1,45
 858 37 858 37 816.5 12.5 c 128,-1,46
 775 -12 775 -12 725 -12 c 256,47,32
 675 -12 675 -12 633.5 12.5 c 128,-1,33
801.5 93.5 m 128,-1,49
 833 125 833 125 833 170 c 256,50,51
 833 215 833 215 801.5 246.5 c 128,-1,52
 770 278 770 278 725 278 c 256,53,54
 680 278 680 278 648.5 246.5 c 128,-1,55
 617 215 617 215 617 170 c 256,56,57
 617 125 617 125 648.5 93.5 c 128,-1,58
 680 62 680 62 725 62 c 256,59,48
 770 62 770 62 801.5 93.5 c 128,-1,49
1036.5 12.5 m 128,-1,61
 995 37 995 37 970.5 78.5 c 128,-1,62
 946 120 946 120 946 170 c 256,63,64
 946 220 946 220 970.5 261.5 c 128,-1,65
 995 303 995 303 1036.5 327.5 c 128,-1,66
 1078 352 1078 352 1128 352 c 256,67,68
 1178 352 1178 352 1219.5 327.5 c 128,-1,69
 1261 303 1261 303 1285.5 261.5 c 128,-1,70
 1310 220 1310 220 1310 170 c 256,71,72
 1310 120 1310 120 1285.5 78.5 c 128,-1,73
 1261 37 1261 37 1219.5 12.5 c 128,-1,74
 1178 -12 1178 -12 1128 -12 c 256,75,60
 1078 -12 1078 -12 1036.5 12.5 c 128,-1,61
1204.5 93.5 m 128,-1,77
 1236 125 1236 125 1236 170 c 256,78,79
 1236 215 1236 215 1204.5 246.5 c 128,-1,80
 1173 278 1173 278 1128 278 c 256,81,82
 1083 278 1083 278 1051.5 246.5 c 128,-1,83
 1020 215 1020 215 1020 170 c 256,84,85
 1020 125 1020 125 1051.5 93.5 c 128,-1,86
 1083 62 1083 62 1128 62 c 256,87,76
 1173 62 1173 62 1204.5 93.5 c 128,-1,77
EndSplineSet
EndChar
StartChar: guilsinglright
Encoding: 8250 8250 292
Width: 353
GlyphClass: 1
Flags: W
LayerCount: 2
Fore
SplineSet
206 256 m 1,0,-1
 100 460 l 1,1,-1
 188 460 l 1,2,-1
 298 250 l 1,3,-1
 108 40 l 1,4,-1
 10 40 l 1,5,-1
 206 256 l 1,0,-1
EndSplineSet
EndChar
StartChar: Euro
Encoding: 8364 8364 314
Width: 664
GlyphClass: 1
Flags: W
LayerCount: 2
Fore
SplineSet
176 57 m 128,-1,1
 113 126 113 126 110 240 c 1,2,-1
 13 240 l 1,3,-1
 50 291 l 1,4,-1
 112 291 l 1,5,6
 115 339 115 339 126 377 c 1,7,-1
 42 377 l 1,8,-1
 79 428 l 1,9,-1
 141 428 l 1,10,11
 180 538 180 538 258.5 609 c 128,-1,12
 337 680 337 680 449 680 c 0,13,14
 528 680 528 680 587.5 640.5 c 128,-1,15
 647 601 647 601 670 525 c 1,16,-1
 593 499 l 1,17,18
 576 553 576 553 536 577 c 128,-1,19
 496 601 496 601 436 601 c 0,20,21
 360 601 360 601 308 553 c 128,-1,22
 256 505 256 505 227 428 c 1,23,-1
 490 428 l 1,24,-1
 453 377 l 1,25,-1
 211 377 l 1,26,27
 200 329 200 329 197 291 c 1,28,-1
 393 291 l 1,29,-1
 356 240 l 1,30,-1
 197 240 l 1,31,32
 202 161 202 161 243 114 c 128,-1,33
 284 67 284 67 361 67 c 0,34,35
 417 67 417 67 461.5 89 c 128,-1,36
 506 111 506 111 536 164 c 1,37,-1
 613 133 l 1,38,39
 566 56 566 56 498 22 c 128,-1,40
 430 -12 430 -12 356 -12 c 0,41,0
 239 -12 239 -12 176 57 c 128,-1,1
EndSplineSet
EndChar
StartChar: uni20B9
Encoding: 8377 8377 315
Width: 554
GlyphClass: 1
Flags: W
LayerCount: 2
Fore
SplineSet
81 290 m 1,0,-1
 92 342 l 1,1,-1
 203 342 l 2,2,3
 339 342 339 342 362 442 c 1,4,-1
 113 442 l 1,5,-1
 124 493 l 1,6,-1
 366 493 l 1,7,8
 362 539 362 539 323.5 566 c 128,-1,9
 285 593 285 593 219 593 c 2,10,-1
 145 593 l 1,11,-1
 161 668 l 1,12,-1
 588 668 l 1,13,-1
 578 617 l 1,14,-1
 379 617 l 1,15,16
 451 572 451 572 454 493 c 1,17,-1
 551 493 l 1,18,-1
 540 442 l 1,19,-1
 450 442 l 1,20,21
 434 361 434 361 368.5 315 c 128,-1,22
 303 269 303 269 206 269 c 1,23,-1
 438 0 l 1,24,-1
 330 0 l 1,25,-1
 81 290 l 1,0,-1
EndSplineSet
EndChar
StartChar: uni2113
Encoding: 8467 8467 308
Width: 450
GlyphClass: 1
Flags: W
LayerCount: 2
Fore
SplineSet
127.5 16.5 m 128,-1,1
 96 45 96 45 96 102 c 0,2,3
 96 138 96 138 108 186 c 2,4,-1
 109 190 l 1,5,-1
 31 140 l 1,6,-1
 46 213 l 1,7,-1
 124 264 l 1,8,-1
 177 517 l 2,9,10
 194 596 194 596 233 638 c 128,-1,11
 272 680 272 680 331 680 c 0,12,13
 386 680 386 680 416 650 c 128,-1,14
 446 620 446 620 446 568 c 0,15,16
 446 472 446 472 379.5 396 c 128,-1,17
 313 320 313 320 201 247 c 1,18,-1
 184 159 l 2,19,20
 180 135 180 135 180 122 c 0,21,22
 180 61 180 61 239 61 c 0,23,24
 279 61 279 61 325 91 c 1,25,-1
 349 29 l 1,26,27
 324 10 324 10 289 -1 c 128,-1,28
 254 -12 254 -12 225 -12 c 0,29,0
 159 -12 159 -12 127.5 16.5 c 128,-1,1
331.5 434.5 m 128,-1,31
 375 497 375 497 375 556 c 0,32,33
 375 582 375 582 362.5 596 c 128,-1,34
 350 610 350 610 330 610 c 0,35,36
 280 610 280 610 260 523 c 2,37,-1
 218 326 l 1,38,30
 288 372 288 372 331.5 434.5 c 128,-1,31
EndSplineSet
EndChar
StartChar: trademark
Encoding: 8482 8482 303
Width: 875
GlyphClass: 1
Flags: W
LayerCount: 2
Fore
SplineSet
484 668 m 1,0,-1
 590 668 l 1,1,-1
 623 388 l 1,2,-1
 776 668 l 1,3,-1
 886 668 l 1,4,-1
 808 303 l 1,5,-1
 741 303 l 1,6,-1
 801 586 l 1,7,-1
 643 303 l 1,8,-1
 571 303 l 1,9,-1
 533 586 l 1,10,-1
 473 303 l 1,11,-1
 406 303 l 1,12,-1
 484 668 l 1,0,-1
239 608 m 1,13,-1
 121 608 l 1,14,-1
 134 668 l 1,15,-1
 437 668 l 1,16,-1
 424 608 l 1,17,-1
 306 608 l 1,18,-1
 241 303 l 1,19,-1
 174 303 l 1,20,-1
 239 608 l 1,13,-1
EndSplineSet
EndChar
StartChar: estimated
Encoding: 8494 8494 310
Width: 623
GlyphClass: 1
Flags: W
LayerCount: 2
Fore
SplineSet
191 19 m 128,-1,1
 132 50 132 50 94 111 c 128,-1,2
 56 172 56 172 56 256 c 0,3,4
 56 316 56 316 89 373.5 c 128,-1,5
 122 431 122 431 181 467.5 c 128,-1,6
 240 504 240 504 314 504 c 0,7,8
 384 504 384 504 443 469.5 c 128,-1,9
 502 435 502 435 537 376 c 128,-1,10
 572 317 572 317 572 248 c 1,11,-1
 162 248 l 1,12,-1
 162 78 l 1,13,14
 193 50 193 50 232 35 c 128,-1,15
 271 20 271 20 314 20 c 0,16,17
 364 20 364 20 408.5 40.5 c 128,-1,18
 453 61 453 61 484 97 c 1,19,-1
 517 87 l 1,20,21
 481 41 481 41 428 14.5 c 128,-1,22
 375 -12 375 -12 314 -12 c 0,23,0
 250 -12 250 -12 191 19 c 128,-1,1
466 279 m 1,24,-1
 466 413 l 1,25,26
 436 441 436 441 396.5 456.5 c 128,-1,27
 357 472 357 472 314 472 c 0,28,29
 270 472 270 472 231 456.5 c 128,-1,30
 192 441 192 441 162 413 c 1,31,-1
 162 279 l 1,32,-1
 466 279 l 1,24,-1
EndSplineSet
EndChar
StartChar: partialdiff
Encoding: 8706 8706 340
Width: 585
GlyphClass: 1
Flags: W
LayerCount: 2
Fore
SplineSet
152 14 m 128,-1,1
 104 40 104 40 77.5 87 c 128,-1,2
 51 134 51 134 51 197 c 0,3,4
 51 272 51 272 83 338 c 128,-1,5
 115 404 115 404 173.5 444 c 128,-1,6
 232 484 232 484 307 484 c 0,7,8
 370 484 370 484 415.5 454 c 128,-1,9
 461 424 461 424 474 368 c 1,10,11
 477 441 477 441 443 493.5 c 128,-1,12
 409 546 409 546 347 573.5 c 128,-1,13
 285 601 285 601 207 603 c 1,14,-1
 223 680 l 1,15,16
 386 664 386 664 466 588.5 c 128,-1,17
 546 513 546 513 546 384 c 0,18,19
 546 294 546 294 519 203.5 c 128,-1,20
 492 113 492 113 428.5 50.5 c 128,-1,21
 365 -12 365 -12 263 -12 c 0,22,0
 200 -12 200 -12 152 14 c 128,-1,1
363.5 95 m 128,-1,24
 402 129 402 129 420 178.5 c 128,-1,25
 438 228 438 228 438 272 c 0,26,27
 438 333 438 333 404.5 371.5 c 128,-1,28
 371 410 371 410 311 410 c 0,29,30
 256 410 256 410 217.5 378 c 128,-1,31
 179 346 179 346 159.5 297.5 c 128,-1,32
 140 249 140 249 140 201 c 0,33,34
 140 140 140 140 173.5 100.5 c 128,-1,35
 207 61 207 61 267 61 c 0,36,23
 325 61 325 61 363.5 95 c 128,-1,24
EndSplineSet
EndChar
StartChar: minus
Encoding: 8722 8722 321
Width: 606
GlyphClass: 1
Flags: W
LayerCount: 2
Fore
SplineSet
64 288 m 1,0,-1
 560 288 l 1,1,-1
 542 208 l 1,2,-1
 46 208 l 1,3,-1
 64 288 l 1,0,-1
EndSplineSet
EndChar
StartChar: uni2215
Encoding: 8725 8725 319
Width: 598
GlyphClass: 1
Flags: W
LayerCount: 2
Fore
SplineSet
562 668 m 1,0,-1
 672 668 l 1,1,-1
 72 0 l 1,2,-1
 -38 0 l 1,3,-1
 562 668 l 1,0,-1
EndSplineSet
EndChar
StartChar: radical
Encoding: 8730 8730 339
Width: 588
GlyphClass: 1
Flags: W
LayerCount: 2
Fore
SplineSet
139 145 m 1,0,-1
 33 145 l 1,1,-1
 50 225 l 1,2,-1
 209 225 l 1,3,-1
 256 -35 l 1,4,-1
 527 668 l 1,5,-1
 620 668 l 1,6,-1
 293 -162 l 1,7,-1
 194 -162 l 1,8,-1
 139 145 l 1,0,-1
EndSplineSet
EndChar
StartChar: infinity
Encoding: 8734 8734 335
Width: 774
GlyphClass: 1
Flags: W
LayerCount: 2
Fore
SplineSet
127 121.5 m 128,-1,1
 94 139 94 139 74.5 170.5 c 128,-1,2
 55 202 55 202 55 240 c 0,3,4
 55 284 55 284 78 322.5 c 128,-1,5
 101 361 101 361 142 384.5 c 128,-1,6
 183 408 183 408 234 408 c 0,7,8
 332 408 332 408 396 310 c 1,9,10
 446 361 446 361 489 384.5 c 128,-1,11
 532 408 532 408 578 408 c 0,12,13
 618 408 618 408 651 390.5 c 128,-1,14
 684 373 684 373 703.5 341.5 c 128,-1,15
 723 310 723 310 723 272 c 0,16,17
 723 228 723 228 700 189.5 c 128,-1,18
 677 151 677 151 636 127.5 c 128,-1,19
 595 104 595 104 544 104 c 0,20,21
 446 104 446 104 382 202 c 1,22,23
 332 151 332 151 289 127.5 c 128,-1,24
 246 104 246 104 200 104 c 0,25,0
 160 104 160 104 127 121.5 c 128,-1,1
274 198 m 128,-1,27
 305 216 305 216 346 259 c 1,28,29
 324 294 324 294 297.5 313 c 128,-1,30
 271 332 271 332 235 332 c 0,31,32
 191 332 191 332 163.5 307.5 c 128,-1,33
 136 283 136 283 136 246 c 0,34,35
 136 216 136 216 157 198 c 128,-1,36
 178 180 178 180 209 180 c 0,37,26
 243 180 243 180 274 198 c 128,-1,27
614.5 204.5 m 128,-1,39
 642 229 642 229 642 266 c 0,40,41
 642 296 642 296 621 314 c 128,-1,42
 600 332 600 332 569 332 c 0,43,44
 535 332 535 332 504 314 c 128,-1,45
 473 296 473 296 432 253 c 1,46,47
 454 218 454 218 480.5 199 c 128,-1,48
 507 180 507 180 543 180 c 0,49,38
 587 180 587 180 614.5 204.5 c 128,-1,39
EndSplineSet
EndChar
StartChar: integral
Encoding: 8747 8747 336
Width: 458
GlyphClass: 1
Flags: W
LayerCount: 2
Fore
SplineSet
-0.5 -157.5 m 128,-1,1
 -26 -142 -26 -142 -26 -112 c 0,2,3
 -26 -91 -26 -91 -10.5 -75 c 128,-1,4
 5 -59 5 -59 29 -59 c 0,5,6
 50 -59 50 -59 63.5 -71 c 128,-1,7
 77 -83 77 -83 77 -102 c 0,8,9
 77 -108 77 -108 74.5 -115.5 c 128,-1,10
 72 -123 72 -123 69 -129 c 1,11,12
 104 -123 104 -123 122 -37 c 2,13,-1
 239 487 l 2,14,15
 263 595 263 595 304 638 c 128,-1,16
 345 681 345 681 401 681 c 0,17,18
 435 681 435 681 461 665.5 c 128,-1,19
 487 650 487 650 487 620 c 0,20,21
 487 600 487 600 471.5 584 c 128,-1,22
 456 568 456 568 431 568 c 0,23,24
 410 568 410 568 396.5 579.5 c 128,-1,25
 383 591 383 591 383 610 c 0,26,27
 383 616 383 616 385 624 c 128,-1,28
 387 632 387 632 391 638 c 1,29,30
 373 634 373 634 360 612 c 128,-1,31
 347 590 347 590 337 545 c 2,32,-1
 221 21 l 2,33,34
 197 -87 197 -87 156 -130 c 128,-1,35
 115 -173 115 -173 60 -173 c 0,36,0
 25 -173 25 -173 -0.5 -157.5 c 128,-1,1
EndSplineSet
EndChar
StartChar: approxequal
Encoding: 8776 8776 331
Width: 554
GlyphClass: 1
Flags: W
LayerCount: 2
Fore
SplineSet
65.5 196.5 m 128,-1,1
 102 230 102 230 157 230 c 0,2,3
 186 230 186 230 211 221 c 128,-1,4
 236 212 236 212 268 196 c 0,5,6
 298 181 298 181 318.5 174 c 128,-1,7
 339 167 339 167 360 167 c 0,8,9
 391 167 391 167 410.5 183.5 c 128,-1,10
 430 200 430 200 440 235 c 1,11,-1
 505 214 l 1,12,13
 487 155 487 155 450.5 121.5 c 128,-1,14
 414 88 414 88 359 88 c 0,15,16
 330 88 330 88 305 97 c 128,-1,17
 280 106 280 106 248 122 c 0,18,19
 218 137 218 137 197.5 144 c 128,-1,20
 177 151 177 151 156 151 c 0,21,22
 125 151 125 151 105.5 134.5 c 128,-1,23
 86 118 86 118 76 83 c 1,24,-1
 11 104 l 1,25,0
 29 163 29 163 65.5 196.5 c 128,-1,1
106.5 389.5 m 128,-1,27
 143 423 143 423 198 423 c 0,28,29
 227 423 227 423 252 414 c 128,-1,30
 277 405 277 405 309 389 c 0,31,32
 339 374 339 374 359.5 367 c 128,-1,33
 380 360 380 360 401 360 c 0,34,35
 432 360 432 360 451.5 376.5 c 128,-1,36
 471 393 471 393 481 428 c 1,37,-1
 546 407 l 1,38,39
 528 348 528 348 491.5 314.5 c 128,-1,40
 455 281 455 281 400 281 c 0,41,42
 371 281 371 281 346 290 c 128,-1,43
 321 299 321 299 289 315 c 0,44,45
 259 330 259 330 238.5 337 c 128,-1,46
 218 344 218 344 197 344 c 0,47,48
 166 344 166 344 146.5 327.5 c 128,-1,49
 127 311 127 311 117 276 c 1,50,-1
 52 297 l 1,51,26
 70 356 70 356 106.5 389.5 c 128,-1,27
EndSplineSet
EndChar
StartChar: notequal
Encoding: 8800 8800 325
Width: 628
GlyphClass: 1
Flags: W
LayerCount: 2
Fore
SplineSet
151 121 m 1,0,-1
 39 121 l 1,1,-1
 56 200 l 1,2,-1
 223 200 l 1,3,-1
 318 307 l 1,4,-1
 79 307 l 1,5,-1
 95 386 l 1,6,-1
 389 386 l 1,7,-1
 488 496 l 1,8,-1
 590 496 l 1,9,-1
 491 386 l 1,10,-1
 591 386 l 1,11,-1
 574 307 l 1,12,-1
 420 307 l 1,13,-1
 325 200 l 1,14,-1
 552 200 l 1,15,-1
 535 121 l 1,16,-1
 253 121 l 1,17,-1
 144 0 l 1,18,-1
 42 0 l 1,19,-1
 151 121 l 1,0,-1
EndSplineSet
EndChar
StartChar: lessequal
Encoding: 8804 8804 329
Width: 579
GlyphClass: 1
Flags: W
LayerCount: 2
Fore
SplineSet
56 264 m 1,0,-1
 73 342 l 1,1,-1
 577 492 l 1,2,-1
 558 402 l 1,3,-1
 178 299 l 1,4,-1
 515 196 l 1,5,-1
 498 114 l 1,6,-1
 56 264 l 1,0,-1
18 80 m 1,7,-1
 490 80 l 1,8,-1
 473 0 l 1,9,-1
 1 0 l 1,10,-1
 18 80 l 1,7,-1
EndSplineSet
EndChar
StartChar: greaterequal
Encoding: 8805 8805 328
Width: 579
GlyphClass: 1
Flags: W
LayerCount: 2
Fore
SplineSet
45 204 m 1,0,-1
 423 307 l 1,1,-1
 88 410 l 1,2,-1
 105 492 l 1,3,-1
 546 342 l 1,4,-1
 529 264 l 1,5,-1
 25 114 l 1,6,-1
 45 204 l 1,0,-1
18 80 m 1,7,-1
 490 80 l 1,8,-1
 473 0 l 1,9,-1
 1 0 l 1,10,-1
 18 80 l 1,7,-1
EndSplineSet
EndChar
StartChar: lozenge
Encoding: 9674 9674 343
Width: 561
GlyphClass: 1
Flags: W
LayerCount: 2
Fore
SplineSet
67 315 m 1,0,-1
 377 704 l 1,1,-1
 522 315 l 1,2,-1
 212 -74 l 1,3,-1
 67 315 l 1,0,-1
435 323 m 1,4,-1
 350 551 l 1,5,-1
 155 307 l 1,6,-1
 240 79 l 1,7,-1
 435 323 l 1,4,-1
EndSplineSet
EndChar
StartChar: musicalnote
Encoding: 9834 9834 296
Width: 632
GlyphClass: 1
Flags: W
LayerCount: 2
Fore
SplineSet
125 21 m 128,-1,1
 95 52 95 52 95 96 c 256,2,3
 95 140 95 140 126 171 c 128,-1,4
 157 202 157 202 201 202 c 0,5,6
 235 202 235 202 262 183 c 1,7,-1
 262 668 l 1,8,-1
 307 668 l 1,9,10
 310 637 310 637 325 612 c 128,-1,11
 340 587 340 587 362 566.5 c 128,-1,12
 384 546 384 546 429 510 c 0,13,14
 485 465 485 465 516 424 c 128,-1,15
 547 383 547 383 547 328 c 0,16,17
 547 279 547 279 498 212 c 1,18,-1
 493 214 l 1,19,20
 480 295 480 295 430.5 349 c 128,-1,21
 381 403 381 403 307 430 c 1,22,-1
 307 116 l 2,23,24
 307 56 307 56 276.5 23 c 128,-1,25
 246 -10 246 -10 198 -10 c 0,26,0
 155 -10 155 -10 125 21 c 128,-1,1
EndSplineSet
EndChar
StartChar: acutecomb.case
Encoding: 65553 -1 352
Width: 0
GlyphClass: 4
Flags: W
AnchorPoint: "Anchor-5" 206 864 basemark 0
AnchorPoint: "Anchor-5" 164 668 mark 0
AnchorPoint: "Anchor-1" 164 668 mark 0
LayerCount: 2
Fore
SplineSet
305 863 m 0,1,2
 320 863 320 863 329.5 856 c 128,-1,3
 339 849 339 849 339 836 c 0,4,5
 339 818 339 818 326 805.5 c 128,-1,6
 313 793 313 793 288 779 c 2,7,-1
 224 744 l 1,8,-1
 142 744 l 1,9,-1
 253 838 l 2,10,0
 283 863 283 863 305 863 c 0,1,2
EndSplineSet
EndChar
StartChar: gravecomb.case
Encoding: 65552 -1 350
Width: 0
GlyphClass: 4
Flags: W
AnchorPoint: "Anchor-5" 303 864 basemark 0
AnchorPoint: "Anchor-5" 261 668 mark 0
AnchorPoint: "Anchor-1" 261 668 mark 0
LayerCount: 2
Fore
SplineSet
167 802 m 128,-1,1
 160 812 160 812 160 824 c 0,2,3
 160 840 160 840 172 851.5 c 128,-1,4
 184 863 184 863 201 863 c 0,5,6
 222 863 222 863 243 834 c 2,7,-1
 311 744 l 1,8,-1
 241 744 l 1,9,-1
 191 779 l 2,10,0
 174 792 174 792 167 802 c 128,-1,1
EndSplineSet
EndChar
StartChar: one.tf
Encoding: 65540 -1 240
Width: 632
GlyphClass: 1
Flags: W
LayerCount: 2
Fore
SplineSet
74 77 m 1,0,-1
 251 77 l 1,1,-1
 342 504 l 1,2,-1
 164 504 l 1,3,-1
 178 571 l 1,4,5
 257 570 257 570 294 576 c 128,-1,6
 331 582 331 582 354.5 602 c 128,-1,7
 378 622 378 622 405 668 c 1,8,-1
 461 668 l 1,9,-1
 335 77 l 1,10,-1
 495 77 l 1,11,-1
 479 0 l 1,12,-1
 58 0 l 1,13,-1
 74 77 l 1,0,-1
EndSplineSet
Substitution2: "'pnum' Proportional Numbers in Latin lookup 9 subtable" one
AlternateSubs2: "'aalt' Access All Alternates in Latin lookup 0 subtable" one
EndChar
StartChar: uni0307.case
Encoding: 65550 -1 347
Width: 0
GlyphClass: 4
Flags: W
AnchorPoint: "Anchor-5" 220 848 basemark 0
AnchorPoint: "Anchor-5" 182 668 mark 0
AnchorPoint: "Anchor-1" 182 668 mark 0
LayerCount: 2
Fore
SplineSet
170 756 m 128,-1,1
 154 772 154 772 154 794 c 0,2,3
 154 817 154 817 170 832.5 c 128,-1,4
 186 848 186 848 208 848 c 0,5,6
 231 848 231 848 246.5 832.5 c 128,-1,7
 262 817 262 817 262 794 c 0,8,9
 262 772 262 772 246.5 756 c 128,-1,10
 231 740 231 740 208 740 c 0,11,0
 186 740 186 740 170 756 c 128,-1,1
EndSplineSet
EndChar
StartChar: uni0307.large
Encoding: 65551 -1 348
Width: 0
GlyphClass: 4
Flags: W
AnchorPoint: "Anchor-5" 199 714 basemark 0
AnchorPoint: "Anchor-5" 153 496 mark 0
AnchorPoint: "Anchor-1" 153 496 mark 0
LayerCount: 2
Fore
SplineSet
142.5 608.5 m 128,-1,1
 124 627 124 627 124 652 c 0,2,3
 124 678 124 678 142.5 696 c 128,-1,4
 161 714 161 714 186 714 c 0,5,6
 212 714 212 714 230 696 c 128,-1,7
 248 678 248 678 248 652 c 0,8,9
 248 627 248 627 230 608.5 c 128,-1,10
 212 590 212 590 186 590 c 0,11,0
 161 590 161 590 142.5 608.5 c 128,-1,1
EndSplineSet
EndChar
StartChar: uni030A.case
Encoding: 65559 -1 363
Width: 0
GlyphClass: 4
Flags: W
AnchorPoint: "Anchor-5" 274 838 basemark 0
AnchorPoint: "Anchor-5" 238 668 mark 0
AnchorPoint: "Anchor-1" 238 668 mark 0
LayerCount: 2
Fore
SplineSet
173.5 652 m 128,-1,1
 142 684 142 684 142 729 c 256,2,3
 142 774 142 774 173.5 806 c 128,-1,4
 205 838 205 838 251 838 c 256,5,6
 297 838 297 838 328.5 806 c 128,-1,7
 360 774 360 774 360 729 c 256,8,9
 360 684 360 684 328.5 652 c 128,-1,10
 297 620 297 620 251 620 c 256,11,0
 205 620 205 620 173.5 652 c 128,-1,1
288 692.5 m 128,-1,13
 303 707 303 707 303 729 c 256,14,15
 303 751 303 751 288 765.5 c 128,-1,16
 273 780 273 780 251 780 c 256,17,18
 229 780 229 780 214 765.5 c 128,-1,19
 199 751 199 751 199 729 c 256,20,21
 199 707 199 707 214 692.5 c 128,-1,22
 229 678 229 678 251 678 c 256,23,12
 273 678 273 678 288 692.5 c 128,-1,13
EndSplineSet
EndChar
StartChar: uni030C.alt
Encoding: 65555 -1 355
Width: 0
GlyphClass: 4
Flags: W
AnchorPoint: "Anchor-3" 73 496 mark 0
LayerCount: 2
Fore
SplineSet
203 718 m 0,1,2
 218 718 218 718 227.5 710.5 c 128,-1,3
 237 703 237 703 237 690 c 0,4,5
 237 675 237 675 216 642 c 2,6,-1
 153 535 l 1,7,-1
 98 535 l 1,8,-1
 154 682 l 2,9,0
 167 718 167 718 203 718 c 0,1,2
EndSplineSet
EndChar
StartChar: uni0328.alt
Encoding: 65562 -1 372
Width: 0
GlyphClass: 4
Flags: W
AnchorPoint: "Anchor-2" 144 10 mark 0
LayerCount: 2
Fore
SplineSet
-8.5 -153.5 m 128,-1,1
 -35 -134 -35 -134 -35 -100 c 0,2,3
 -35 -61 -35 -61 -5 -25.5 c 128,-1,4
 25 10 25 10 67 28 c 1,5,-1
 131 28 l 1,6,7
 102 14 102 14 70 -15.5 c 128,-1,8
 38 -45 38 -45 38 -76 c 0,9,10
 38 -115 38 -115 86 -115 c 0,11,12
 102 -115 102 -115 119 -110 c 1,13,-1
 106 -167 l 1,14,15
 79 -173 79 -173 57 -173 c 0,16,0
 18 -173 18 -173 -8.5 -153.5 c 128,-1,1
EndSplineSet
EndChar
StartChar: uni0328.case
Encoding: 65563 -1 373
Width: 0
GlyphClass: 4
Flags: W
AnchorPoint: "Anchor-2" 143 10 mark 0
LayerCount: 2
Fore
SplineSet
-10 -154 m 128,-1,1
 -35 -135 -35 -135 -35 -99 c 0,2,3
 -35 -62 -35 -62 -7.5 -31.5 c 128,-1,4
 20 -1 20 -1 62 12 c 1,5,-1
 141 0 l 1,6,7
 90 -16 90 -16 63.5 -34.5 c 128,-1,8
 37 -53 37 -53 37 -80 c 0,9,10
 37 -98 37 -98 50.5 -106.5 c 128,-1,11
 64 -115 64 -115 84 -115 c 0,12,13
 101 -115 101 -115 118 -110 c 1,14,-1
 106 -167 l 1,15,16
 79 -173 79 -173 56 -173 c 0,17,0
 15 -173 15 -173 -10 -154 c 128,-1,1
EndSplineSet
EndChar
